<svg version="1.1" id="Layer_1" xmlns="http://www.w3.org/2000/svg" xmlns:xlink="http://www.w3.org/1999/xlink" x="0px" y="0px"
	 width="100%" viewBox="0 0 280 280" enable-background="new 0 0 280 280" xml:space="preserve">
<path fill="#FDFDFE" opacity="1.000000" stroke="none" 
	d="
M1.000000,104.000000 
	C1.000000,69.333351 1.000000,35.166695 1.000000,1.000032 
	C94.333282,1.000021 187.666565,1.000021 280.999878,1.000011 
	C280.999939,94.333244 280.999939,187.666489 280.999969,280.999817 
	C187.666794,280.999878 94.333595,280.999878 1.000197,280.999939 
	C1.000000,222.166672 1.000000,163.333328 1.000000,104.000000 
M12.744559,100.389618 
	C11.915298,103.850365 9.880017,107.546585 10.500439,110.724289 
	C11.921086,118.000618 9.268991,124.476799 8.272064,131.296112 
	C7.567099,136.118332 6.748856,141.125687 7.322560,145.888840 
	C8.346836,154.392853 10.328056,162.786270 12.036152,171.200165 
	C12.495575,173.463242 13.565526,175.598145 14.086449,177.853943 
	C14.991813,181.774490 15.519148,185.786957 16.524748,189.678253 
	C17.340061,192.833221 18.079775,196.225754 19.823643,198.873688 
	C22.735559,203.295258 26.498877,207.146927 29.768961,211.343552 
	C39.235249,223.492050 51.935020,232.748627 60.479572,245.726166 
	C61.089729,246.652863 62.140480,247.371414 63.123444,247.956482 
	C67.256432,250.416351 71.330147,253.013062 75.630211,255.147400 
	C85.234116,259.914337 94.019562,266.690826 105.316048,267.416870 
	C110.861176,267.773285 116.397354,268.280273 121.932899,268.771851 
	C130.843613,269.563171 139.898621,271.773804 148.617966,270.834534 
	C157.650864,269.861542 166.466202,266.159058 175.162811,263.051849 
	C180.047913,261.306427 184.579788,259.147797 189.996933,260.395538 
	C191.455170,260.731445 193.955109,260.349487 194.705078,259.346283 
	C200.123138,252.098709 208.563568,250.006226 216.028595,246.241653 
	C216.744888,245.880447 217.341125,245.208420 217.882996,244.584991 
	C225.282745,236.071548 232.691467,227.565536 240.028152,218.997940 
	C241.862442,216.855896 243.487366,214.529449 245.139679,212.238129 
	C246.858627,209.854385 247.691254,207.222839 244.845215,205.251633 
	C242.061066,203.323303 239.958328,204.851959 238.153076,207.307602 
	C235.299683,211.188965 232.628418,215.317535 229.201370,218.641830 
	C220.208359,227.365265 215.019363,240.565323 199.893723,242.314392 
	C196.295059,242.730545 193.648438,248.770554 189.796539,250.338074 
	C185.925293,251.913437 180.882446,250.376053 176.731873,251.546371 
	C167.518051,254.144333 158.557648,257.632751 149.450333,260.625519 
	C148.082489,261.075012 146.452393,261.025116 144.989700,260.840668 
	C131.395782,259.126495 117.674751,258.007660 104.280907,255.286972 
	C97.185921,253.845734 90.522141,249.861115 83.922600,246.514160 
	C76.627617,242.814529 68.591164,239.800430 65.226646,231.180527 
	C64.945648,230.460602 64.135765,229.947205 63.571850,229.337616 
	C52.315090,217.169083 41.031994,205.024612 29.850769,192.787064 
	C28.938009,191.788086 28.166601,190.111084 28.266245,188.821518 
	C29.184359,176.939407 21.282869,166.880463 21.424248,155.185257 
	C21.431730,154.566315 20.924566,153.957596 20.760111,153.317612 
	C18.949600,146.271912 17.186537,139.559753 19.354744,131.865952 
	C21.270178,125.069107 20.458677,117.524498 21.086273,110.330551 
	C21.260275,108.336014 22.125950,106.352066 22.930443,104.472923 
	C24.473768,100.868011 26.279827,97.375740 27.829311,93.773262 
	C29.456917,89.989143 30.328608,85.746239 32.550556,82.376312 
	C39.386829,72.008072 46.826199,62.038338 53.716438,51.703876 
	C54.711258,50.211773 53.977875,47.567440 54.044239,45.456314 
	C51.978474,45.584457 49.766193,45.303753 47.894817,45.974346 
	C46.480904,46.481010 45.347439,48.086731 44.356155,49.404198 
	C38.566978,57.098309 32.564919,64.656914 27.223806,72.654655 
	C23.761305,77.839386 21.278082,83.681862 18.403471,89.254074 
	C16.608652,92.733192 14.902044,96.257820 12.744559,100.389618 
M203.462387,226.065445 
	C206.948669,222.279770 210.457886,218.514862 213.912735,214.700699 
	C216.029816,212.363434 217.205795,209.602325 214.243195,207.353210 
	C211.350418,205.157104 209.064209,207.030319 207.086548,209.464218 
	C202.686768,214.879013 198.216461,220.007660 190.692886,221.525085 
	C188.101669,222.047714 186.012375,224.912888 183.615112,226.595886 
	C182.081421,227.672623 180.512772,228.902420 178.767975,229.433899 
	C175.003830,230.580521 171.067551,231.155396 167.288223,232.260178 
	C157.299286,235.180130 147.576996,239.281219 136.716995,237.131317 
	C130.221146,235.845367 123.566177,235.374359 117.054123,234.155594 
	C111.277985,233.074585 105.418205,231.971329 99.918007,229.984634 
	C89.100952,226.077454 80.399124,218.961060 73.261452,210.053177 
	C65.798782,200.739700 58.610977,191.205505 51.354420,181.728455 
	C50.889801,181.121643 50.828838,180.184982 50.645607,179.386719 
	C48.699097,170.906677 47.917015,161.928360 44.535305,154.067673 
	C40.380894,144.410858 40.885036,135.445892 42.823559,125.615135 
	C44.140800,118.935059 44.776257,112.471260 47.796783,105.988441 
	C55.735191,88.950653 63.287399,71.925064 78.720428,59.943970 
	C80.008270,58.944191 80.795250,55.611713 80.121117,54.137619 
	C78.871796,51.405739 76.124992,51.729721 73.753220,53.403854 
	C73.209435,53.787685 72.661987,54.174240 72.163696,54.613403 
	C65.455566,60.525494 58.362057,65.882523 53.879486,74.107384 
	C47.238380,86.292839 39.697479,97.985367 32.741955,110.004822 
	C31.730314,111.752983 31.712345,114.134537 31.457893,116.249870 
	C30.986820,120.166054 31.093521,124.196915 30.217365,128.009460 
	C28.565002,135.199600 27.325226,142.166992 29.896439,149.502029 
	C32.840683,157.901215 36.261257,166.378357 37.400494,175.092804 
	C38.430531,182.971939 41.193348,189.315216 46.073711,195.173676 
	C48.197083,197.722610 49.993687,200.544373 52.125137,203.085876 
	C59.452339,211.822647 65.871346,221.691391 74.530067,228.832794 
	C82.533607,235.433792 92.626350,239.990967 102.454369,243.721771 
	C109.215492,246.288361 117.074577,246.156448 124.480766,246.784058 
	C135.320404,247.702591 146.082794,250.175766 157.036743,246.191254 
	C165.691254,243.043167 174.892090,241.426056 183.718582,238.702209 
	C186.062393,237.978912 187.895294,235.647659 190.009415,234.119217 
	C192.194168,232.539719 194.360489,230.911591 196.675323,229.542145 
	C198.653961,228.371567 200.831512,227.537247 203.462387,226.065445 
M66.548943,154.012177 
	C65.405060,151.090622 64.224953,148.182541 63.129848,145.242828 
	C62.382298,143.236069 60.972790,141.086319 61.215096,139.172119 
	C62.001362,132.960632 61.874081,125.911339 64.891289,120.849228 
	C71.975006,108.964539 74.924721,95.000839 85.916252,84.845688 
	C93.180450,78.134247 100.664680,72.743088 109.366158,68.652016 
	C112.233894,67.303719 114.541946,65.868248 113.092300,62.359608 
	C111.728287,59.058250 109.169106,59.708591 106.387779,60.648998 
	C92.732346,65.266083 83.291222,75.709526 72.821671,84.728264 
	C72.107002,85.343903 71.716316,86.366386 71.256783,87.242584 
	C67.712952,93.999626 64.140549,100.742416 60.677242,107.540695 
	C58.506809,111.801147 55.387897,115.968483 54.655743,120.494835 
	C52.819660,131.845932 48.165146,143.630325 56.645332,154.482864 
	C57.002651,154.940140 56.819668,155.786545 57.001381,156.419235 
	C58.778210,162.605698 59.142120,169.811676 62.671925,174.753342 
	C70.046532,185.077637 73.244362,197.849411 83.489700,206.603302 
	C94.062813,215.637253 105.271004,222.254333 119.134293,223.596970 
	C127.905945,224.446503 136.745911,224.601105 145.557098,225.029129 
	C156.809525,225.575729 166.593231,220.522018 176.357788,216.168350 
	C181.610077,213.826538 186.029205,209.476852 190.568604,205.723892 
	C193.628403,203.194214 196.564880,200.361176 198.895828,197.179764 
	C199.833466,195.900009 199.662354,192.897202 198.746918,191.492584 
	C198.142853,190.565735 194.796967,190.298523 193.566513,191.099609 
	C187.802109,194.852448 181.549942,198.350830 176.995499,203.332840 
	C172.116989,208.669296 165.873093,210.412888 159.825897,212.710861 
	C155.432190,214.380478 150.453796,215.201645 145.739822,215.187164 
	C137.269653,215.161148 128.809036,214.062637 120.332047,213.707565 
	C110.163322,213.281616 101.894936,208.163467 94.120461,202.599991 
	C89.547920,199.327866 85.933022,194.448135 82.609779,189.777481 
	C79.465164,185.357849 76.930679,180.414246 74.729668,175.435059 
	C71.748901,168.691940 69.342140,161.695084 66.548943,154.012177 
M162.279800,198.896637 
	C169.206955,193.034561 176.166351,187.209793 183.031509,181.276001 
	C184.265350,180.209534 185.621567,178.824539 185.999313,177.350357 
	C186.421066,175.704407 186.434387,173.050018 185.446152,172.190552 
	C184.371521,171.255966 181.349304,171.094086 180.201965,171.957809 
	C174.533829,176.224854 168.831680,180.572845 163.853302,185.597504 
	C157.855957,191.650574 151.469452,194.650330 142.924942,192.135513 
	C140.625534,191.458771 137.963898,191.437729 135.562500,191.778305 
	C122.414658,193.642883 111.319115,189.491074 101.777290,180.623276 
	C100.855553,179.766693 99.726349,178.430740 99.764084,177.354828 
	C100.083710,168.240997 93.650398,161.748199 90.855911,153.863693 
	C89.592949,150.300308 88.315140,146.572998 86.168739,143.539368 
	C84.006241,140.482956 83.620712,137.836029 84.470901,134.292740 
	C86.550774,125.624695 94.185600,118.955605 93.358757,109.284241 
	C93.336723,109.026512 93.662834,108.693001 93.896049,108.466270 
	C98.416336,104.071854 102.860107,99.592590 107.521477,95.352699 
	C109.209389,93.817398 111.812378,93.202637 113.279060,91.535500 
	C114.551918,90.088684 114.809807,87.748947 115.516258,85.803833 
	C113.501839,85.263817 111.501686,84.401810 109.467331,84.311653 
	C108.351898,84.262215 107.046097,85.359779 106.053902,86.206917 
	C100.946220,90.567795 96.158089,95.347801 90.773468,99.324944 
	C86.612427,102.398331 84.217331,105.969254 83.114998,110.993164 
	C82.367302,114.400841 80.890076,117.894638 78.869873,120.730759 
	C72.812454,129.234650 73.031715,139.753708 77.134933,149.622192 
	C81.402336,159.885529 88.961723,168.947845 89.376556,180.783676 
	C89.434303,182.431229 90.537666,184.373260 91.746559,185.596146 
	C100.211060,194.158524 109.771469,200.940628 122.269234,201.767258 
	C128.523743,202.180939 135.110550,200.679886 141.039764,202.125534 
	C148.670746,203.986084 155.082474,202.532349 162.279800,198.896637 
M107.808113,157.715958 
	C105.172913,151.996582 102.455269,146.312607 99.970299,140.528687 
	C99.457703,139.335587 99.417130,137.636734 99.834396,136.398605 
	C101.817726,130.513733 103.982758,124.687454 106.230453,118.897499 
	C106.528900,118.128723 107.609406,117.284676 108.431015,117.160851 
	C112.940102,116.481339 114.167938,113.274948 113.871323,109.559547 
	C113.717766,107.636047 112.083176,105.830795 111.117706,103.972115 
	C109.143143,105.132034 107.083618,106.174095 105.233932,107.507271 
	C104.443741,108.076813 104.295395,109.741158 103.505310,110.072037 
	C99.593147,111.710335 98.364265,114.776627 97.742119,118.684181 
	C97.367905,121.034523 95.902466,123.223152 94.859650,125.452766 
	C91.650642,132.313858 88.823593,138.873993 93.400551,146.623520 
	C96.990593,152.702026 99.802902,159.412140 101.829201,166.180420 
	C103.146172,170.579407 104.826920,174.110916 108.430519,176.868301 
	C114.481728,181.498566 120.876617,185.234436 128.783920,185.300674 
	C132.256866,185.329773 135.972672,184.358551 139.162903,185.279770 
	C152.707291,189.190933 160.512146,179.984268 169.057724,172.630829 
	C170.125122,171.712341 170.385040,168.171280 169.503387,167.135269 
	C168.581787,166.052307 165.359573,165.700867 163.972702,166.489212 
	C160.851776,168.263290 158.402832,171.180145 155.381012,173.179398 
	C152.534851,175.062408 149.353348,177.554016 146.234070,177.680908 
	C139.334656,177.961624 132.175964,177.786575 125.505653,176.194412 
	C118.156563,174.440216 110.644737,171.573517 109.990334,161.859375 
	C109.910240,160.670334 108.785118,159.551712 107.808113,157.715958 
M115.994392,138.452057 
	C118.227325,133.973129 120.248856,129.370712 122.767586,125.058739 
	C124.444733,122.187515 125.528793,119.172142 122.937737,117.003471 
	C121.758484,116.016472 117.470604,116.487854 116.632492,117.703728 
	C109.548233,127.981041 103.433807,138.579407 111.743820,151.280426 
	C114.055641,154.813797 114.829620,159.665253 117.717049,162.454514 
	C128.474976,172.846695 145.391205,172.772995 156.825043,162.805206 
	C159.507141,160.467010 164.348129,158.066956 160.510757,153.702484 
	C156.781082,149.460495 154.076050,153.944458 151.564575,156.273880 
	C145.136383,162.236099 132.676041,163.228012 125.510864,158.092834 
	C124.345932,157.257965 123.187843,156.090424 122.612457,154.812790 
	C120.299553,149.677017 118.216820,144.437592 115.994392,138.452057 
M132.965836,152.902863 
	C145.893127,157.637573 154.588577,145.095734 152.777634,136.240662 
	C152.227585,133.551056 151.145111,130.765579 147.707382,131.249268 
	C144.378906,131.717560 143.784363,134.262054 144.233444,137.298981 
	C144.821182,141.273636 143.360809,144.734222 139.257202,144.995193 
	C137.173813,145.127701 133.911987,142.972549 132.955795,140.994553 
	C131.286453,137.541275 132.462677,134.098679 136.714066,132.727402 
	C139.928589,131.690567 140.982742,129.463181 139.648132,126.551682 
	C138.335342,123.687775 135.842667,123.820221 133.265152,124.971390 
	C128.063171,127.294685 124.422050,130.828049 123.967873,136.841476 
	C123.441795,143.807007 126.095291,149.115051 132.965836,152.902863 
M174.131714,127.481079 
	C174.281006,127.956779 174.479706,128.423157 174.571518,128.909698 
	C175.164246,132.050903 176.648773,134.550415 180.213913,133.556656 
	C183.812469,132.553589 183.580109,129.490692 182.723160,126.570808 
	C180.236801,118.099129 175.984650,110.613182 169.175064,104.968285 
	C167.633698,103.690544 163.877289,103.172562 162.377243,104.168182 
	C159.536285,106.053780 161.378128,108.493927 163.150818,110.856255 
	C166.989944,115.972412 170.381775,121.424225 174.131714,127.481079 
M220.776581,120.818123 
	C220.607040,120.174980 220.383591,119.540619 220.277039,118.887207 
	C219.724228,115.497131 218.529633,112.240074 214.390121,113.257797 
	C210.427032,114.232155 211.498657,117.620918 211.908371,120.689171 
	C212.806183,127.412674 213.499832,134.172897 213.972580,140.939392 
	C214.182938,143.950241 214.117020,146.851807 218.011887,147.112411 
	C221.969788,147.377243 222.764771,144.541199 222.571564,141.487015 
	C222.152786,134.867111 221.476074,128.263504 220.776581,120.818123 
M141.958145,62.954128 
	C149.397156,64.424507 156.880875,65.706749 164.252792,67.459381 
	C167.135437,68.144730 169.695587,68.708420 170.887207,65.494568 
	C172.167908,62.040485 169.960922,60.104725 166.870041,59.415562 
	C158.990479,57.658676 151.099869,55.883671 143.130936,54.650654 
	C141.470413,54.393723 138.603973,55.990417 137.786209,57.527271 
	C136.317703,60.287117 138.431747,62.053360 141.958145,62.954128 
M267.747223,129.825211 
	C267.104218,124.718376 266.849731,119.514427 265.610413,114.556664 
	C265.168152,112.787468 262.401733,110.523399 260.587372,110.421471 
	C257.760223,110.262634 256.681519,112.812302 257.022919,115.777977 
	C257.932281,123.676361 258.495911,131.622177 259.690521,139.474060 
	C259.950592,141.183441 262.270935,142.579361 263.642395,144.119659 
	C265.107300,142.487350 267.358368,141.058899 267.847260,139.173508 
	C268.528870,136.544983 267.892822,133.574768 267.747223,129.825211 
M248.705292,88.893333 
	C250.205994,92.739525 251.720062,96.580574 253.202774,100.433693 
	C254.230286,103.103882 256.221252,105.020035 258.830383,103.529274 
	C260.245239,102.720848 261.643280,99.467949 261.105957,98.058350 
	C258.112946,90.206612 254.718521,82.485115 250.966019,74.966293 
	C250.274826,73.581367 247.050720,72.348427 245.449600,72.769836 
	C242.456635,73.557556 242.502899,76.336937 243.730499,78.901352 
	C245.228790,82.031189 246.767960,85.141449 248.705292,88.893333 
M142.477036,10.629412 
	C142.082901,10.331778 141.669037,9.751773 141.297501,9.777742 
	C131.607315,10.455071 121.907295,11.066253 112.257935,12.132206 
	C111.333458,12.234332 109.736099,15.671568 110.223152,16.786285 
	C110.860199,18.244305 113.310837,19.871881 114.897530,19.790653 
	C122.824898,19.384825 130.728394,18.478371 138.632950,17.675840 
	C142.566467,17.276480 144.359894,15.310262 142.477036,10.629412 
M212.844360,32.559654 
	C210.204147,30.812693 207.247894,28.277523 204.697784,32.046673 
	C202.305893,35.581997 205.222504,37.524227 207.894180,39.599026 
	C213.261047,43.766853 218.409348,48.227177 223.503159,52.730457 
	C225.739716,54.707741 228.015869,56.037029 230.501175,53.781128 
	C233.129898,51.395069 231.851471,48.810753 229.693970,46.907043 
	C224.344925,42.187222 218.834549,37.650223 212.844360,32.559654 
M204.316925,89.994690 
	C204.115280,88.435127 204.503632,86.241119 203.617767,85.417343 
	C197.090683,79.347649 190.439621,73.388062 183.477051,67.833199 
	C182.341705,66.927422 179.476196,68.190308 177.410370,68.450821 
	C177.979187,70.591797 177.872375,73.429787 179.235626,74.751198 
	C184.679276,80.027802 190.703506,84.700211 196.257233,89.870804 
	C198.849014,92.283775 201.096954,93.220970 204.316925,89.994690 
M217.220505,154.229904 
	C215.424164,155.458725 212.831818,156.284943 211.970963,157.986923 
	C208.478424,164.892029 205.573730,172.091949 202.330856,179.127197 
	C201.186462,181.609894 200.433716,184.038040 203.242874,185.641983 
	C206.075073,187.259079 208.608582,186.045593 209.867783,183.309387 
	C213.387619,175.660889 216.824600,167.959961 219.826569,160.101044 
	C220.350235,158.730164 218.599060,156.490341 217.220505,154.229904 
M190.990509,29.630127 
	C193.774094,31.106892 196.933365,32.410530 198.654526,28.732296 
	C200.461823,24.869959 197.510010,23.105917 194.307831,21.889568 
	C187.374435,19.255907 180.493042,16.479259 173.511459,13.981712 
	C170.874512,13.038389 167.998245,13.039346 167.155487,16.581215 
	C166.379730,19.841446 168.386353,21.203436 171.291122,22.191608 
	C177.690079,24.368465 183.974258,26.882780 190.990509,29.630127 
M102.028961,22.662270 
	C102.229889,20.728830 103.046722,18.543882 102.398743,16.957102 
	C102.015358,16.018251 98.983238,15.214787 97.714027,15.737894 
	C89.635101,19.067616 81.631783,22.618097 73.835930,26.555897 
	C72.703712,27.127798 71.918747,30.655043 72.610878,31.915138 
	C73.266373,33.108521 76.458527,34.066319 77.872955,33.493309 
	C85.820076,30.273775 93.567070,26.560268 102.028961,22.662270 
M262.216827,168.810150 
	C258.736053,166.412125 256.398621,167.435669 254.957733,171.216843 
	C252.199478,178.455032 249.209167,185.617279 246.822433,192.975586 
	C246.241776,194.765747 246.928482,198.151825 248.260498,199.127487 
	C250.920349,201.075668 253.144547,199.149414 254.415482,196.370377 
	C255.858658,193.214783 257.743591,190.191574 258.696350,186.896759 
	C260.360901,181.140350 261.459595,175.220291 262.216827,168.810150 
M130.412292,38.040424 
	C131.086411,33.867786 129.024475,31.755919 125.132843,32.505524 
	C117.825714,33.913021 110.622177,35.862389 103.383476,37.619038 
	C100.497009,38.319508 98.202911,39.899658 99.144630,43.163330 
	C100.196838,46.809959 103.190193,46.295429 106.134941,45.592720 
	C112.736549,44.017380 119.389694,42.654655 125.975166,41.017567 
	C127.446030,40.651924 128.724777,39.513470 130.412292,38.040424 
M143.661880,31.859180 
	C143.165421,31.835186 142.665237,31.841793 142.173096,31.782209 
	C139.083893,31.408211 136.667969,32.490467 136.487656,35.740601 
	C136.305740,39.019733 138.662643,39.964710 141.720139,40.313171 
	C148.776367,41.117367 155.770157,42.518440 162.836395,43.151077 
	C164.562973,43.305656 167.372009,41.876064 168.100708,40.395763 
	C169.451752,37.651169 167.389282,35.579472 164.640137,35.076820 
	C157.980377,33.859165 151.267426,32.932533 143.661880,31.859180 
M241.632019,162.128372 
	C237.643433,158.617752 234.994171,159.387848 233.319717,164.160645 
	C230.969925,170.858459 228.087357,177.376114 225.928482,184.129333 
	C225.403427,185.771774 226.813461,188.032806 227.333740,190.009415 
	C229.218658,189.503540 232.357224,189.497147 232.789398,188.412445 
	C236.131958,180.023193 238.951248,171.425415 241.632019,162.128372 
M189.434296,47.914265 
	C186.706085,50.935921 187.805908,53.087238 190.740021,55.283199 
	C196.181686,59.355865 201.488953,63.615253 206.733322,67.940994 
	C208.970169,69.786041 211.092941,71.324852 213.652847,68.805191 
	C216.535858,65.967545 214.704147,63.470470 212.451187,61.624409 
	C206.942245,57.110428 201.309341,52.730953 195.512115,48.597786 
	C194.125580,47.609253 191.901932,47.794872 189.434296,47.914265 
M231.695160,101.137840 
	C236.284897,100.198532 237.781021,98.169968 235.781326,94.492813 
	C232.229675,87.961884 228.260086,81.654076 224.349655,75.324394 
	C222.688126,72.634926 220.290894,71.030815 217.341019,73.391365 
	C214.591736,75.591385 216.027786,78.017982 217.509659,80.420372 
	C221.067612,86.188507 224.441483,92.070175 227.996567,97.840126 
	C228.735641,99.039642 229.937256,99.954170 231.695160,101.137840 
M193.037201,166.502090 
	C195.304672,158.793213 197.753342,151.130615 199.740311,143.350098 
	C200.425827,140.665710 200.341034,137.339157 196.328949,136.857407 
	C192.077423,136.346878 191.865448,139.502090 191.214874,142.601959 
	C189.931335,148.717896 188.154938,154.728973 186.768890,160.825806 
	C186.399689,162.449738 186.029312,165.090286 186.856445,165.739761 
	C188.223099,166.812927 190.562790,166.646912 193.037201,166.502090 
M170.343140,95.055496 
	C175.203827,101.073250 180.245346,106.957474 184.836075,113.174561 
	C186.667603,115.654938 188.452332,117.415390 191.315720,115.880890 
	C194.377609,114.240013 193.888367,111.194687 192.204697,108.979439 
	C187.719543,103.078239 183.194077,97.148026 178.087097,91.799950 
	C174.651657,88.202354 172.196594,89.297333 170.343140,95.055496 
M137.955841,84.754738 
	C145.789795,86.771034 153.584244,88.974182 161.491135,90.645348 
	C163.065033,90.978004 166.054062,89.689743 166.599457,88.394646 
	C167.151077,87.084808 165.865479,83.553787 164.719849,83.209770 
	C156.839127,80.843369 148.856216,78.631523 140.755524,77.259590 
	C136.528778,76.543739 135.214310,79.802094 137.955841,84.754738 
M243.337875,123.230591 
	C238.416016,120.925171 236.084274,122.379776 236.167816,127.541954 
	C236.282684,134.641373 236.041626,141.755203 236.440765,148.835358 
	C236.541916,150.629913 238.123169,153.240891 239.669861,153.857544 
	C242.466583,154.972549 244.707687,152.894501 244.686890,150.041718 
	C244.623337,141.321640 244.152634,132.604523 243.337875,123.230591 
M174.551743,148.803284 
	C173.252350,151.848450 171.621414,154.807449 170.797638,157.976257 
	C170.403656,159.491821 171.019043,162.183502 172.126343,162.924835 
	C173.289398,163.703476 176.503708,163.475571 177.239319,162.497482 
	C181.625870,156.665070 183.938965,149.905731 183.735199,142.568619 
	C183.701614,141.358719 181.600021,139.409775 180.284988,139.256821 
	C178.979675,139.105011 176.868927,140.468170 176.177460,141.744476 
	C175.194153,143.559494 175.185135,145.902344 174.551743,148.803284 
M137.166275,92.869637 
	C131.539246,94.065277 125.816414,94.954285 120.349525,96.662453 
	C118.901337,97.114960 118.240814,100.088364 117.218620,101.904266 
	C119.279526,102.673050 121.437836,104.274414 123.382202,104.046967 
	C128.270996,103.475090 133.123047,102.282944 137.862671,100.902817 
	C139.600540,100.396774 141.922607,98.915810 142.323532,97.432365 
	C143.110199,94.521751 141.113708,92.875244 137.166275,92.869637 
M149.249542,110.997284 
	C142.853775,107.601822 136.306229,107.650948 129.532150,109.830162 
	C126.622841,110.766075 125.178177,112.415817 126.017944,115.310715 
	C126.914726,118.402206 129.315170,118.177490 132.068481,117.830109 
	C135.943726,117.341171 139.977097,117.037193 143.814346,117.573471 
	C149.151871,118.319412 150.767807,117.018204 149.249542,110.997284 
M168.423401,141.901672 
	C167.974487,137.651901 167.894577,133.309372 166.863037,129.206070 
	C166.532104,127.889618 163.447067,126.192902 162.061386,126.521698 
	C160.727173,126.838287 159.220947,129.489731 159.085892,131.216660 
	C158.706848,136.063080 158.735489,140.984543 159.158951,145.827835 
	C159.313293,147.592926 160.738220,150.206940 162.127884,150.625305 
	C163.433533,151.018387 165.917267,149.388489 167.028763,147.976532 
	C168.034241,146.699280 167.886398,144.514130 168.423401,141.901672 
M150.459183,15.915397 
	C152.219681,19.220255 155.270920,19.615208 158.103760,18.310711 
	C159.344757,17.739246 160.713501,14.417493 160.167328,13.626043 
	C159.047058,12.002703 156.763107,10.541162 154.795868,10.291300 
	C151.713867,9.899849 149.887573,11.849945 150.459183,15.915397 
M176.611130,48.125832 
	C179.297150,49.233387 182.164749,49.652168 183.103317,46.272636 
	C183.522293,44.764000 182.449356,41.726326 181.215576,41.137054 
	C179.406494,40.272999 176.107269,40.098293 174.764603,41.216595 
	C172.304779,43.265339 173.473495,45.961510 176.611130,48.125832 
M66.914108,40.398094 
	C68.019432,37.698975 67.674576,34.896782 64.704643,34.471111 
	C62.717255,34.186272 59.974628,35.623276 58.437786,37.158516 
	C57.601910,37.993523 58.242546,42.087444 58.797672,42.216602 
	C60.872417,42.699303 63.191841,42.196018 65.406952,41.949734 
	C65.810524,41.904861 66.155334,41.331371 66.914108,40.398094 
M242.950989,65.133423 
	C243.581589,61.324848 241.362396,59.030449 238.235703,58.170437 
	C236.987625,57.827148 233.675400,60.011620 233.781052,60.601639 
	C234.195816,62.917847 235.116547,65.649963 236.819519,67.033607 
	C237.796432,67.827362 240.638168,66.325928 242.950989,65.133423 
M84.322502,49.305473 
	C86.205101,50.448059 88.105850,52.486603 89.964531,52.448940 
	C91.443893,52.418968 93.455009,50.070702 94.103226,48.331615 
	C94.489868,47.294277 92.514076,44.113201 91.924301,44.196266 
	C89.517082,44.535316 87.203445,45.692249 84.935532,46.724152 
	C84.531624,46.907925 84.508385,47.928345 84.322502,49.305473 
M129.175400,79.215919 
	C126.117989,77.047638 123.278778,78.117508 121.458176,80.637512 
	C120.653275,81.751625 121.133820,85.420662 121.914406,85.734901 
	C123.889229,86.529877 126.662041,86.777351 128.567001,85.962532 
	C131.186600,84.842033 131.516541,82.241043 129.175400,79.215919 
M266.306610,158.684647 
	C266.500488,157.721481 267.159698,156.503036 266.798370,155.844437 
	C265.829956,154.079269 264.424500,152.553909 263.192627,150.933273 
	C261.605194,152.235367 259.347198,153.253983 258.639465,154.927994 
	C258.058472,156.302246 258.873383,159.625153 259.864594,160.003952 
	C261.578857,160.659134 263.909210,159.702164 266.306610,158.684647 
M157.272018,101.783897 
	C158.841263,98.822739 157.390656,96.785355 154.758179,96.091530 
	C152.877029,95.595734 150.494705,95.987442 148.678741,96.774216 
	C147.984924,97.074814 147.603241,100.502411 148.188461,100.909164 
	C150.151108,102.273270 152.580734,103.024841 154.912842,103.749336 
	C155.395157,103.899170 156.227158,102.923378 157.272018,101.783897 
M190.207336,127.164009 
	C190.849121,130.400909 193.025986,132.029755 195.918930,130.759857 
	C197.300858,130.153244 198.845947,127.152184 198.422104,125.854805 
	C197.806305,123.969955 195.638779,121.593552 193.841354,121.316101 
	C190.779266,120.843422 189.804688,123.499092 190.207336,127.164009 
M240.521820,108.089500 
	C238.562607,105.731300 235.811371,105.174889 234.227676,107.598640 
	C233.148117,109.250839 233.397003,112.382919 234.194977,114.401390 
	C234.617218,115.469444 237.742432,116.395370 239.188980,115.937454 
	C242.121994,115.008965 242.189224,112.361305 241.091736,109.733894 
	C240.965149,109.430878 240.935471,109.087395 240.521820,108.089500 
M225.618988,196.191422 
	C223.624390,195.744812 220.810944,194.284454 219.822189,195.083099 
	C218.237045,196.363495 217.479218,199.088623 217.179260,201.312103 
	C217.073853,202.093414 219.827805,204.242340 220.441605,203.959000 
	C222.471985,203.021698 224.245193,201.380127 225.843170,199.741669 
	C226.331894,199.240555 225.938354,197.878967 225.618988,196.191422 
M124.585678,64.115707 
	C127.777573,64.073586 130.482849,62.950237 130.170761,59.380978 
	C130.041077,57.897812 127.712158,55.303387 126.738831,55.457634 
	C124.415024,55.825897 122.302559,57.527763 120.104752,58.691093 
	C121.324455,60.498016 122.544159,62.304939 124.585678,64.115707 
M157.061523,115.278534 
	C155.293274,116.502838 153.525009,117.727150 151.756760,118.951462 
	C153.091461,120.843079 154.126602,123.143723 155.897079,124.440323 
	C156.689728,125.020836 160.304169,123.619194 160.316971,123.063599 
	C160.367188,120.882721 159.536789,118.668175 158.920471,116.498207 
	C158.814758,116.126007 158.158356,115.910210 157.061523,115.278534 
M208.530365,96.899673 
	C207.328949,98.545601 204.916519,100.461777 205.209396,101.774254 
	C205.650925,103.752922 207.768372,105.632263 209.629196,106.866997 
	C210.260025,107.285576 213.482971,105.535980 213.439163,104.926926 
	C213.265320,102.509056 212.371094,100.111282 211.494492,97.800636 
	C211.304077,97.298676 210.083038,97.187698 208.530365,96.899673 
z"/>
<path fill="#333694" opacity="1.000000" stroke="none" 
	d="
M12.950207,100.075821 
	C14.902044,96.257820 16.608652,92.733192 18.403471,89.254074 
	C21.278082,83.681862 23.761305,77.839386 27.223806,72.654655 
	C32.564919,64.656914 38.566978,57.098309 44.356155,49.404198 
	C45.347439,48.086731 46.480904,46.481010 47.894817,45.974346 
	C49.766193,45.303753 51.978474,45.584457 54.044239,45.456314 
	C53.977875,47.567440 54.711258,50.211773 53.716438,51.703876 
	C46.826199,62.038338 39.386829,72.008072 32.550556,82.376312 
	C30.328608,85.746239 29.456917,89.989143 27.829311,93.773262 
	C26.279827,97.375740 24.473768,100.868011 22.930443,104.472923 
	C22.125950,106.352066 21.260275,108.336014 21.086273,110.330551 
	C20.458677,117.524498 21.270178,125.069107 19.354744,131.865952 
	C17.186537,139.559753 18.949600,146.271912 20.760111,153.317612 
	C20.924566,153.957596 21.431730,154.566315 21.424248,155.185257 
	C21.282869,166.880463 29.184359,176.939407 28.266245,188.821518 
	C28.166601,190.111084 28.938009,191.788086 29.850769,192.787064 
	C41.031994,205.024612 52.315090,217.169083 63.571850,229.337616 
	C64.135765,229.947205 64.945648,230.460602 65.226646,231.180527 
	C68.591164,239.800430 76.627617,242.814529 83.922600,246.514160 
	C90.522141,249.861115 97.185921,253.845734 104.280907,255.286972 
	C117.674751,258.007660 131.395782,259.126495 144.989700,260.840668 
	C146.452393,261.025116 148.082489,261.075012 149.450333,260.625519 
	C158.557648,257.632751 167.518051,254.144333 176.731873,251.546371 
	C180.882446,250.376053 185.925293,251.913437 189.796539,250.338074 
	C193.648438,248.770554 196.295059,242.730545 199.893723,242.314392 
	C215.019363,240.565323 220.208359,227.365265 229.201370,218.641830 
	C232.628418,215.317535 235.299683,211.188965 238.153076,207.307602 
	C239.958328,204.851959 242.061066,203.323303 244.845215,205.251633 
	C247.691254,207.222839 246.858627,209.854385 245.139679,212.238129 
	C243.487366,214.529449 241.862442,216.855896 240.028152,218.997940 
	C232.691467,227.565536 225.282745,236.071548 217.882996,244.584991 
	C217.341125,245.208420 216.744888,245.880447 216.028595,246.241653 
	C208.563568,250.006226 200.123138,252.098709 194.705078,259.346283 
	C193.955109,260.349487 191.455170,260.731445 189.996933,260.395538 
	C184.579788,259.147797 180.047913,261.306427 175.162811,263.051849 
	C166.466202,266.159058 157.650864,269.861542 148.617966,270.834534 
	C139.898621,271.773804 130.843613,269.563171 121.932899,268.771851 
	C116.397354,268.280273 110.861176,267.773285 105.316048,267.416870 
	C94.019562,266.690826 85.234116,259.914337 75.630211,255.147400 
	C71.330147,253.013062 67.256432,250.416351 63.123444,247.956482 
	C62.140480,247.371414 61.089729,246.652863 60.479572,245.726166 
	C51.935020,232.748627 39.235249,223.492050 29.768961,211.343552 
	C26.498877,207.146927 22.735559,203.295258 19.823643,198.873688 
	C18.079775,196.225754 17.340061,192.833221 16.524748,189.678253 
	C15.519148,185.786957 14.991813,181.774490 14.086449,177.853943 
	C13.565526,175.598145 12.495575,173.463242 12.036152,171.200165 
	C10.328056,162.786270 8.346836,154.392853 7.322560,145.888840 
	C6.748856,141.125687 7.567099,136.118332 8.272064,131.296112 
	C9.268991,124.476799 11.921086,118.000618 10.500439,110.724289 
	C9.880017,107.546585 11.915298,103.850365 12.950207,100.075821 
z"/>
<path fill="#333695" opacity="1.000000" stroke="none" 
	d="
M203.191742,226.309814 
	C200.831512,227.537247 198.653961,228.371567 196.675323,229.542145 
	C194.360489,230.911591 192.194168,232.539719 190.009415,234.119217 
	C187.895294,235.647659 186.062393,237.978912 183.718582,238.702209 
	C174.892090,241.426056 165.691254,243.043167 157.036743,246.191254 
	C146.082794,250.175766 135.320404,247.702591 124.480766,246.784058 
	C117.074577,246.156448 109.215492,246.288361 102.454369,243.721771 
	C92.626350,239.990967 82.533607,235.433792 74.530067,228.832794 
	C65.871346,221.691391 59.452339,211.822647 52.125137,203.085876 
	C49.993687,200.544373 48.197083,197.722610 46.073711,195.173676 
	C41.193348,189.315216 38.430531,182.971939 37.400494,175.092804 
	C36.261257,166.378357 32.840683,157.901215 29.896439,149.502029 
	C27.325226,142.166992 28.565002,135.199600 30.217365,128.009460 
	C31.093521,124.196915 30.986820,120.166054 31.457893,116.249870 
	C31.712345,114.134537 31.730314,111.752983 32.741955,110.004822 
	C39.697479,97.985367 47.238380,86.292839 53.879486,74.107384 
	C58.362057,65.882523 65.455566,60.525494 72.163696,54.613403 
	C72.661987,54.174240 73.209435,53.787685 73.753220,53.403854 
	C76.124992,51.729721 78.871796,51.405739 80.121117,54.137619 
	C80.795250,55.611713 80.008270,58.944191 78.720428,59.943970 
	C63.287399,71.925064 55.735191,88.950653 47.796783,105.988441 
	C44.776257,112.471260 44.140800,118.935059 42.823559,125.615135 
	C40.885036,135.445892 40.380894,144.410858 44.535305,154.067673 
	C47.917015,161.928360 48.699097,170.906677 50.645607,179.386719 
	C50.828838,180.184982 50.889801,181.121643 51.354420,181.728455 
	C58.610977,191.205505 65.798782,200.739700 73.261452,210.053177 
	C80.399124,218.961060 89.100952,226.077454 99.918007,229.984634 
	C105.418205,231.971329 111.277985,233.074585 117.054123,234.155594 
	C123.566177,235.374359 130.221146,235.845367 136.716995,237.131317 
	C147.576996,239.281219 157.299286,235.180130 167.288223,232.260178 
	C171.067551,231.155396 175.003830,230.580521 178.767975,229.433899 
	C180.512772,228.902420 182.081421,227.672623 183.615112,226.595886 
	C186.012375,224.912888 188.101669,222.047714 190.692886,221.525085 
	C198.216461,220.007660 202.686768,214.879013 207.086548,209.464218 
	C209.064209,207.030319 211.350418,205.157104 214.243195,207.353210 
	C217.205795,209.602325 216.029816,212.363434 213.912735,214.700699 
	C210.457886,218.514862 206.948669,222.279770 203.191742,226.309814 
z"/>
<path fill="#343795" opacity="1.000000" stroke="none" 
	d="
M66.619041,154.409622 
	C69.342140,161.695084 71.748901,168.691940 74.729668,175.435059 
	C76.930679,180.414246 79.465164,185.357849 82.609779,189.777481 
	C85.933022,194.448135 89.547920,199.327866 94.120461,202.599991 
	C101.894936,208.163467 110.163322,213.281616 120.332047,213.707565 
	C128.809036,214.062637 137.269653,215.161148 145.739822,215.187164 
	C150.453796,215.201645 155.432190,214.380478 159.825897,212.710861 
	C165.873093,210.412888 172.116989,208.669296 176.995499,203.332840 
	C181.549942,198.350830 187.802109,194.852448 193.566513,191.099609 
	C194.796967,190.298523 198.142853,190.565735 198.746918,191.492584 
	C199.662354,192.897202 199.833466,195.900009 198.895828,197.179764 
	C196.564880,200.361176 193.628403,203.194214 190.568604,205.723892 
	C186.029205,209.476852 181.610077,213.826538 176.357788,216.168350 
	C166.593231,220.522018 156.809525,225.575729 145.557098,225.029129 
	C136.745911,224.601105 127.905945,224.446503 119.134293,223.596970 
	C105.271004,222.254333 94.062813,215.637253 83.489700,206.603302 
	C73.244362,197.849411 70.046532,185.077637 62.671925,174.753342 
	C59.142120,169.811676 58.778210,162.605698 57.001381,156.419235 
	C56.819668,155.786545 57.002651,154.940140 56.645332,154.482864 
	C48.165146,143.630325 52.819660,131.845932 54.655743,120.494835 
	C55.387897,115.968483 58.506809,111.801147 60.677242,107.540695 
	C64.140549,100.742416 67.712952,93.999626 71.256783,87.242584 
	C71.716316,86.366386 72.107002,85.343903 72.821671,84.728264 
	C83.291222,75.709526 92.732346,65.266083 106.387779,60.648998 
	C109.169106,59.708591 111.728287,59.058250 113.092300,62.359608 
	C114.541946,65.868248 112.233894,67.303719 109.366158,68.652016 
	C100.664680,72.743088 93.180450,78.134247 85.916252,84.845688 
	C74.924721,95.000839 71.975006,108.964539 64.891289,120.849228 
	C61.874081,125.911339 62.001362,132.960632 61.215096,139.172119 
	C60.972790,141.086319 62.382298,143.236069 63.129848,145.242828 
	C64.224953,148.182541 65.405060,151.090622 66.619041,154.409622 
z"/>
<path fill="#343795" opacity="1.000000" stroke="none" 
	d="
M161.928711,199.021149 
	C155.082474,202.532349 148.670746,203.986084 141.039764,202.125534 
	C135.110550,200.679886 128.523743,202.180939 122.269234,201.767258 
	C109.771469,200.940628 100.211060,194.158524 91.746559,185.596146 
	C90.537666,184.373260 89.434303,182.431229 89.376556,180.783676 
	C88.961723,168.947845 81.402336,159.885529 77.134933,149.622192 
	C73.031715,139.753708 72.812454,129.234650 78.869873,120.730759 
	C80.890076,117.894638 82.367302,114.400841 83.114998,110.993164 
	C84.217331,105.969254 86.612427,102.398331 90.773468,99.324944 
	C96.158089,95.347801 100.946220,90.567795 106.053902,86.206917 
	C107.046097,85.359779 108.351898,84.262215 109.467331,84.311653 
	C111.501686,84.401810 113.501839,85.263817 115.516266,85.803833 
	C114.809807,87.748947 114.551918,90.088684 113.279060,91.535500 
	C111.812378,93.202637 109.209389,93.817398 107.521477,95.352699 
	C102.860107,99.592590 98.416336,104.071854 93.896049,108.466270 
	C93.662834,108.693001 93.336723,109.026512 93.358757,109.284241 
	C94.185600,118.955605 86.550774,125.624695 84.470901,134.292740 
	C83.620712,137.836029 84.006241,140.482956 86.168739,143.539368 
	C88.315140,146.572998 89.592949,150.300308 90.855911,153.863693 
	C93.650398,161.748199 100.083710,168.240997 99.764084,177.354828 
	C99.726349,178.430740 100.855553,179.766693 101.777290,180.623276 
	C111.319115,189.491074 122.414658,193.642883 135.562500,191.778305 
	C137.963898,191.437729 140.625534,191.458771 142.924942,192.135513 
	C151.469452,194.650330 157.855957,191.650574 163.853302,185.597504 
	C168.831680,180.572845 174.533829,176.224854 180.201965,171.957809 
	C181.349304,171.094086 184.371521,171.255966 185.446152,172.190552 
	C186.434387,173.050018 186.421066,175.704407 185.999313,177.350357 
	C185.621567,178.824539 184.265350,180.209534 183.031509,181.276001 
	C176.166351,187.209793 169.206955,193.034561 161.928711,199.021149 
z"/>
<path fill="#343795" opacity="1.000000" stroke="none" 
	d="
M107.976196,158.058197 
	C108.785118,159.551712 109.910240,160.670334 109.990334,161.859375 
	C110.644737,171.573517 118.156563,174.440216 125.505653,176.194412 
	C132.175964,177.786575 139.334656,177.961624 146.234070,177.680908 
	C149.353348,177.554016 152.534851,175.062408 155.381012,173.179398 
	C158.402832,171.180145 160.851776,168.263290 163.972702,166.489212 
	C165.359573,165.700867 168.581787,166.052307 169.503387,167.135269 
	C170.385040,168.171280 170.125122,171.712341 169.057724,172.630829 
	C160.512146,179.984268 152.707291,189.190933 139.162903,185.279770 
	C135.972672,184.358551 132.256866,185.329773 128.783920,185.300674 
	C120.876617,185.234436 114.481728,181.498566 108.430519,176.868301 
	C104.826920,174.110916 103.146172,170.579407 101.829201,166.180420 
	C99.802902,159.412140 96.990593,152.702026 93.400551,146.623520 
	C88.823593,138.873993 91.650642,132.313858 94.859650,125.452766 
	C95.902466,123.223152 97.367905,121.034523 97.742119,118.684181 
	C98.364265,114.776627 99.593147,111.710335 103.505310,110.072037 
	C104.295395,109.741158 104.443741,108.076813 105.233932,107.507271 
	C107.083618,106.174095 109.143143,105.132034 111.117706,103.972115 
	C112.083176,105.830795 113.717766,107.636047 113.871323,109.559547 
	C114.167938,113.274948 112.940102,116.481339 108.431015,117.160851 
	C107.609406,117.284676 106.528900,118.128723 106.230453,118.897499 
	C103.982758,124.687454 101.817726,130.513733 99.834396,136.398605 
	C99.417130,137.636734 99.457703,139.335587 99.970299,140.528687 
	C102.455269,146.312607 105.172913,151.996582 107.976196,158.058197 
z"/>
<path fill="#353895" opacity="1.000000" stroke="none" 
	d="
M116.021706,138.844269 
	C118.216820,144.437592 120.299553,149.677017 122.612457,154.812790 
	C123.187843,156.090424 124.345932,157.257965 125.510864,158.092834 
	C132.676041,163.228012 145.136383,162.236099 151.564575,156.273880 
	C154.076050,153.944458 156.781082,149.460495 160.510757,153.702484 
	C164.348129,158.066956 159.507141,160.467010 156.825043,162.805206 
	C145.391205,172.772995 128.474976,172.846695 117.717049,162.454514 
	C114.829620,159.665253 114.055641,154.813797 111.743820,151.280426 
	C103.433807,138.579407 109.548233,127.981041 116.632492,117.703728 
	C117.470604,116.487854 121.758484,116.016472 122.937737,117.003471 
	C125.528793,119.172142 124.444733,122.187515 122.767586,125.058739 
	C120.248856,129.370712 118.227325,133.973129 116.021706,138.844269 
z"/>
<path fill="#363996" opacity="1.000000" stroke="none" 
	d="
M132.617935,152.726761 
	C126.095291,149.115051 123.441795,143.807007 123.967873,136.841476 
	C124.422050,130.828049 128.063171,127.294685 133.265152,124.971390 
	C135.842667,123.820221 138.335342,123.687775 139.648132,126.551682 
	C140.982742,129.463181 139.928589,131.690567 136.714066,132.727402 
	C132.462677,134.098679 131.286453,137.541275 132.955795,140.994553 
	C133.911987,142.972549 137.173813,145.127701 139.257202,144.995193 
	C143.360809,144.734222 144.821182,141.273636 144.233444,137.298981 
	C143.784363,134.262054 144.378906,131.717560 147.707382,131.249268 
	C151.145111,130.765579 152.227585,133.551056 152.777634,136.240662 
	C154.588577,145.095734 145.893127,157.637573 132.617935,152.726761 
z"/>
<path fill="#353895" opacity="1.000000" stroke="none" 
	d="
M174.044128,127.109924 
	C170.381775,121.424225 166.989944,115.972412 163.150818,110.856255 
	C161.378128,108.493927 159.536285,106.053780 162.377243,104.168182 
	C163.877289,103.172562 167.633698,103.690544 169.175064,104.968285 
	C175.984650,110.613182 180.236801,118.099129 182.723160,126.570808 
	C183.580109,129.490692 183.812469,132.553589 180.213913,133.556656 
	C176.648773,134.550415 175.164246,132.050903 174.571518,128.909698 
	C174.479706,128.423157 174.281006,127.956779 174.044128,127.109924 
z"/>
<path fill="#363996" opacity="1.000000" stroke="none" 
	d="
M220.840714,121.235687 
	C221.476074,128.263504 222.152786,134.867111 222.571564,141.487015 
	C222.764771,144.541199 221.969788,147.377243 218.011887,147.112411 
	C214.117020,146.851807 214.182938,143.950241 213.972580,140.939392 
	C213.499832,134.172897 212.806183,127.412674 211.908371,120.689171 
	C211.498657,117.620918 210.427032,114.232155 214.390121,113.257797 
	C218.529633,112.240074 219.724228,115.497131 220.277039,118.887207 
	C220.383591,119.540619 220.607040,120.174980 220.840714,121.235687 
z"/>
<path fill="#343795" opacity="1.000000" stroke="none" 
	d="
M141.550995,62.912407 
	C138.431747,62.053360 136.317703,60.287117 137.786209,57.527271 
	C138.603973,55.990417 141.470413,54.393723 143.130936,54.650654 
	C151.099869,55.883671 158.990479,57.658676 166.870041,59.415562 
	C169.960922,60.104725 172.167908,62.040485 170.887207,65.494568 
	C169.695587,68.708420 167.135437,68.144730 164.252792,67.459381 
	C156.880875,65.706749 149.397156,64.424507 141.550995,62.912407 
z"/>
<path fill="#363996" opacity="1.000000" stroke="none" 
	d="
M267.783936,130.287994 
	C267.892822,133.574768 268.528870,136.544983 267.847260,139.173508 
	C267.358368,141.058899 265.107300,142.487350 263.642395,144.119659 
	C262.270935,142.579361 259.950592,141.183441 259.690521,139.474060 
	C258.495911,131.622177 257.932281,123.676361 257.022919,115.777977 
	C256.681519,112.812302 257.760223,110.262634 260.587372,110.421471 
	C262.401733,110.523399 265.168152,112.787468 265.610413,114.556664 
	C266.849731,119.514427 267.104218,124.718376 267.783936,130.287994 
z"/>
<path fill="#363996" opacity="1.000000" stroke="none" 
	d="
M248.497375,88.576752 
	C246.767960,85.141449 245.228790,82.031189 243.730499,78.901352 
	C242.502899,76.336937 242.456635,73.557556 245.449600,72.769836 
	C247.050720,72.348427 250.274826,73.581367 250.966019,74.966293 
	C254.718521,82.485115 258.112946,90.206612 261.105957,98.058350 
	C261.643280,99.467949 260.245239,102.720848 258.830383,103.529274 
	C256.221252,105.020035 254.230286,103.103882 253.202774,100.433693 
	C251.720062,96.580574 250.205994,92.739525 248.497375,88.576752 
z"/>
<path fill="#373A96" opacity="1.000000" stroke="none" 
	d="
M142.694702,10.942190 
	C144.359894,15.310262 142.566467,17.276480 138.632950,17.675840 
	C130.728394,18.478371 122.824898,19.384825 114.897530,19.790653 
	C113.310837,19.871881 110.860199,18.244305 110.223152,16.786285 
	C109.736099,15.671568 111.333458,12.234332 112.257935,12.132206 
	C121.907295,11.066253 131.607315,10.455071 141.297501,9.777742 
	C141.669037,9.751773 142.082901,10.331778 142.694702,10.942190 
z"/>
<path fill="#373A96" opacity="1.000000" stroke="none" 
	d="
M213.116669,32.799721 
	C218.834549,37.650223 224.344925,42.187222 229.693970,46.907043 
	C231.851471,48.810753 233.129898,51.395069 230.501175,53.781128 
	C228.015869,56.037029 225.739716,54.707741 223.503159,52.730457 
	C218.409348,48.227177 213.261047,43.766853 207.894180,39.599026 
	C205.222504,37.524227 202.305893,35.581997 204.697784,32.046673 
	C207.247894,28.277523 210.204147,30.812693 213.116669,32.799721 
z"/>
<path fill="#343795" opacity="1.000000" stroke="none" 
	d="
M204.144775,90.339828 
	C201.096954,93.220970 198.849014,92.283775 196.257233,89.870804 
	C190.703506,84.700211 184.679276,80.027802 179.235626,74.751198 
	C177.872375,73.429787 177.979187,70.591797 177.410370,68.450821 
	C179.476196,68.190308 182.341705,66.927422 183.477051,67.833199 
	C190.439621,73.388062 197.090683,79.347649 203.617767,85.417343 
	C204.503632,86.241119 204.115280,88.435127 204.144775,90.339828 
z"/>
<path fill="#363996" opacity="1.000000" stroke="none" 
	d="
M217.559525,154.440887 
	C218.599060,156.490341 220.350235,158.730164 219.826569,160.101044 
	C216.824600,167.959961 213.387619,175.660889 209.867783,183.309387 
	C208.608582,186.045593 206.075073,187.259079 203.242874,185.641983 
	C200.433716,184.038040 201.186462,181.609894 202.330856,179.127197 
	C205.573730,172.091949 208.478424,164.892029 211.970963,157.986923 
	C212.831818,156.284943 215.424164,155.458725 217.559525,154.440887 
z"/>
<path fill="#353895" opacity="1.000000" stroke="none" 
	d="
M190.647888,29.444756 
	C183.974258,26.882780 177.690079,24.368465 171.291122,22.191608 
	C168.386353,21.203436 166.379730,19.841446 167.155487,16.581215 
	C167.998245,13.039346 170.874512,13.038389 173.511459,13.981712 
	C180.493042,16.479259 187.374435,19.255907 194.307831,21.889568 
	C197.510010,23.105917 200.461823,24.869959 198.654526,28.732296 
	C196.933365,32.410530 193.774094,31.106892 190.647888,29.444756 
z"/>
<path fill="#343795" opacity="1.000000" stroke="none" 
	d="
M101.705658,22.838791 
	C93.567070,26.560268 85.820076,30.273775 77.872955,33.493309 
	C76.458527,34.066319 73.266373,33.108521 72.610878,31.915138 
	C71.918747,30.655043 72.703712,27.127798 73.835930,26.555897 
	C81.631783,22.618097 89.635101,19.067616 97.714027,15.737894 
	C98.983238,15.214787 102.015358,16.018251 102.398743,16.957102 
	C103.046722,18.543882 102.229889,20.728830 101.705658,22.838791 
z"/>
<path fill="#353895" opacity="1.000000" stroke="none" 
	d="
M262.506104,169.089478 
	C261.459595,175.220291 260.360901,181.140350 258.696350,186.896759 
	C257.743591,190.191574 255.858658,193.214783 254.415482,196.370377 
	C253.144547,199.149414 250.920349,201.075668 248.260498,199.127487 
	C246.928482,198.151825 246.241776,194.765747 246.822433,192.975586 
	C249.209167,185.617279 252.199478,178.455032 254.957733,171.216843 
	C256.398621,167.435669 258.736053,166.412125 262.506104,169.089478 
z"/>
<path fill="#353895" opacity="1.000000" stroke="none" 
	d="
M130.252136,38.385620 
	C128.724777,39.513470 127.446030,40.651924 125.975166,41.017567 
	C119.389694,42.654655 112.736549,44.017380 106.134941,45.592720 
	C103.190193,46.295429 100.196838,46.809959 99.144630,43.163330 
	C98.202911,39.899658 100.497009,38.319508 103.383476,37.619038 
	C110.622177,35.862389 117.825714,33.913021 125.132843,32.505524 
	C129.024475,31.755919 131.086411,33.867786 130.252136,38.385620 
z"/>
<path fill="#353895" opacity="1.000000" stroke="none" 
	d="
M144.118896,31.873896 
	C151.267426,32.932533 157.980377,33.859165 164.640137,35.076820 
	C167.389282,35.579472 169.451752,37.651169 168.100708,40.395763 
	C167.372009,41.876064 164.562973,43.305656 162.836395,43.151077 
	C155.770157,42.518440 148.776367,41.117367 141.720139,40.313171 
	C138.662643,39.964710 136.305740,39.019733 136.487656,35.740601 
	C136.667969,32.490467 139.083893,31.408211 142.173096,31.782209 
	C142.665237,31.841793 143.165421,31.835186 144.118896,31.873896 
z"/>
<path fill="#353895" opacity="1.000000" stroke="none" 
	d="
M241.782333,162.510315 
	C238.951248,171.425415 236.131958,180.023193 232.789398,188.412445 
	C232.357224,189.497147 229.218658,189.503540 227.333740,190.009415 
	C226.813461,188.032806 225.403427,185.771774 225.928482,184.129333 
	C228.087357,177.376114 230.969925,170.858459 233.319717,164.160645 
	C234.994171,159.387848 237.643433,158.617752 241.782333,162.510315 
z"/>
<path fill="#353895" opacity="1.000000" stroke="none" 
	d="
M189.748795,47.677364 
	C191.901932,47.794872 194.125580,47.609253 195.512115,48.597786 
	C201.309341,52.730953 206.942245,57.110428 212.451187,61.624409 
	C214.704147,63.470470 216.535858,65.967545 213.652847,68.805191 
	C211.092941,71.324852 208.970169,69.786041 206.733322,67.940994 
	C201.488953,63.615253 196.181686,59.355865 190.740021,55.283199 
	C187.805908,53.087238 186.706085,50.935921 189.748795,47.677364 
z"/>
<path fill="#363996" opacity="1.000000" stroke="none" 
	d="
M231.310425,101.068939 
	C229.937256,99.954170 228.735641,99.039642 227.996567,97.840126 
	C224.441483,92.070175 221.067612,86.188507 217.509659,80.420372 
	C216.027786,78.017982 214.591736,75.591385 217.341019,73.391365 
	C220.290894,71.030815 222.688126,72.634926 224.349655,75.324394 
	C228.260086,81.654076 232.229675,87.961884 235.781326,94.492813 
	C237.781021,98.169968 236.284897,100.198532 231.310425,101.068939 
z"/>
<path fill="#363996" opacity="1.000000" stroke="none" 
	d="
M192.764832,166.752594 
	C190.562790,166.646912 188.223099,166.812927 186.856445,165.739761 
	C186.029312,165.090286 186.399689,162.449738 186.768890,160.825806 
	C188.154938,154.728973 189.931335,148.717896 191.214874,142.601959 
	C191.865448,139.502090 192.077423,136.346878 196.328949,136.857407 
	C200.341034,137.339157 200.425827,140.665710 199.740311,143.350098 
	C197.753342,151.130615 195.304672,158.793213 192.764832,166.752594 
z"/>
<path fill="#363996" opacity="1.000000" stroke="none" 
	d="
M170.290527,94.690277 
	C172.196594,89.297333 174.651657,88.202354 178.087097,91.799950 
	C183.194077,97.148026 187.719543,103.078239 192.204697,108.979439 
	C193.888367,111.194687 194.377609,114.240013 191.315720,115.880890 
	C188.452332,117.415390 186.667603,115.654938 184.836075,113.174561 
	C180.245346,106.957474 175.203827,101.073250 170.290527,94.690277 
z"/>
<path fill="#353895" opacity="1.000000" stroke="none" 
	d="
M137.647095,84.497765 
	C135.214310,79.802094 136.528778,76.543739 140.755524,77.259590 
	C148.856216,78.631523 156.839127,80.843369 164.719849,83.209770 
	C165.865479,83.553787 167.151077,87.084808 166.599457,88.394646 
	C166.054062,89.689743 163.065033,90.978004 161.491135,90.645348 
	C153.584244,88.974182 145.789795,86.771034 137.647095,84.497765 
z"/>
<path fill="#343795" opacity="1.000000" stroke="none" 
	d="
M243.589096,123.558426 
	C244.152634,132.604523 244.623337,141.321640 244.686890,150.041718 
	C244.707687,152.894501 242.466583,154.972549 239.669861,153.857544 
	C238.123169,153.240891 236.541916,150.629913 236.440765,148.835358 
	C236.041626,141.755203 236.282684,134.641373 236.167816,127.541954 
	C236.084274,122.379776 238.416016,120.925171 243.589096,123.558426 
z"/>
<path fill="#363996" opacity="1.000000" stroke="none" 
	d="
M174.655792,148.411469 
	C175.185135,145.902344 175.194153,143.559494 176.177460,141.744476 
	C176.868927,140.468170 178.979675,139.105011 180.284988,139.256821 
	C181.600021,139.409775 183.701614,141.358719 183.735199,142.568619 
	C183.938965,149.905731 181.625870,156.665070 177.239319,162.497482 
	C176.503708,163.475571 173.289398,163.703476 172.126343,162.924835 
	C171.019043,162.183502 170.403656,159.491821 170.797638,157.976257 
	C171.621414,154.807449 173.252350,151.848450 174.655792,148.411469 
z"/>
<path fill="#363996" opacity="1.000000" stroke="none" 
	d="
M137.602570,92.871765 
	C141.113708,92.875244 143.110199,94.521751 142.323532,97.432365 
	C141.922607,98.915810 139.600540,100.396774 137.862671,100.902817 
	C133.123047,102.282944 128.270996,103.475090 123.382202,104.046967 
	C121.437836,104.274414 119.279526,102.673050 117.218620,101.904266 
	C118.240814,100.088364 118.901337,97.114960 120.349525,96.662453 
	C125.816414,94.954285 131.539246,94.065277 137.602570,92.871765 
z"/>
<path fill="#373A96" opacity="1.000000" stroke="none" 
	d="
M149.496674,111.270294 
	C150.767807,117.018204 149.151871,118.319412 143.814346,117.573471 
	C139.977097,117.037193 135.943726,117.341171 132.068481,117.830109 
	C129.315170,118.177490 126.914726,118.402206 126.017944,115.310715 
	C125.178177,112.415817 126.622841,110.766075 129.532150,109.830162 
	C136.306229,107.650948 142.853775,107.601822 149.496674,111.270294 
z"/>
<path fill="#363996" opacity="1.000000" stroke="none" 
	d="
M168.335251,142.315491 
	C167.886398,144.514130 168.034241,146.699280 167.028763,147.976532 
	C165.917267,149.388489 163.433533,151.018387 162.127884,150.625305 
	C160.738220,150.206940 159.313293,147.592926 159.158951,145.827835 
	C158.735489,140.984543 158.706848,136.063080 159.085892,131.216660 
	C159.220947,129.489731 160.727173,126.838287 162.061386,126.521698 
	C163.447067,126.192902 166.532104,127.889618 166.863037,129.206070 
	C167.894577,133.309372 167.974487,137.651901 168.335251,142.315491 
z"/>
<path fill="#3C3E98" opacity="1.000000" stroke="none" 
	d="
M150.295349,15.561913 
	C149.887573,11.849945 151.713867,9.899849 154.795868,10.291300 
	C156.763107,10.541162 159.047058,12.002703 160.167328,13.626043 
	C160.713501,14.417493 159.344757,17.739246 158.103760,18.310711 
	C155.270920,19.615208 152.219681,19.220255 150.295349,15.561913 
z"/>
<path fill="#3D4099" opacity="1.000000" stroke="none" 
	d="
M176.264313,47.988609 
	C173.473495,45.961510 172.304779,43.265339 174.764603,41.216595 
	C176.107269,40.098293 179.406494,40.272999 181.215576,41.137054 
	C182.449356,41.726326 183.522293,44.764000 183.103317,46.272636 
	C182.164749,49.652168 179.297150,49.233387 176.264313,47.988609 
z"/>
<path fill="#3B3D98" opacity="1.000000" stroke="none" 
	d="
M66.720688,40.700001 
	C66.155334,41.331371 65.810524,41.904861 65.406952,41.949734 
	C63.191841,42.196018 60.872417,42.699303 58.797672,42.216602 
	C58.242546,42.087444 57.601910,37.993523 58.437786,37.158516 
	C59.974628,35.623276 62.717255,34.186272 64.704643,34.471111 
	C67.674576,34.896782 68.019432,37.698975 66.720688,40.700001 
z"/>
<path fill="#383B97" opacity="1.000000" stroke="none" 
	d="
M242.795685,65.495590 
	C240.638168,66.325928 237.796432,67.827362 236.819519,67.033607 
	C235.116547,65.649963 234.195816,62.917847 233.781052,60.601639 
	C233.675400,60.011620 236.987625,57.827148 238.235703,58.170437 
	C241.362396,59.030449 243.581589,61.324848 242.795685,65.495590 
z"/>
<path fill="#383B97" opacity="1.000000" stroke="none" 
	d="
M84.315933,48.933960 
	C84.508385,47.928345 84.531624,46.907925 84.935532,46.724152 
	C87.203445,45.692249 89.517082,44.535316 91.924301,44.196266 
	C92.514076,44.113201 94.489868,47.294277 94.103226,48.331615 
	C93.455009,50.070702 91.443893,52.418968 89.964531,52.448940 
	C88.105850,52.486603 86.205101,50.448059 84.315933,48.933960 
z"/>
<path fill="#3A3D97" opacity="1.000000" stroke="none" 
	d="
M129.443237,79.483406 
	C131.516541,82.241043 131.186600,84.842033 128.567001,85.962532 
	C126.662041,86.777351 123.889229,86.529877 121.914406,85.734901 
	C121.133820,85.420662 120.653275,81.751625 121.458176,80.637512 
	C123.278778,78.117508 126.117989,77.047638 129.443237,79.483406 
z"/>
<path fill="#3B3D98" opacity="1.000000" stroke="none" 
	d="
M266.143860,159.053055 
	C263.909210,159.702164 261.578857,160.659134 259.864594,160.003952 
	C258.873383,159.625153 258.058472,156.302246 258.639465,154.927994 
	C259.347198,153.253983 261.605194,152.235367 263.192627,150.933289 
	C264.424500,152.553909 265.829956,154.079269 266.798370,155.844437 
	C267.159698,156.503036 266.500488,157.721481 266.143860,159.053055 
z"/>
<path fill="#3B3D98" opacity="1.000000" stroke="none" 
	d="
M157.084991,102.125137 
	C156.227158,102.923378 155.395157,103.899170 154.912842,103.749336 
	C152.580734,103.024841 150.151108,102.273270 148.188461,100.909164 
	C147.603241,100.502411 147.984924,97.074814 148.678741,96.774216 
	C150.494705,95.987442 152.877029,95.595734 154.758179,96.091530 
	C157.390656,96.785355 158.841263,98.822739 157.084991,102.125137 
z"/>
<path fill="#3A3D97" opacity="1.000000" stroke="none" 
	d="
M190.146805,126.766884 
	C189.804688,123.499092 190.779266,120.843422 193.841354,121.316101 
	C195.638779,121.593552 197.806305,123.969955 198.422104,125.854805 
	C198.845947,127.152184 197.300858,130.153244 195.918930,130.759857 
	C193.025986,132.029755 190.849121,130.400909 190.146805,126.766884 
z"/>
<path fill="#383B97" opacity="1.000000" stroke="none" 
	d="
M240.691345,108.426086 
	C240.935471,109.087395 240.965149,109.430878 241.091736,109.733894 
	C242.189224,112.361305 242.121994,115.008965 239.188980,115.937454 
	C237.742432,116.395370 234.617218,115.469444 234.194977,114.401390 
	C233.397003,112.382919 233.148117,109.250839 234.227676,107.598640 
	C235.811371,105.174889 238.562607,105.731300 240.691345,108.426086 
z"/>
<path fill="#383B97" opacity="1.000000" stroke="none" 
	d="
M225.783936,196.551422 
	C225.938354,197.878967 226.331894,199.240555 225.843170,199.741669 
	C224.245193,201.380127 222.471985,203.021698 220.441605,203.959000 
	C219.827805,204.242340 217.073853,202.093414 217.179260,201.312103 
	C217.479218,199.088623 218.237045,196.363495 219.822189,195.083099 
	C220.810944,194.284454 223.624390,195.744812 225.783936,196.551422 
z"/>
<path fill="#353895" opacity="1.000000" stroke="none" 
	d="
M124.174774,64.113785 
	C122.544159,62.304939 121.324455,60.498016 120.104752,58.691093 
	C122.302559,57.527763 124.415024,55.825897 126.738831,55.457634 
	C127.712158,55.303387 130.041077,57.897812 130.170761,59.380978 
	C130.482849,62.950237 127.777573,64.073586 124.174774,64.113785 
z"/>
<path fill="#383B97" opacity="1.000000" stroke="none" 
	d="
M157.408936,115.450348 
	C158.158356,115.910210 158.814758,116.126007 158.920471,116.498207 
	C159.536789,118.668175 160.367188,120.882721 160.316971,123.063599 
	C160.304169,123.619194 156.689728,125.020836 155.897079,124.440323 
	C154.126602,123.143723 153.091461,120.843079 151.756760,118.951462 
	C153.525009,117.727150 155.293274,116.502838 157.408936,115.450348 
z"/>
<path fill="#333694" opacity="1.000000" stroke="none" 
	d="
M208.933533,96.898163 
	C210.083038,97.187698 211.304077,97.298676 211.494492,97.800636 
	C212.371094,100.111282 213.265320,102.509056 213.439163,104.926926 
	C213.482971,105.535980 210.260025,107.285576 209.629196,106.866997 
	C207.768372,105.632263 205.650925,103.752922 205.209396,101.774254 
	C204.916519,100.461777 207.328949,98.545601 208.933533,96.898163 
z"/>
</svg>