<svg version="1.1" id="Layer_1" xmlns="http://www.w3.org/2000/svg" xmlns:xlink="http://www.w3.org/1999/xlink" x="0px" y="0px"
	 width="100%" viewBox="0 0 900 900" enable-background="new 0 0 900 900" xml:space="preserve">
<path fill="#FFFFFF" opacity="1.000000" stroke="none" 
	d="
M419.000000,901.000000 
	C279.333344,901.000000 140.166672,901.000000 1.000000,901.000000 
	C1.000000,601.000000 1.000000,301.000000 1.000000,1.000000 
	C301.000000,1.000000 601.000000,1.000000 901.000000,1.000000 
	C901.000000,301.000000 901.000000,601.000000 901.000000,901.000000 
	C740.500000,901.000000 580.000000,901.000000 419.000000,901.000000 
M366.927673,600.930725 
	C366.927673,600.930725 366.908875,600.802124 366.371063,600.970215 
	C366.173523,601.276306 365.975983,601.582397 365.912537,601.906982 
	C365.912537,601.906982 365.890869,601.773315 365.294342,601.966919 
	C364.512451,602.640442 363.730560,603.314026 362.994965,604.010559 
	C362.994965,604.010559 363.002655,603.959412 362.428375,603.995605 
	C361.977661,604.347961 361.526917,604.700256 361.044159,604.995483 
	C361.044159,604.995483 361.034790,605.060303 360.453369,605.021362 
	C359.985413,605.362549 359.517487,605.703796 359.009857,605.997559 
	C359.009857,605.997559 359.040466,606.046936 358.339325,606.043274 
	C356.882782,606.689209 355.426239,607.335144 353.988495,608.004089 
	C353.988495,608.004089 353.988617,607.976685 353.130646,607.901794 
	C348.087769,608.429810 343.044891,608.957825 338.109009,609.474609 
	C338.109009,627.026489 338.109009,644.384155 338.109009,662.023376 
	C348.858398,662.506592 359.128479,661.768433 369.001221,658.000000 
	C369.001221,658.000000 369.033936,658.038818 369.759888,658.101562 
	C371.507294,657.401428 373.254700,656.701294 375.000000,656.000000 
	C375.000000,656.000000 375.001129,656.001587 375.621918,656.056641 
	C376.126251,655.736572 376.630615,655.416565 377.056000,655.057922 
	C377.056000,655.057922 377.040253,655.144409 377.694305,655.146484 
	C378.445221,654.748657 379.196167,654.350891 379.985901,654.002747 
	C379.985901,654.002747 379.958160,653.950562 380.617523,653.957581 
	C381.733673,653.291504 382.849792,652.625366 384.000000,652.000000 
	C384.000000,652.000000 383.966339,651.958862 384.518188,652.004272 
	C384.930603,651.645081 385.342987,651.285889 386.304688,650.929260 
	C386.551117,650.681091 386.797516,650.432922 387.697906,650.042603 
	C388.004181,649.734192 388.310455,649.425842 388.799103,649.167358 
	C388.799103,649.167358 388.918823,649.021057 389.562164,648.981873 
	C390.383301,648.320312 391.204468,647.658752 391.999847,646.989075 
	C391.999847,646.989075 391.988434,647.013428 392.575653,646.965027 
	C392.809448,646.663574 393.043274,646.362122 393.908142,645.871765 
	C396.924530,643.283020 400.126617,640.879639 402.927124,638.075317 
	C420.911072,620.066833 429.401550,597.689636 432.949921,572.053162 
	C432.979370,555.933350 433.043274,539.813538 433.031219,523.693726 
	C433.005615,489.461212 432.940491,455.228729 433.077637,420.632050 
	C433.077637,420.632050 433.085999,420.223145 434.006439,420.122620 
	C442.621826,420.122620 451.237213,420.122620 460.091309,420.122620 
	C460.091309,402.223907 460.091309,384.840637 460.091309,366.799774 
	C450.957458,366.799774 442.011627,366.799774 433.044952,366.947693 
	C433.044952,366.947693 433.194305,366.947174 433.079071,366.020386 
	C433.065216,362.029388 432.944183,358.035400 433.056732,354.047974 
	C433.462311,339.676270 431.378204,325.121704 436.041962,311.051544 
	C436.041962,311.051544 436.096497,311.128143 436.587372,310.755035 
	C436.740723,310.169525 436.894104,309.583984 436.991516,309.010223 
	C436.991516,309.010223 437.020905,309.059296 437.502960,308.689453 
	C437.722015,308.133575 437.941071,307.577698 438.670410,306.752808 
	C439.133942,305.920593 439.597473,305.088379 440.597107,304.028015 
	C440.756805,303.688232 440.916504,303.348419 441.006836,303.012573 
	C441.006836,303.012573 441.030365,303.077972 441.540039,302.840881 
	C441.873199,302.394653 442.206360,301.948395 442.076599,301.180511 
	C442.222626,301.298737 442.368683,301.416962 443.011932,301.277496 
	C443.370575,300.864105 443.729248,300.450714 444.018036,300.015381 
	C444.018036,300.015381 444.017517,300.088593 444.572815,299.985901 
	C444.775574,299.683136 444.978302,299.380371 445.054169,299.059235 
	C445.054169,299.059235 445.061066,299.187195 445.618835,299.052216 
	C446.051605,298.683777 446.484375,298.315338 446.957764,298.004333 
	C446.957764,298.004333 446.962463,297.934204 447.696686,297.841919 
	C455.685242,292.921844 464.644714,292.892578 473.819214,293.067780 
	C473.819214,275.511688 473.819214,258.317993 473.819214,240.914932 
	C463.376923,239.421509 453.190796,239.267197 442.313599,241.832382 
	C439.397034,242.525742 436.412384,243.012360 433.575317,243.946991 
	C418.527618,248.904144 405.832916,257.172607 396.254150,270.823761 
	C395.821381,271.549591 395.388611,272.275421 395.009613,272.993134 
	C395.009613,272.993134 394.984283,272.945068 394.456207,273.304230 
	C393.966553,274.225067 393.476929,275.145905 392.804565,276.200989 
	C392.804565,276.200989 392.857239,276.421509 392.300537,276.766541 
	C392.150482,277.168121 392.000458,277.569702 391.362579,278.245850 
	C391.269623,278.596954 391.176666,278.948059 390.659607,279.639557 
	C390.458282,280.105042 390.256927,280.570496 389.994476,281.029175 
	C389.994476,281.029175 390.050720,281.057709 389.623535,281.551422 
	C389.102722,282.717010 388.581909,283.882599 387.993347,285.031494 
	C387.993347,285.031494 388.056366,285.066864 387.652130,285.581299 
	C387.407166,286.384399 387.162170,287.187469 386.988098,287.975250 
	C386.988098,287.975250 386.952332,287.912140 386.464813,288.286682 
	C386.311584,288.859528 386.158325,289.432404 386.000000,290.000000 
	C386.000000,290.000000 386.005676,290.002808 385.575928,290.510956 
	C385.363739,291.340088 385.151520,292.169189 384.736542,293.169617 
	C384.736542,293.169617 384.811859,293.424164 384.223053,293.929810 
	C383.450439,296.923492 382.677826,299.917206 382.001251,302.961517 
	C382.001251,302.961517 381.902130,302.926086 381.425964,303.498932 
	C380.904541,305.912964 380.030487,308.310791 379.918457,310.743683 
	C379.142212,327.598022 378.539642,344.460358 377.834930,361.318146 
	C377.754608,363.240417 377.386627,365.150665 377.083435,367.007263 
	C377.083435,367.007263 377.027985,367.078888 376.094147,366.953827 
	C368.166962,366.953827 360.239777,366.953827 352.262634,366.953827 
	C352.262634,384.935059 352.262634,402.417419 352.262634,419.941040 
	C360.777740,419.941040 368.907593,419.941040 377.341522,420.154175 
	C377.341522,420.154175 377.712402,420.135773 377.797180,421.048767 
	C377.811981,451.166168 377.820679,481.283569 377.843689,511.400970 
	C377.859589,532.195190 377.895264,552.989441 377.559326,574.502747 
	C376.379913,583.686951 373.990967,592.409790 367.395142,599.952759 
	C367.196198,600.274536 366.997253,600.596313 366.927673,600.930725 
M341.100403,366.944275 
	C322.955078,367.247650 304.715118,366.489899 286.686127,368.097565 
	C258.058441,370.650421 234.013123,383.278961 216.597244,406.482330 
	C193.769241,436.896332 189.293579,471.235992 198.071045,507.452362 
	C208.897629,552.123535 246.638702,583.019409 292.437042,585.100220 
	C309.066711,585.855713 325.746979,585.503235 342.404449,585.620850 
	C343.172577,585.626282 343.943237,585.282959 344.888367,585.060730 
	C344.888367,576.050720 344.888397,567.227600 344.888397,558.404480 
	C344.888397,549.473022 344.888367,540.541565 344.888367,531.205872 
	C342.438293,531.205872 340.637177,531.214355 338.836182,531.204529 
	C326.507416,531.137024 314.166931,531.384888 301.852203,530.932739 
	C271.217163,529.807556 248.981430,506.332489 249.197662,475.724304 
	C249.414108,445.085754 271.827667,421.962494 302.500244,421.065063 
	C314.820679,420.704559 327.159058,420.956543 339.489258,420.930939 
	C341.229218,420.927307 342.969177,420.930450 344.887054,420.930450 
	C344.887054,402.920929 344.894714,385.763428 344.848114,368.606079 
	C344.846802,368.119324 344.267914,367.634094 343.327057,366.980774 
	C342.894989,367.019287 342.462952,367.057800 341.100403,366.944275 
M107.623589,661.491516 
	C108.770027,661.407776 109.916466,661.323975 111.690392,661.152588 
	C111.797333,660.768066 111.904282,660.383484 112.189194,659.075928 
	C112.189194,634.792358 112.189194,610.508850 112.189194,585.548218 
	C130.277252,585.548218 147.823257,585.548218 165.895386,585.548218 
	C165.895386,529.150818 165.895386,473.431519 165.895386,417.209167 
	C179.006393,417.209167 191.583374,417.209167 204.211090,417.209167 
	C204.211090,400.497925 204.211090,384.297638 204.211090,367.651428 
	C191.217148,367.651428 178.624496,367.651428 165.845566,367.651428 
	C165.770828,357.034149 166.968872,347.173950 173.672882,338.994354 
	C182.210342,328.577728 194.331299,328.280548 206.524384,328.402191 
	C206.524384,310.800385 206.524384,293.542999 206.524384,276.127228 
	C188.571930,273.938873 171.412567,275.571167 155.282135,283.678192 
	C130.813004,295.976166 118.882278,317.488464 112.541451,343.041687 
	C112.217400,341.217896 112.220047,339.591644 112.217026,337.965393 
	C112.157021,305.645844 112.096344,273.326324 111.842865,240.196503 
	C109.882111,240.467178 107.921356,240.737854 105.793297,241.932343 
	C105.781738,380.291962 105.769722,518.651611 105.767426,657.011230 
	C105.767403,658.004211 105.900604,658.997192 105.968063,660.678772 
	C106.342354,660.860291 106.716644,661.041809 107.623589,661.491516 
M460.943726,448.645538 
	C460.977417,449.100037 461.011108,449.554535 460.929626,450.499420 
	C460.963257,450.663910 460.996887,450.828400 460.831848,451.913483 
	C460.746735,493.274994 460.656525,534.636475 460.588257,575.997986 
	C460.583893,578.647156 460.748932,581.296570 460.806335,584.661438 
	C461.171661,584.919128 461.537018,585.176758 462.497498,585.692749 
	C463.343201,585.604797 464.188934,585.516785 465.941406,585.655579 
	C480.948212,585.579895 495.955048,585.504211 511.558594,585.686035 
	C512.405701,585.603271 513.252808,585.520508 514.792114,585.308044 
	C514.960449,584.895935 515.128784,584.483765 515.606934,583.309265 
	C515.633423,542.014038 515.604980,500.718658 515.707153,459.423584 
	C515.767883,434.889954 528.563904,419.515717 552.629211,416.678375 
	C573.293396,414.242035 591.432922,422.533020 596.557922,446.147980 
	C597.191528,449.067291 597.532776,452.050018 597.875000,455.932007 
	C597.868774,497.618744 597.859741,539.305481 597.869141,580.992188 
	C597.869446,582.307739 598.059387,583.623291 598.629211,585.612305 
	C616.575745,585.612305 634.522278,585.612305 653.007874,585.612305 
	C653.007874,583.509277 653.007874,581.730774 653.007874,579.952209 
	C653.007568,539.638367 652.955933,499.324463 653.026245,459.010773 
	C653.068298,434.875336 666.457520,419.209045 690.407532,416.610138 
	C710.143921,414.468475 727.824646,422.291412 733.396729,443.611389 
	C734.806946,449.006836 735.253357,454.785614 735.274414,460.391541 
	C735.424011,500.205017 735.347961,540.019348 735.343689,579.833435 
	C735.343506,581.729858 735.343628,583.626343 735.343628,586.062744 
	C754.016052,586.062744 771.739136,586.062744 789.746094,586.062744 
	C789.746094,588.417236 789.740967,590.230347 789.746826,592.043518 
	C789.820190,614.693054 789.895142,637.342651 789.946960,660.562134 
	C790.286987,660.663757 790.627014,660.765442 791.772461,661.003601 
	C792.857971,660.959534 793.943542,660.915466 795.587158,660.917175 
	C795.723389,660.611755 795.859619,660.306335 796.172180,659.077515 
	C796.182434,520.549255 796.192993,382.021057 796.195984,243.492813 
	C796.195984,242.664032 796.091125,241.835251 795.836487,240.202682 
	C793.871887,240.471909 791.907288,240.741119 789.781921,241.934952 
	C789.781921,307.246002 789.781921,372.557037 789.781921,437.868103 
	C781.559265,400.295258 760.862976,374.122223 722.514832,364.949005 
	C685.610657,356.121216 652.645081,363.495789 626.088623,392.177826 
	C599.401489,360.786804 557.930603,355.044952 522.555481,367.264404 
	C485.101837,380.201752 465.846802,408.291931 461.027527,447.498016 
	C461.027527,447.498016 461.109192,447.977295 460.943726,448.645538 
z"/>
<path fill="#5C6670" opacity="1.000000" stroke="none" 
	d="
M460.835144,583.945862 
	C460.748932,581.296570 460.583893,578.647156 460.588257,575.997986 
	C460.656525,534.636475 460.746735,493.274994 461.097778,451.367767 
	C461.428375,450.716583 461.571564,450.551025 461.544464,450.515625 
	C461.401550,450.328674 461.215729,450.174561 461.044800,450.009033 
	C461.011108,449.554535 460.977417,449.100037 461.180267,448.231842 
	C461.476990,447.720734 461.611328,447.576630 461.584503,447.533966 
	C461.468658,447.349854 461.305603,447.195435 461.159760,447.030182 
	C465.846802,408.291931 485.101837,380.201752 522.555481,367.264404 
	C557.930603,355.044952 599.401489,360.786804 626.088623,392.177826 
	C652.645081,363.495789 685.610657,356.121216 722.514832,364.949005 
	C760.862976,374.122223 781.559265,400.295258 789.781921,437.868103 
	C789.781921,372.557037 789.781921,307.246002 790.297485,241.480103 
	C792.553833,241.018982 794.294556,241.012726 796.035278,241.006470 
	C796.091125,241.835251 796.195984,242.664032 796.195984,243.492813 
	C796.192993,382.021057 796.182434,520.549255 795.873047,659.622559 
	C795.300781,660.331360 795.119141,660.565979 795.029053,660.871399 
	C793.943542,660.915466 792.857971,660.959534 791.261719,660.731628 
	C790.540710,660.220032 790.280273,660.064209 789.969666,659.992188 
	C789.895142,637.342651 789.820190,614.693054 789.746826,592.043518 
	C789.740967,590.230347 789.746094,588.417236 789.746094,586.062744 
	C771.739136,586.062744 754.016052,586.062744 735.343628,586.062744 
	C735.343628,583.626343 735.343506,581.729858 735.343689,579.833435 
	C735.347961,540.019348 735.424011,500.205017 735.274414,460.391541 
	C735.253357,454.785614 734.806946,449.006836 733.396729,443.611389 
	C727.824646,422.291412 710.143921,414.468475 690.407532,416.610138 
	C666.457520,419.209045 653.068298,434.875336 653.026245,459.010773 
	C652.955933,499.324463 653.007568,539.638367 653.007874,579.952209 
	C653.007874,581.730774 653.007874,583.509277 653.007874,585.612305 
	C634.522278,585.612305 616.575745,585.612305 598.665527,584.967407 
	C598.802246,583.504883 598.990112,582.687195 598.990356,581.869507 
	C599.004517,540.971863 599.012390,500.074158 598.960632,459.176544 
	C598.958862,457.785065 598.340515,456.394409 598.009521,455.003357 
	C597.532776,452.050018 597.191528,449.067291 596.557922,446.147980 
	C591.432922,422.533020 573.293396,414.242035 552.629211,416.678375 
	C528.563904,419.515717 515.767883,434.889954 515.707153,459.423584 
	C515.604980,500.718658 515.633423,542.014038 515.151611,583.813721 
	C514.497437,584.691406 514.298645,585.064575 514.099854,585.437744 
	C513.252808,585.520508 512.405701,585.603271 511.106903,585.218872 
	C510.074097,584.506470 509.493713,584.048828 508.911804,584.046936 
	C495.217407,584.002319 481.522675,583.979004 467.828705,584.063660 
	C466.894592,584.069458 465.965881,584.953308 465.034637,585.428833 
	C464.188934,585.516785 463.343201,585.604797 462.126160,585.249695 
	C461.448242,584.519714 461.141693,584.232788 460.835144,583.945862 
z"/>
<path fill="#E20713" opacity="1.000000" stroke="none" 
	d="
M440.061035,304.256165 
	C439.597473,305.088379 439.133942,305.920593 438.125793,307.023193 
	C437.394379,307.882172 437.207642,308.470734 437.020905,309.059296 
	C437.020905,309.059296 436.991516,309.010223 436.751831,309.172180 
	C436.373596,309.932129 436.235046,310.530121 436.096497,311.128143 
	C436.096497,311.128143 436.041962,311.051544 435.732361,311.191772 
	C434.284363,316.230591 432.362274,321.097656 432.163269,326.034149 
	C431.681854,337.977844 431.957581,349.954285 432.055237,361.916534 
	C432.068939,363.596375 432.796967,365.270447 433.194305,366.947174 
	C433.194305,366.947174 433.044952,366.947693 433.299774,367.218201 
	C440.665527,367.654541 447.776428,367.930206 454.887421,367.932465 
	C457.751160,367.933380 459.079346,368.620667 459.049622,371.817719 
	C458.916718,386.103210 458.940430,400.390930 459.026886,414.677124 
	C459.046753,417.957825 457.631927,419.069489 454.505493,418.998322 
	C448.860199,418.869781 443.207642,418.876587 437.563080,419.020905 
	C436.061493,419.059265 434.577881,419.803192 433.085999,420.223145 
	C433.085999,420.223145 433.077637,420.632050 432.709076,421.126282 
	C432.227875,422.604553 432.017059,423.588562 432.016785,424.572632 
	C432.002045,472.737457 432.000671,520.902283 432.032623,569.067139 
	C432.033478,570.354675 432.416901,571.642029 432.621887,572.929443 
	C429.401550,597.689636 420.911072,620.066833 402.927124,638.075317 
	C400.126617,640.879639 396.924530,643.283020 393.316345,646.030640 
	C392.479156,646.464111 392.233795,646.738770 391.988434,647.013428 
	C391.988434,647.013428 391.999847,646.989075 391.653931,646.992493 
	C390.511627,647.670959 389.715210,648.346008 388.918823,649.021057 
	C388.918823,649.021057 388.799103,649.167358 388.366241,649.188049 
	C387.636902,649.534058 387.340424,649.859375 387.043945,650.184692 
	C386.797516,650.432922 386.551117,650.681091 385.754883,650.960327 
	C384.792145,651.313904 384.379242,651.636353 383.966339,651.958862 
	C383.966339,651.958862 384.000000,652.000000 383.610840,651.983154 
	C382.133850,652.627686 381.045990,653.289124 379.958130,653.950562 
	C379.958160,653.950562 379.985901,654.002747 379.623779,653.984863 
	C378.521210,654.359436 377.780731,654.751892 377.040253,655.144409 
	C377.040253,655.144409 377.056000,655.057922 376.778687,655.050903 
	C376.001312,655.363159 375.501221,655.682373 375.001129,656.001587 
	C375.001129,656.001587 375.000000,656.000000 374.610779,655.996094 
	C372.492371,656.674377 370.763153,657.356567 369.033936,658.038818 
	C369.033936,658.038818 369.001221,658.000000 368.588409,658.004517 
	C366.371796,658.205200 364.563446,658.366760 362.765045,658.603821 
	C356.883972,659.379150 351.015900,660.262939 345.124512,660.947266 
	C340.837860,661.445190 338.827057,659.849365 338.927155,655.044617 
	C339.204376,641.738525 339.194244,628.419373 338.920959,615.113037 
	C338.832367,610.800598 340.336945,609.824097 344.342285,609.849670 
	C347.553619,609.870056 350.772888,608.647522 353.988617,607.976685 
	C353.988617,607.976685 353.988495,608.004089 354.374512,608.002563 
	C356.187195,607.349670 357.613831,606.698303 359.040466,606.046936 
	C359.040466,606.046936 359.009857,605.997559 359.324890,606.000244 
	C360.104858,605.688721 360.569824,605.374512 361.034790,605.060303 
	C361.034790,605.060303 361.044159,604.995483 361.359253,604.997925 
	C362.117126,604.653442 362.559906,604.306458 363.002655,603.959412 
	C363.002655,603.959412 362.994965,604.010559 363.312012,603.982300 
	C364.382996,603.227112 365.136932,602.500244 365.890869,601.773315 
	C365.890869,601.773315 365.912537,601.906982 366.122742,601.826294 
	C366.524902,601.431152 366.716888,601.116638 366.908875,600.802124 
	C366.908875,600.802124 366.927673,600.930725 367.143738,600.830078 
	C367.551666,600.397583 367.743530,600.065857 367.935394,599.734070 
	C373.990967,592.409790 376.379913,583.686951 377.993713,574.321777 
	C378.622681,573.568542 378.987274,572.996460 378.987640,572.424072 
	C379.018707,522.975708 379.031830,473.527313 378.971558,424.079010 
	C378.969971,422.764099 378.150482,421.450165 377.712402,420.135773 
	C377.712402,420.135773 377.341522,420.154175 376.889618,419.749420 
	C370.626770,419.217712 364.803864,418.808746 359.008728,419.054352 
	C354.488831,419.245911 352.830292,417.890503 352.933472,413.152039 
	C353.219910,399.997986 353.242828,386.828461 352.920502,373.676086 
	C352.805542,368.985138 354.266174,367.733154 358.804504,367.868073 
	C364.865845,368.048248 370.952301,367.381744 377.027985,367.078857 
	C377.027985,367.078888 377.083435,367.007263 377.503845,366.921173 
	C378.291626,365.316406 378.939728,363.805603 378.982513,362.277832 
	C379.371765,348.380157 379.507538,334.473846 380.039734,320.582458 
	C380.265808,314.681885 381.258087,308.810638 381.902130,302.926086 
	C381.902130,302.926086 382.001251,302.961517 382.273743,302.762878 
	C383.301453,299.517517 384.056671,296.470856 384.811890,293.424164 
	C384.811859,293.424164 384.736542,293.169617 385.115448,292.892059 
	C385.664795,291.743927 385.835236,290.873383 386.005676,290.002808 
	C386.005676,290.002808 386.000000,290.000000 386.268036,289.839844 
	C386.674835,289.090546 386.813599,288.501343 386.952332,287.912140 
	C386.952332,287.912140 386.988098,287.975250 387.237061,287.806519 
	C387.676117,286.780823 387.866241,285.923828 388.056396,285.066864 
	C388.056366,285.066864 387.993347,285.031494 388.379181,284.972260 
	C389.193573,283.627899 389.622131,282.342804 390.050720,281.057709 
	C390.050720,281.057709 389.994476,281.029175 390.261230,280.902893 
	C390.713196,280.284088 390.898438,279.791626 391.083740,279.299164 
	C391.176666,278.948059 391.269623,278.596954 391.897400,277.948395 
	C392.573883,277.241119 392.715546,276.831329 392.857239,276.421509 
	C392.857239,276.421509 392.804565,276.200989 393.193512,275.983276 
	C394.049713,274.825409 394.516998,273.885223 394.984283,272.945068 
	C394.984283,272.945068 395.009613,272.993134 395.293213,272.866211 
	C395.992828,271.996735 396.408783,271.254211 396.824768,270.511688 
	C405.832916,257.172607 418.527618,248.904144 433.575317,243.946991 
	C436.412384,243.012360 439.397034,242.525742 442.912048,242.165283 
	C451.862518,242.322159 460.220032,242.272690 468.564026,241.910782 
	C472.137299,241.755798 473.076843,243.111694 473.025848,246.514435 
	C472.851593,258.144440 472.956604,269.778625 472.955902,281.411194 
	C472.955292,291.904816 472.941986,291.623383 462.669342,292.128052 
	C457.000732,292.406494 451.024323,292.852081 446.962463,297.934204 
	C446.962463,297.934204 446.957764,298.004333 446.634216,298.014221 
	C445.894135,298.411774 445.477600,298.799469 445.061066,299.187195 
	C445.061066,299.187195 445.054169,299.059235 444.848358,299.135925 
	C444.434204,299.504608 444.225861,299.796600 444.017517,300.088593 
	C444.017517,300.088593 444.018036,300.015381 443.716705,300.046204 
	C443.115143,300.563080 442.814941,301.049133 442.514709,301.535156 
	C442.368683,301.416962 442.222626,301.298737 441.973602,301.297791 
	C441.590546,301.969391 441.310455,302.523682 441.030396,303.077972 
	C441.030365,303.077972 441.006836,303.012573 440.783936,303.134552 
	C440.394409,303.589752 440.227722,303.922974 440.061035,304.256165 
z"/>
<path fill="#5B6871" opacity="1.000000" stroke="none" 
	d="
M112.035812,241.006790 
	C112.096344,273.326324 112.157021,305.645844 112.217026,337.965393 
	C112.220047,339.591644 112.217400,341.217896 112.541451,343.041687 
	C118.882278,317.488464 130.813004,295.976166 155.282135,283.678192 
	C171.412567,275.571167 188.571930,273.938873 206.524384,276.127228 
	C206.524384,293.542999 206.524384,310.800385 206.524384,328.402191 
	C194.331299,328.280548 182.210342,328.577728 173.672882,338.994354 
	C166.968872,347.173950 165.770828,357.034149 165.845566,367.651428 
	C178.624496,367.651428 191.217148,367.651428 204.211090,367.651428 
	C204.211090,384.297638 204.211090,400.497925 204.211090,417.209167 
	C191.583374,417.209167 179.006393,417.209167 165.895386,417.209167 
	C165.895386,473.431519 165.895386,529.150818 165.895386,585.548218 
	C147.823257,585.548218 130.277252,585.548218 112.189194,585.548218 
	C112.189194,610.508850 112.189194,634.792358 111.860619,659.671082 
	C111.375664,660.590881 111.219284,660.915588 111.062912,661.240234 
	C109.916466,661.323975 108.770027,661.407776 107.238815,661.093628 
	C106.559883,660.460510 106.265739,660.225342 105.971588,659.990173 
	C105.900604,658.997192 105.767403,658.004211 105.767426,657.011230 
	C105.769722,518.651611 105.781738,380.291962 106.310822,241.476624 
	C108.564163,241.016205 110.299988,241.011505 112.035812,241.006790 
z"/>
<path fill="#5B6770" opacity="1.000000" stroke="none" 
	d="
M343.958344,367.148163 
	C344.267914,367.634094 344.846802,368.119324 344.848114,368.606079 
	C344.894714,385.763428 344.887054,402.920929 344.887054,420.930450 
	C342.969177,420.930450 341.229218,420.927307 339.489258,420.930939 
	C327.159058,420.956543 314.820679,420.704559 302.500244,421.065063 
	C271.827667,421.962494 249.414108,445.085754 249.197662,475.724304 
	C248.981430,506.332489 271.217163,529.807556 301.852203,530.932739 
	C314.166931,531.384888 326.507416,531.137024 338.836182,531.204529 
	C340.637177,531.214355 342.438293,531.205872 344.888367,531.205872 
	C344.888367,540.541565 344.888397,549.473022 344.888397,558.404480 
	C344.888397,567.227600 344.888367,576.050720 344.888367,585.060730 
	C343.943237,585.282959 343.172577,585.626282 342.404449,585.620850 
	C325.746979,585.503235 309.066711,585.855713 292.437042,585.100220 
	C246.638702,583.019409 208.897629,552.123535 198.071045,507.452362 
	C189.293579,471.235992 193.769241,436.896332 216.597244,406.482330 
	C234.013123,383.278961 258.058441,370.650421 286.686127,368.097565 
	C304.715118,366.489899 322.955078,367.247650 341.697968,367.238098 
	C342.849792,367.403992 343.404083,367.276062 343.958344,367.148163 
z"/>
<path fill="#B2161B" opacity="1.000000" stroke="none" 
	d="
M377.754791,420.592285 
	C378.150482,421.450165 378.969971,422.764099 378.971558,424.079010 
	C379.031830,473.527313 379.018707,522.975708 378.987640,572.424072 
	C378.987274,572.996460 378.622681,573.568542 378.175110,573.962219 
	C377.895264,552.989441 377.859589,532.195190 377.843689,511.400970 
	C377.820679,481.283569 377.811981,451.166168 377.754791,420.592285 
z"/>
<path fill="#B81217" opacity="1.000000" stroke="none" 
	d="
M432.785919,572.491333 
	C432.416901,571.642029 432.033478,570.354675 432.032623,569.067139 
	C432.000671,520.902283 432.002045,472.737457 432.016785,424.572632 
	C432.017059,423.588562 432.227875,422.604553 432.616028,421.308350 
	C432.940491,455.228729 433.005615,489.461212 433.031219,523.693726 
	C433.043274,539.813538 432.979370,555.933350 432.785919,572.491333 
z"/>
<path fill="#B2161B" opacity="1.000000" stroke="none" 
	d="
M447.329590,297.888062 
	C451.024323,292.852081 457.000732,292.406494 462.669342,292.128052 
	C472.941986,291.623383 472.955292,291.904816 472.955902,281.411194 
	C472.956604,269.778625 472.851593,258.144440 473.025848,246.514435 
	C473.076843,243.111694 472.137299,241.755798 468.564026,241.910782 
	C460.220032,242.272690 451.862518,242.322159 443.294830,242.214691 
	C453.190796,239.267197 463.376923,239.421509 473.819214,240.914932 
	C473.819214,258.317993 473.819214,275.511688 473.819214,293.067780 
	C464.644714,292.892578 455.685242,292.921844 447.329590,297.888062 
z"/>
<path fill="#4C565E" opacity="1.000000" stroke="none" 
	d="
M597.942261,455.467682 
	C598.340515,456.394409 598.958862,457.785065 598.960632,459.176544 
	C599.012390,500.074158 599.004517,540.971863 598.990356,581.869507 
	C598.990112,582.687195 598.802246,583.504883 598.431396,584.630737 
	C598.059387,583.623291 597.869446,582.307739 597.869141,580.992188 
	C597.859741,539.305481 597.868774,497.618744 597.942261,455.467682 
z"/>
<path fill="#B2161B" opacity="1.000000" stroke="none" 
	d="
M353.559631,607.939209 
	C350.772888,608.647522 347.553619,609.870056 344.342285,609.849670 
	C340.336945,609.824097 338.832367,610.800598 338.920959,615.113037 
	C339.194244,628.419373 339.204376,641.738525 338.927155,655.044617 
	C338.827057,659.849365 340.837860,661.445190 345.124512,660.947266 
	C351.015900,660.262939 356.883972,659.379150 362.765045,658.603821 
	C364.563446,658.366760 366.371796,658.205200 368.606445,658.024048 
	C359.128479,661.768433 348.858398,662.506592 338.109009,662.023376 
	C338.109009,644.384155 338.109009,627.026489 338.109009,609.474609 
	C343.044891,608.957825 348.087769,608.429810 353.559631,607.939209 
z"/>
<path fill="#B2161B" opacity="1.000000" stroke="none" 
	d="
M433.546204,420.172913 
	C434.577881,419.803192 436.061493,419.059265 437.563080,419.020905 
	C443.207642,418.876587 448.860199,418.869781 454.505493,418.998322 
	C457.631927,419.069489 459.046753,417.957825 459.026886,414.677124 
	C458.940430,400.390930 458.916718,386.103210 459.049622,371.817719 
	C459.079346,368.620667 457.751160,367.933380 454.887421,367.932465 
	C447.776428,367.930206 440.665527,367.654541 433.310181,367.144226 
	C442.011627,366.799774 450.957458,366.799774 460.091309,366.799774 
	C460.091309,384.840637 460.091309,402.223907 460.091309,420.122620 
	C451.237213,420.122620 442.621826,420.122620 433.546204,420.172913 
z"/>
<path fill="#B2161B" opacity="1.000000" stroke="none" 
	d="
M376.561066,367.016357 
	C370.952301,367.381744 364.865845,368.048248 358.804504,367.868073 
	C354.266174,367.733154 352.805542,368.985138 352.920502,373.676086 
	C353.242828,386.828461 353.219910,399.997986 352.933472,413.152039 
	C352.830292,417.890503 354.488831,419.245911 359.008728,419.054352 
	C364.803864,418.808746 370.626770,419.217712 376.737610,419.642853 
	C368.907593,419.941040 360.777740,419.941040 352.262634,419.941040 
	C352.262634,402.417419 352.262634,384.935059 352.262634,366.953827 
	C360.239777,366.953827 368.166962,366.953827 376.561066,367.016357 
z"/>
<path fill="#535D65" opacity="1.000000" stroke="none" 
	d="
M465.488037,585.542236 
	C465.965881,584.953308 466.894592,584.069458 467.828705,584.063660 
	C481.522675,583.979004 495.217407,584.002319 508.911804,584.046936 
	C509.493713,584.048828 510.074097,584.506470 510.808533,585.090149 
	C495.955048,585.504211 480.948212,585.579895 465.488037,585.542236 
z"/>
<path fill="#B2161B" opacity="1.000000" stroke="none" 
	d="
M381.664062,303.212524 
	C381.258087,308.810638 380.265808,314.681885 380.039734,320.582458 
	C379.507538,334.473846 379.371765,348.380157 378.982513,362.277832 
	C378.939728,363.805603 378.291626,365.316406 377.538147,366.950775 
	C377.386627,365.150665 377.754608,363.240417 377.834930,361.318146 
	C378.539642,344.460358 379.142212,327.598022 379.918457,310.743683 
	C380.030487,308.310791 380.904541,305.912964 381.664062,303.212524 
z"/>
<path fill="#B81217" opacity="1.000000" stroke="none" 
	d="
M433.136688,366.483765 
	C432.796967,365.270447 432.068939,363.596375 432.055237,361.916534 
	C431.957581,349.954285 431.681854,337.977844 432.163269,326.034149 
	C432.362274,321.097656 434.284363,316.230591 435.779114,311.196716 
	C431.378204,325.121704 433.462311,339.676270 433.056732,354.047974 
	C432.944183,358.035400 433.065216,362.029388 433.136688,366.483765 
z"/>
<path fill="#B2161B" opacity="1.000000" stroke="none" 
	d="
M384.517456,293.677002 
	C384.056671,296.470856 383.301453,299.517517 382.225708,302.737549 
	C382.677826,299.917206 383.450439,296.923492 384.517456,293.677002 
z"/>
<path fill="#B2161B" opacity="1.000000" stroke="none" 
	d="
M369.396912,658.070190 
	C370.763153,657.356567 372.492371,656.674377 374.611847,655.996704 
	C373.254700,656.701294 371.507294,657.401428 369.396912,658.070190 
z"/>
<path fill="#B2161B" opacity="1.000000" stroke="none" 
	d="
M358.689880,606.045105 
	C357.613831,606.698303 356.187195,607.349670 354.365112,607.991028 
	C355.426239,607.335144 356.882782,606.689209 358.689880,606.045105 
z"/>
<path fill="#4D585D" opacity="1.000000" stroke="none" 
	d="
M111.939339,240.601654 
	C110.299988,241.011505 108.564163,241.016205 106.394470,241.014725 
	C107.921356,240.737854 109.882111,240.467178 111.939339,240.601654 
z"/>
<path fill="#B2161B" opacity="1.000000" stroke="none" 
	d="
M380.287842,653.954041 
	C381.045990,653.289124 382.133850,652.627686 383.593811,651.962769 
	C382.849792,652.625366 381.733673,653.291504 380.287842,653.954041 
z"/>
<path fill="#4C565E" opacity="1.000000" stroke="none" 
	d="
M795.935913,240.604584 
	C794.294556,241.012726 792.553833,241.018982 790.377930,241.017792 
	C791.907288,240.741119 793.871887,240.471909 795.935913,240.604584 
z"/>
<path fill="#B2161B" opacity="1.000000" stroke="none" 
	d="
M389.837097,281.304565 
	C389.622131,282.342804 389.193573,283.627899 388.413086,284.980591 
	C388.581909,283.882599 389.102722,282.717010 389.837097,281.304565 
z"/>
<path fill="#B2161B" opacity="1.000000" stroke="none" 
	d="
M389.240479,649.001465 
	C389.715210,648.346008 390.511627,647.670959 391.666809,646.996582 
	C391.204468,647.658752 390.383301,648.320312 389.240479,649.001465 
z"/>
<path fill="#B2161B" opacity="1.000000" stroke="none" 
	d="
M394.720245,273.124634 
	C394.516998,273.885223 394.049713,274.825409 393.284882,275.916138 
	C393.476929,275.145905 393.966553,274.225067 394.720245,273.124634 
z"/>
<path fill="#B2161B" opacity="1.000000" stroke="none" 
	d="
M365.592590,601.870117 
	C365.136932,602.500244 364.382996,603.227112 363.288879,603.970825 
	C363.730560,603.314026 364.512451,602.640442 365.592590,601.870117 
z"/>
<path fill="#B2161B" opacity="1.000000" stroke="none" 
	d="
M377.367279,655.145447 
	C377.780731,654.751892 378.521210,654.359436 379.604370,653.960022 
	C379.196167,654.350891 378.445221,654.748657 377.367279,655.145447 
z"/>
<path fill="#B2161B" opacity="1.000000" stroke="none" 
	d="
M385.790802,290.256897 
	C385.835236,290.873383 385.664795,291.743927 385.216858,292.806396 
	C385.151520,292.169189 385.363739,291.340088 385.790802,290.256897 
z"/>
<path fill="#B2161B" opacity="1.000000" stroke="none" 
	d="
M396.539429,270.667725 
	C396.408783,271.254211 395.992828,271.996735 395.266357,272.870270 
	C395.388611,272.275421 395.821381,271.549591 396.539429,270.667725 
z"/>
<path fill="#B2161B" opacity="1.000000" stroke="none" 
	d="
M387.854248,285.324097 
	C387.866241,285.923828 387.676117,286.780823 387.201599,287.814178 
	C387.162170,287.187469 387.407166,286.384399 387.854248,285.324097 
z"/>
<path fill="#B2161B" opacity="1.000000" stroke="none" 
	d="
M384.242249,651.981567 
	C384.379242,651.636353 384.792145,651.313904 385.480225,650.959045 
	C385.342987,651.285889 384.930603,651.645081 384.242249,651.981567 
z"/>
<path fill="#B2161B" opacity="1.000000" stroke="none" 
	d="
M360.744080,605.040833 
	C360.569824,605.374512 360.104858,605.688721 359.344727,606.023926 
	C359.517487,605.703796 359.985413,605.362549 360.744080,605.040833 
z"/>
<path fill="#B2161B" opacity="1.000000" stroke="none" 
	d="
M362.715515,603.977539 
	C362.559906,604.306458 362.117126,604.653442 361.375275,605.026489 
	C361.526917,604.700256 361.977661,604.347961 362.715515,603.977539 
z"/>
<path fill="#B2161B" opacity="1.000000" stroke="none" 
	d="
M375.311523,656.029114 
	C375.501221,655.682373 376.001312,655.363159 376.818176,655.070190 
	C376.630615,655.416565 376.126251,655.736572 375.311523,656.029114 
z"/>
<path fill="#B2161B" opacity="1.000000" stroke="none" 
	d="
M390.871643,279.469360 
	C390.898438,279.791626 390.713196,280.284088 390.291748,280.906281 
	C390.256927,280.570496 390.458282,280.105042 390.871643,279.469360 
z"/>
<path fill="#B2161B" opacity="1.000000" stroke="none" 
	d="
M386.708588,288.099426 
	C386.813599,288.501343 386.674835,289.090546 386.270569,289.842468 
	C386.158325,289.432404 386.311584,288.859528 386.708588,288.099426 
z"/>
<path fill="#B2161B" opacity="1.000000" stroke="none" 
	d="
M445.339966,299.119690 
	C445.477600,298.799469 445.894135,298.411774 446.613953,297.985504 
	C446.484375,298.315338 446.051605,298.683777 445.339966,299.119690 
z"/>
<path fill="#B2161B" opacity="1.000000" stroke="none" 
	d="
M442.763306,301.406311 
	C442.814941,301.049133 443.115143,300.563080 443.751648,300.057190 
	C443.729248,300.450714 443.370575,300.864105 442.763306,301.406311 
z"/>
<path fill="#4C565E" opacity="1.000000" stroke="none" 
	d="
M343.642700,367.064453 
	C343.404083,367.276062 342.849792,367.403992 342.163208,367.314087 
	C342.462952,367.057800 342.894989,367.019287 343.642700,367.064453 
z"/>
<path fill="#B2161B" opacity="1.000000" stroke="none" 
	d="
M441.285217,302.959412 
	C441.310455,302.523682 441.590546,301.969391 442.205048,301.458618 
	C442.206360,301.948395 441.873199,302.394653 441.285217,302.959412 
z"/>
<path fill="#B81217" opacity="1.000000" stroke="none" 
	d="
M436.341919,310.941589 
	C436.235046,310.530121 436.373596,309.932129 436.779785,309.166290 
	C436.894104,309.583984 436.740723,310.169525 436.341919,310.941589 
z"/>
<path fill="#B81217" opacity="1.000000" stroke="none" 
	d="
M437.261932,308.874390 
	C437.207642,308.470734 437.394379,307.882172 437.870605,307.157715 
	C437.941071,307.577698 437.722015,308.133575 437.261932,308.874390 
z"/>
<path fill="#4D585D" opacity="1.000000" stroke="none" 
	d="
M105.969826,660.334473 
	C106.265739,660.225342 106.559883,660.460510 106.972488,660.959534 
	C106.716644,661.041809 106.342354,660.860291 105.969826,660.334473 
z"/>
<path fill="#4D585D" opacity="1.000000" stroke="none" 
	d="
M111.376648,661.196411 
	C111.219284,660.915588 111.375664,660.590881 111.771637,660.132568 
	C111.904282,660.383484 111.797333,660.768066 111.376648,661.196411 
z"/>
<path fill="#4D585D" opacity="1.000000" stroke="none" 
	d="
M789.958313,660.277161 
	C790.280273,660.064209 790.540710,660.220032 790.859009,660.663391 
	C790.627014,660.765442 790.286987,660.663757 789.958313,660.277161 
z"/>
<path fill="#B2161B" opacity="1.000000" stroke="none" 
	d="
M440.329071,304.142090 
	C440.227722,303.922974 440.394409,303.589752 440.818665,303.132568 
	C440.916504,303.348419 440.756805,303.688232 440.329071,304.142090 
z"/>
<path fill="#4C565E" opacity="1.000000" stroke="none" 
	d="
M795.308105,660.894287 
	C795.119141,660.565979 795.300781,660.331360 795.784912,660.084290 
	C795.859619,660.306335 795.723389,660.611755 795.308105,660.894287 
z"/>
<path fill="#B2161B" opacity="1.000000" stroke="none" 
	d="
M387.370911,650.113647 
	C387.340424,649.859375 387.636902,649.534058 388.275055,649.163086 
	C388.310455,649.425842 388.004181,649.734192 387.370911,650.113647 
z"/>
<path fill="#B2161B" opacity="1.000000" stroke="none" 
	d="
M392.282043,646.989258 
	C392.233795,646.738770 392.479156,646.464111 393.000793,646.125061 
	C393.043274,646.362122 392.809448,646.663574 392.282043,646.989258 
z"/>
<path fill="#B2161B" opacity="1.000000" stroke="none" 
	d="
M392.578888,276.594025 
	C392.715546,276.831329 392.573883,277.241119 392.141296,277.811096 
	C392.000458,277.569702 392.150482,277.168121 392.578888,276.594025 
z"/>
<path fill="#B2161B" opacity="1.000000" stroke="none" 
	d="
M366.639984,600.886169 
	C366.716888,601.116638 366.524902,601.431152 366.055664,601.817017 
	C365.975983,601.582397 366.173523,601.276306 366.639984,600.886169 
z"/>
<path fill="#B2161B" opacity="1.000000" stroke="none" 
	d="
M367.665283,599.843384 
	C367.743530,600.065857 367.551666,600.397583 367.079041,600.823730 
	C366.997253,600.596313 367.196198,600.274536 367.665283,599.843384 
z"/>
<path fill="#535D65" opacity="1.000000" stroke="none" 
	d="
M514.445984,585.372925 
	C514.298645,585.064575 514.497437,584.691406 514.996704,584.194946 
	C515.128784,584.483765 514.960449,584.895935 514.445984,585.372925 
z"/>
<path fill="#535D65" opacity="1.000000" stroke="none" 
	d="
M460.820740,584.303650 
	C461.141693,584.232788 461.448242,584.519714 461.828552,585.120544 
	C461.537018,585.176758 461.171661,584.919128 460.820740,584.303650 
z"/>
<path fill="#535D65" opacity="1.000000" stroke="none" 
	d="
M460.987183,450.254211 
	C461.215729,450.174561 461.401550,450.328674 461.544464,450.515625 
	C461.571564,450.551025 461.428375,450.716583 461.197144,450.907471 
	C460.996887,450.828400 460.963257,450.663910 460.987183,450.254211 
z"/>
<path fill="#535D65" opacity="1.000000" stroke="none" 
	d="
M461.093628,447.264099 
	C461.305603,447.195435 461.468658,447.349854 461.584503,447.533966 
	C461.611328,447.576630 461.476990,447.720734 461.263000,447.897705 
	C461.109192,447.977295 461.027527,447.498016 461.093628,447.264099 
z"/>
<path fill="#B2161B" opacity="1.000000" stroke="none" 
	d="
M444.295166,300.037231 
	C444.225861,299.796600 444.434204,299.504608 444.911804,299.145081 
	C444.978302,299.380371 444.775574,299.683136 444.295166,300.037231 
z"/>
</svg>