<svg version="1.1" id="Layer_1" xmlns="http://www.w3.org/2000/svg" xmlns:xlink="http://www.w3.org/1999/xlink" x="0px" y="0px"
	 width="100%" viewBox="0 0 250 546" enable-background="new 0 0 250 546" xml:space="preserve">
<path fill="#000000" opacity="1.000000" stroke="none" 
	d="
M129.000000,1.000000 
	C169.610474,1.000000 210.220947,1.000000 251.000000,1.000000 
	C251.000000,65.687462 251.000000,130.375076 250.531357,195.535507 
	C233.229462,196.009415 216.395355,196.090591 199.564087,195.908401 
	C197.502029,195.886078 194.620667,195.067123 193.528091,193.581223 
	C179.863663,174.997757 166.288116,156.341705 153.149750,137.385452 
	C150.841675,134.055328 150.645493,129.261444 149.473984,125.143570 
	C149.916336,124.965080 150.358688,124.786583 150.801041,124.608093 
	C160.484650,129.817398 170.168274,135.026703 179.851898,140.236008 
	C180.312363,139.691803 180.772842,139.147614 181.233307,138.603409 
	C180.059357,137.364044 179.098969,135.741989 177.676422,134.948059 
	C169.111923,130.168228 160.381790,125.683167 151.857941,120.834251 
	C150.198746,119.890388 149.204041,117.778381 147.902832,116.205193 
	C148.249527,115.787582 148.596207,115.369972 148.942886,114.952362 
	C150.618607,115.459648 152.307434,115.927483 153.968033,116.480186 
	C174.965012,123.468773 195.957932,130.469604 216.951874,137.467331 
	C218.214752,137.888275 219.470139,138.602524 220.742706,138.634445 
	C221.693726,138.658325 223.338943,137.946060 223.476440,137.304657 
	C223.696213,136.279404 223.266205,134.592026 222.488602,133.994675 
	C221.227600,133.025970 219.481522,132.657120 217.908005,132.131577 
	C196.918503,125.121307 175.921707,118.132828 154.933273,111.119331 
	C153.477936,110.633011 152.074417,109.991676 150.646820,109.422424 
	C150.628738,108.920921 150.610657,108.419418 150.592590,107.917923 
	C152.802338,107.274689 155.001801,106.120811 157.223618,106.075996 
	C167.219345,105.874397 177.221741,106.026566 187.220871,105.945755 
	C188.742538,105.933449 190.259705,105.367226 191.778961,105.057205 
	C191.710922,104.435623 191.642899,103.814049 191.574875,103.192467 
	C180.346832,103.192467 169.118774,103.192467 157.890732,103.192467 
	C157.731354,102.668800 157.571976,102.145142 157.412598,101.621475 
	C160.557526,99.046539 163.348618,95.685501 166.927460,94.074532 
	C172.803757,91.429382 179.200653,89.948692 185.360992,87.925110 
	C198.294601,83.676598 211.217148,79.394386 224.040176,75.160378 
	C224.472824,70.450165 222.935425,69.455864 218.857117,70.853226 
	C202.173080,76.569687 185.361755,81.917267 168.710861,87.726181 
	C163.227478,89.639145 158.135956,89.523125 152.505188,87.339691 
	C153.509918,86.209152 154.297989,85.187263 155.220505,84.306129 
	C161.592407,78.220024 168.047501,72.219185 174.318710,66.031662 
	C175.175842,65.185974 175.161011,63.456551 175.549881,62.136284 
	C174.342285,62.621696 172.858032,62.810768 171.970627,63.639183 
	C164.554764,70.562088 157.322006,77.682556 149.845505,84.537842 
	C148.408630,85.855324 146.144699,86.270805 144.262314,87.102409 
	C144.007507,86.602242 143.752716,86.102081 143.497925,85.601913 
	C144.149979,84.473671 144.713593,83.282310 145.467194,82.226547 
	C158.966782,63.314121 172.459305,44.396435 186.052475,25.551371 
	C187.446304,23.619011 189.013123,21.673712 186.357025,20.264896 
	C185.351944,19.731796 182.439087,21.115675 181.486572,22.421413 
	C171.212585,36.505268 161.167770,50.756145 151.035110,64.943359 
	C147.022614,70.561447 142.947266,76.134644 138.900528,81.728279 
	C138.333618,81.614838 137.766708,81.501396 137.199799,81.387955 
	C137.199799,79.502113 136.754837,77.482430 137.274979,75.753029 
	C139.860550,67.156502 142.927124,58.698952 145.311157,50.050991 
	C146.018661,47.484623 149.688416,44.804867 146.075745,41.733742 
	C144.736694,44.345280 143.069687,46.843575 142.121292,49.590023 
	C139.489899,57.210289 137.157639,64.933861 134.707184,72.616608 
	C134.033051,72.686310 133.358932,72.756012 132.684799,72.825706 
	C131.452805,68.383377 129.246140,63.960442 129.157257,59.495354 
	C128.769272,40.003582 128.996277,20.499569 129.000000,1.000000 
z"/>
<path fill="#000000" opacity="1.000000" stroke="none" 
	d="
M1.000000,196.000000 
	C1.000000,131.089798 1.000000,66.179596 1.000000,1.000000 
	C41.353828,1.000000 81.708252,1.000000 122.535751,1.468641 
	C123.009941,21.435905 122.980850,40.934608 123.033485,60.433094 
	C123.046616,65.298805 120.847816,69.027870 117.603119,73.261360 
	C114.528854,63.700497 111.822701,54.979141 108.867233,46.343109 
	C108.254646,44.553097 106.716309,43.079899 105.604630,41.460690 
	C105.597580,43.364712 105.130928,45.408371 105.659927,47.149536 
	C108.558540,56.690105 111.798988,66.127106 114.670677,75.675285 
	C115.190628,77.404076 114.542358,79.484222 114.433411,81.402168 
	C113.935051,81.407059 113.436691,81.411957 112.938332,81.416847 
	C98.735107,61.808811 84.423134,42.277893 70.418526,22.529009 
	C67.546051,18.478333 65.859039,19.310295 63.406391,22.584381 
	C78.557938,43.537350 93.601768,64.341362 108.645599,85.145370 
	C108.305313,85.703629 107.965019,86.261879 107.624733,86.820129 
	C105.311073,85.923515 102.691925,85.454063 100.736916,84.055939 
	C92.507866,78.170967 84.512451,71.960075 76.325890,66.013893 
	C75.379898,65.326797 73.774811,65.547127 72.475296,65.346733 
	C73.000046,66.558952 73.191444,68.200531 74.106049,68.910606 
	C78.562820,72.370743 83.239548,75.545677 87.786072,78.892677 
	C91.388779,81.544876 94.915718,84.299988 98.523262,87.045135 
	C90.641739,90.411667 83.957703,87.927757 77.125839,85.620796 
	C61.848324,80.461975 46.479897,75.572151 31.140360,70.597870 
	C30.402317,70.358536 29.586210,70.359940 28.526159,70.209450 
	C28.102808,71.770180 27.738308,73.113945 27.302689,74.719902 
	C29.507893,75.537460 31.341938,76.276131 33.213661,76.902161 
	C49.938564,82.496078 66.752480,87.841217 83.342201,93.809883 
	C87.526260,95.315239 90.999695,98.795738 94.799690,101.368584 
	C94.520676,102.091423 94.241669,102.814255 93.962654,103.537094 
	C82.738350,103.537094 71.514046,103.537094 60.289745,103.537094 
	C60.273735,104.135986 60.257729,104.734886 60.241718,105.333778 
	C61.875786,105.551659 63.508778,105.948273 65.144096,105.958130 
	C74.976440,106.017403 84.812279,105.858177 94.639801,106.083824 
	C96.955376,106.136986 99.243462,107.386986 102.777916,108.461449 
	C100.821747,109.642029 100.455017,109.965736 100.028008,110.106339 
	C81.702919,116.140091 63.370750,122.152344 45.043770,128.180359 
	C39.828262,129.895813 34.580154,131.532013 29.459135,133.496811 
	C28.520706,133.856857 27.358032,135.951263 27.661491,136.668839 
	C28.083647,137.667068 29.726614,138.468414 30.969034,138.700287 
	C31.980667,138.889084 33.178314,138.137772 34.281918,137.768768 
	C51.639225,131.965118 68.980721,126.113678 86.358902,120.373299 
	C91.662849,118.621292 97.066513,117.171150 102.424507,115.582764 
	C102.778305,115.918472 103.132103,116.254189 103.485901,116.589897 
	C102.491028,118.169823 101.839798,120.208061 100.444641,121.254135 
	C92.342476,127.329071 84.042763,133.139755 75.864922,139.115173 
	C74.069427,140.427124 71.193932,141.608276 73.909966,144.878784 
	C83.119057,138.285599 92.131691,131.833054 101.144318,125.380516 
	C101.234665,129.470963 101.203712,133.330658 99.371391,135.911377 
	C85.915123,154.863724 72.011520,173.497986 58.487606,192.403259 
	C56.421295,195.291779 54.232464,196.074371 50.996441,196.055374 
	C34.331425,195.957611 17.665565,196.003952 1.000000,196.000000 
z"/>
<path fill="#272323" opacity="1.000000" stroke="none" 
	d="
M1.000000,196.468658 
	C17.665565,196.003952 34.331425,195.957611 50.996441,196.055374 
	C54.232464,196.074371 56.421295,195.291779 58.487606,192.403259 
	C72.011520,173.497986 85.915123,154.863724 99.371391,135.911377 
	C101.203712,133.330658 101.234665,129.470963 101.144318,125.380516 
	C92.131691,131.833054 83.119057,138.285599 73.909966,144.878784 
	C71.193932,141.608276 74.069427,140.427124 75.864922,139.115173 
	C84.042763,133.139755 92.342476,127.329071 100.444641,121.254135 
	C101.839798,120.208061 102.491028,118.169823 103.485901,116.589897 
	C103.132103,116.254189 102.778305,115.918472 102.424507,115.582764 
	C97.066513,117.171150 91.662849,118.621292 86.358902,120.373299 
	C68.980721,126.113678 51.639225,131.965118 34.281918,137.768768 
	C33.178314,138.137772 31.980667,138.889084 30.969034,138.700287 
	C29.726614,138.468414 28.083647,137.667068 27.661491,136.668839 
	C27.358032,135.951263 28.520706,133.856857 29.459135,133.496811 
	C34.580154,131.532013 39.828262,129.895813 45.043770,128.180359 
	C63.370750,122.152344 81.702919,116.140091 100.028008,110.106339 
	C100.455017,109.965736 100.821747,109.642029 102.777916,108.461449 
	C99.243462,107.386986 96.955376,106.136986 94.639801,106.083824 
	C84.812279,105.858177 74.976440,106.017403 65.144096,105.958130 
	C63.508778,105.948273 61.875786,105.551659 60.241718,105.333778 
	C60.257729,104.734886 60.273735,104.135986 60.289745,103.537094 
	C71.514046,103.537094 82.738350,103.537094 93.962654,103.537094 
	C94.241669,102.814255 94.520676,102.091423 94.799690,101.368584 
	C90.999695,98.795738 87.526260,95.315239 83.342201,93.809883 
	C66.752480,87.841217 49.938564,82.496078 33.213661,76.902161 
	C31.341938,76.276131 29.507893,75.537460 27.302689,74.719902 
	C27.738308,73.113945 28.102808,71.770180 28.526159,70.209450 
	C29.586210,70.359940 30.402317,70.358536 31.140360,70.597870 
	C46.479897,75.572151 61.848324,80.461975 77.125839,85.620796 
	C83.957703,87.927757 90.641739,90.411667 98.523262,87.045135 
	C94.915718,84.299988 91.388779,81.544876 87.786072,78.892677 
	C83.239548,75.545677 78.562820,72.370743 74.106049,68.910606 
	C73.191444,68.200531 73.000046,66.558952 72.475296,65.346733 
	C73.774811,65.547127 75.379898,65.326797 76.325890,66.013893 
	C84.512451,71.960075 92.507866,78.170967 100.736916,84.055939 
	C102.691925,85.454063 105.311073,85.923515 107.624733,86.820129 
	C107.965019,86.261879 108.305313,85.703629 108.645599,85.145370 
	C93.601768,64.341362 78.557938,43.537350 63.406391,22.584381 
	C65.859039,19.310295 67.546051,18.478333 70.418526,22.529009 
	C84.423134,42.277893 98.735107,61.808811 112.938332,81.416847 
	C113.436691,81.411957 113.935051,81.407059 114.433411,81.402168 
	C114.542358,79.484222 115.190628,77.404076 114.670677,75.675285 
	C111.798988,66.127106 108.558540,56.690105 105.659927,47.149536 
	C105.130928,45.408371 105.597580,43.364712 105.604630,41.460690 
	C106.716309,43.079899 108.254646,44.553097 108.867233,46.343109 
	C111.822701,54.979141 114.528854,63.700497 117.603119,73.261360 
	C120.847816,69.027870 123.046616,65.298805 123.033485,60.433094 
	C122.980850,40.934608 123.009941,21.435905 123.004410,1.468641 
	C124.714355,1.000000 126.428711,1.000000 128.571533,1.000000 
	C128.996277,20.499569 128.769272,40.003582 129.157257,59.495354 
	C129.246140,63.960442 131.452805,68.383377 132.684799,72.825706 
	C133.358932,72.756012 134.033051,72.686310 134.707184,72.616608 
	C137.157639,64.933861 139.489899,57.210289 142.121292,49.590023 
	C143.069687,46.843575 144.736694,44.345280 146.075745,41.733742 
	C149.688416,44.804867 146.018661,47.484623 145.311157,50.050991 
	C142.927124,58.698952 139.860550,67.156502 137.274979,75.753029 
	C136.754837,77.482430 137.199799,79.502113 137.199799,81.387955 
	C137.766708,81.501396 138.333618,81.614838 138.900528,81.728279 
	C142.947266,76.134644 147.022614,70.561447 151.035110,64.943359 
	C161.167770,50.756145 171.212585,36.505268 181.486572,22.421413 
	C182.439087,21.115675 185.351944,19.731796 186.357025,20.264896 
	C189.013123,21.673712 187.446304,23.619011 186.052475,25.551371 
	C172.459305,44.396435 158.966782,63.314121 145.467194,82.226547 
	C144.713593,83.282310 144.149979,84.473671 143.497925,85.601913 
	C143.752716,86.102081 144.007507,86.602242 144.262314,87.102409 
	C146.144699,86.270805 148.408630,85.855324 149.845505,84.537842 
	C157.322006,77.682556 164.554764,70.562088 171.970627,63.639183 
	C172.858032,62.810768 174.342285,62.621696 175.549881,62.136284 
	C175.161011,63.456551 175.175842,65.185974 174.318710,66.031662 
	C168.047501,72.219185 161.592407,78.220024 155.220505,84.306129 
	C154.297989,85.187263 153.509918,86.209152 152.505188,87.339691 
	C158.135956,89.523125 163.227478,89.639145 168.710861,87.726181 
	C185.361755,81.917267 202.173080,76.569687 218.857117,70.853226 
	C222.935425,69.455864 224.472824,70.450165 224.040176,75.160378 
	C211.217148,79.394386 198.294601,83.676598 185.360992,87.925110 
	C179.200653,89.948692 172.803757,91.429382 166.927460,94.074532 
	C163.348618,95.685501 160.557526,99.046539 157.412598,101.621475 
	C157.571976,102.145142 157.731354,102.668800 157.890732,103.192467 
	C169.118774,103.192467 180.346832,103.192467 191.574875,103.192467 
	C191.642899,103.814049 191.710922,104.435623 191.778961,105.057205 
	C190.259705,105.367226 188.742538,105.933449 187.220871,105.945755 
	C177.221741,106.026566 167.219345,105.874397 157.223618,106.075996 
	C155.001801,106.120811 152.802338,107.274689 150.592590,107.917923 
	C150.610657,108.419418 150.628738,108.920921 150.646820,109.422424 
	C152.074417,109.991676 153.477936,110.633011 154.933273,111.119331 
	C175.921707,118.132828 196.918503,125.121307 217.908005,132.131577 
	C219.481522,132.657120 221.227600,133.025970 222.488602,133.994675 
	C223.266205,134.592026 223.696213,136.279404 223.476440,137.304657 
	C223.338943,137.946060 221.693726,138.658325 220.742706,138.634445 
	C219.470139,138.602524 218.214752,137.888275 216.951874,137.467331 
	C195.957932,130.469604 174.965012,123.468773 153.968033,116.480186 
	C152.307434,115.927483 150.618607,115.459648 148.942886,114.952362 
	C148.596207,115.369972 148.249527,115.787582 147.902832,116.205193 
	C149.204041,117.778381 150.198746,119.890388 151.857941,120.834251 
	C160.381790,125.683167 169.111923,130.168228 177.676422,134.948059 
	C179.098969,135.741989 180.059357,137.364044 181.233307,138.603409 
	C180.772842,139.147614 180.312363,139.691803 179.851898,140.236008 
	C170.168274,135.026703 160.484650,129.817398 150.801041,124.608093 
	C150.358688,124.786583 149.916336,124.965080 149.473984,125.143570 
	C150.645493,129.261444 150.841675,134.055328 153.149750,137.385452 
	C166.288116,156.341705 179.863663,174.997757 193.528091,193.581223 
	C194.620667,195.067123 197.502029,195.886078 199.564087,195.908401 
	C216.395355,196.090591 233.229462,196.009415 250.531357,196.004166 
	C251.000000,305.354218 251.000000,414.708466 250.649384,524.555298 
	C244.933121,531.293823 237.879227,532.130798 230.139725,532.075073 
	C200.248108,531.859802 170.353500,531.913025 140.461746,532.118286 
	C137.809158,532.136475 134.184708,533.231812 132.738510,535.137451 
	C130.135239,538.567688 128.841049,542.991333 127.000000,547.000000 
	C126.555557,547.000000 126.111107,547.000000 125.347687,546.622437 
	C124.535606,544.843323 124.041519,543.442017 123.549545,542.039978 
	C120.913177,534.526978 116.160400,531.609009 107.710205,531.767090 
	C77.560364,532.330750 47.393566,531.991699 17.233187,531.983826 
	C11.703065,531.982361 6.724253,530.712585 3.190781,525.954651 
	C2.778885,525.399963 1.745342,525.307007 0.999998,525.000000 
	C1.000000,415.645782 1.000000,306.291534 1.000000,196.468658 
M144.228638,331.210236 
	C156.779327,338.139526 163.430206,349.077423 165.349670,362.930267 
	C192.366943,362.930267 218.949081,362.930267 245.677185,362.930267 
	C245.677185,309.008942 245.677185,255.331360 245.677185,201.703705 
	C206.356232,201.703705 167.353882,201.703705 128.305252,201.703705 
	C128.305252,243.241928 128.305252,284.329651 128.305252,324.048401 
	C133.841248,326.542480 138.696106,328.729675 144.228638,331.210236 
M6.009585,349.490845 
	C6.009585,353.915466 6.009585,358.340088 6.009585,362.719299 
	C33.456310,362.719299 60.036766,362.719299 86.672676,362.719299 
	C87.983330,353.205658 91.151741,344.975586 98.041229,338.472015 
	C105.024078,331.880310 113.765099,329.614075 122.893806,328.669342 
	C123.029282,327.277954 123.179031,326.457947 123.178925,325.637970 
	C123.173843,285.640961 123.118233,245.643860 123.204620,205.647064 
	C123.212242,202.121216 122.065422,201.101532 118.611092,201.111191 
	C82.447388,201.212326 46.283287,201.169006 10.119318,201.194443 
	C8.851604,201.195343 7.584100,201.496002 6.009601,201.695908 
	C6.009601,250.863968 6.009601,299.679260 6.009585,349.490845 
M86.989906,370.456177 
	C85.300041,369.693420 83.614204,368.276825 81.919731,368.266449 
	C58.274742,368.121063 34.628563,368.163361 10.982692,368.178314 
	C9.401827,368.179321 7.821057,368.328369 6.003183,368.420593 
	C6.003183,370.537140 6.003175,372.026733 6.003184,373.516327 
	C6.003469,420.641571 5.998535,467.766785 6.008769,514.892029 
	C6.010646,523.537109 8.638316,526.147888 17.365620,526.152527 
	C47.505783,526.168579 77.646622,526.058777 107.785484,526.258118 
	C112.862045,526.291626 117.930046,527.618652 123.412422,528.407043 
	C123.431389,528.065369 123.591652,526.472717 123.596291,524.879578 
	C123.621475,516.220642 123.608299,507.561554 123.608276,498.902496 
	C123.608192,469.428406 123.618561,439.954315 123.588013,410.480255 
	C123.585579,408.130341 124.304237,405.705841 120.406631,404.973846 
	C101.618942,401.445312 91.080818,390.619537 86.989906,370.456177 
M245.991745,474.500000 
	C245.991592,440.685944 245.952744,406.871735 246.050049,373.057983 
	C246.059967,369.607330 245.456223,367.971710 241.448792,367.999573 
	C217.463608,368.166351 193.476532,368.119751 169.490494,368.035217 
	C166.475235,368.024597 165.322418,368.766724 164.774033,372.080200 
	C162.005402,388.808655 149.723267,401.824280 133.791962,404.652802 
	C129.656418,405.387054 128.777924,406.839203 128.790268,410.671753 
	C128.913254,448.816315 128.860870,486.961426 128.880798,525.106384 
	C128.881516,526.480591 129.117508,527.854614 129.143906,528.141663 
	C134.245697,527.403320 138.873245,526.179321 143.507645,526.152832 
	C173.989288,525.978638 204.472443,526.069702 234.955093,526.057556 
	C243.323822,526.054199 245.968384,523.401184 245.984741,514.977539 
	C246.010315,501.818390 245.991653,488.659180 245.991745,474.500000 
M123.012314,174.499863 
	C123.012314,159.634399 123.012314,144.768921 123.012314,129.903458 
	C122.555702,129.753036 122.099091,129.602615 121.642479,129.452179 
	C120.720360,130.610397 119.546173,131.650528 118.935349,132.954544 
	C118.025162,134.897675 117.511635,137.026749 116.830864,139.077194 
	C113.663139,148.618073 110.495956,158.159119 107.328575,167.700104 
	C106.742142,167.675140 106.155708,167.650192 105.569275,167.625244 
	C105.530876,166.126343 105.101799,164.508316 105.516685,163.147629 
	C108.495148,153.379410 111.645042,143.663467 114.740524,133.930923 
	C114.261543,133.515701 113.782562,133.100494 113.303589,132.685272 
	C108.905426,136.709457 103.858612,140.226364 100.236702,144.857605 
	C91.153999,156.471497 82.698654,168.576996 74.028221,180.511856 
	C70.477699,185.399185 67.021378,190.354950 63.009285,196.001450 
	C82.563347,196.001450 101.018196,195.964462 119.472610,196.038452 
	C122.489227,196.050552 123.075989,194.535156 123.035439,191.980560 
	C122.948250,186.488235 123.010963,180.993515 123.012314,174.499863 
M128.988754,135.774231 
	C128.988892,154.100479 129.103455,172.427979 128.902710,190.752029 
	C128.856827,194.940994 130.187225,196.164856 134.304825,196.095474 
	C147.629211,195.870911 160.959778,196.011856 174.287964,196.011963 
	C178.534210,196.011993 182.780457,196.011993 187.562622,196.011993 
	C186.743546,194.423569 186.403503,193.497086 185.847855,192.725937 
	C174.205063,176.567902 162.429092,160.504242 150.943039,144.235825 
	C147.575745,139.466492 143.704147,135.893219 137.375916,134.282059 
	C140.939545,145.314590 144.347046,155.863754 147.754547,166.412933 
	C147.057922,166.709930 146.361313,167.006927 145.664703,167.303925 
	C144.812485,165.820908 143.682571,164.430222 143.153778,162.839676 
	C140.060471,153.535400 137.205414,144.150986 134.031174,134.875336 
	C133.338501,132.851212 131.675110,131.159302 130.458771,129.314392 
	C129.968750,129.549133 129.478745,129.783875 128.988724,130.018600 
	C128.988724,131.636703 128.988724,133.254791 128.988754,135.774231 
M130.589050,332.865723 
	C146.337662,334.930481 158.165848,347.687286 159.332657,363.865967 
	C160.475723,379.715302 150.301361,394.072357 134.844681,398.420898 
	C119.645325,402.697021 103.295891,395.436584 96.125610,381.226532 
	C87.725006,364.578247 92.851959,350.091705 112.610649,334.057343 
	C111.084198,334.119110 109.559410,334.321655 108.199173,334.906769 
	C101.345299,337.854980 96.391602,342.881134 93.057167,349.463989 
	C83.840187,367.660278 91.430397,390.176453 109.764503,399.248596 
	C128.226761,408.384155 150.298233,400.665802 159.171265,381.971100 
	C167.981476,363.408752 160.026352,341.242188 141.486145,332.591492 
	C138.950684,331.408478 136.545792,329.946808 134.016937,328.748138 
	C131.055313,327.344330 128.365692,327.350586 126.151352,331.085449 
	C127.516434,331.750275 128.632278,332.293701 130.589050,332.865723 
M138.324310,354.188019 
	C143.243301,362.787964 148.162308,371.387939 153.205078,380.204315 
	C158.928513,370.092285 158.090652,357.542358 151.328232,347.993073 
	C145.497818,339.759857 135.546860,334.487274 127.918770,335.779999 
	C131.305679,341.751007 134.647675,347.642822 138.324310,354.188019 
M107.031670,341.450348 
	C94.800018,352.103271 91.475624,367.074799 98.796356,380.299164 
	C107.434486,365.218109 115.924149,350.396240 124.413803,335.574402 
	C123.998894,335.028412 123.583984,334.482391 123.169075,333.936371 
	C117.982109,336.295135 112.795151,338.653870 107.031670,341.450348 
M139.466248,382.925903 
	C126.576813,382.925903 113.687378,382.925903 100.464890,382.925903 
	C111.682686,401.876831 140.801041,401.440125 151.484604,382.925903 
	C147.616165,382.925903 144.032242,382.925903 139.466248,382.925903 
M142.313461,380.448090 
	C144.755295,380.448090 147.197113,380.448090 150.483047,380.448090 
	C147.980316,376.067657 145.900177,372.426880 143.784241,368.723419 
	C130.958817,379.529358 120.978668,379.577942 108.136093,368.904877 
	C106.054359,372.586273 104.008064,376.205017 101.608757,380.448059 
	C115.498901,380.448059 128.430984,380.448059 142.313461,380.448090 
M117.217758,359.331543 
	C124.801132,356.337433 131.971115,357.550354 139.489197,361.115143 
	C135.159302,353.499878 130.829407,345.884613 126.110741,337.585571 
	C121.453224,345.706116 117.227509,353.073792 112.509796,361.299286 
	C114.480530,360.541412 115.514595,360.143768 117.217758,359.331543 
M124.763161,360.019867 
	C121.141075,360.852478 118.475395,363.076691 118.881882,366.786194 
	C119.147865,369.213531 120.705566,372.453247 122.655861,373.474640 
	C124.617950,374.502136 128.491074,374.115417 130.220734,372.724365 
	C131.957733,371.327515 132.981293,367.824249 132.705185,365.430054 
	C132.294281,361.866760 129.366776,359.955811 124.763161,360.019867 
M98.698036,92.665962 
	C98.063499,92.822731 97.428970,92.979500 95.809921,93.379517 
	C104.994736,96.391129 113.298782,99.113945 122.168648,102.022285 
	C116.320930,90.407570 115.980057,90.225479 104.362068,91.845604 
	C102.724625,92.073952 101.082336,92.267540 98.698036,92.665962 
M120.985641,95.441681 
	C122.045799,96.780113 123.105957,98.118553 124.494293,99.871307 
	C124.494293,90.697060 124.494293,82.317001 124.494293,72.516563 
	C122.459282,76.641098 121.364754,79.649818 119.621918,82.218689 
	C116.498108,86.823051 116.286926,90.932243 120.985641,95.441681 
M127.046349,87.486404 
	C127.046349,91.525032 127.046349,95.563652 127.046349,101.079872 
	C129.842484,97.245659 131.761566,94.782494 133.477280,92.184998 
	C134.246994,91.019699 135.413315,89.241447 135.023346,88.330544 
	C132.883530,83.332207 130.317154,78.516487 127.897255,73.638054 
	C127.613617,73.774651 127.329987,73.911247 127.046349,74.047844 
	C127.046349,78.199097 127.046349,82.350342 127.046349,87.486404 
M129.554550,111.192772 
	C128.954361,110.479782 128.354172,109.766785 127.049202,108.216545 
	C127.049202,112.974716 126.915482,116.715935 127.134384,120.436401 
	C127.196426,121.490791 128.041916,122.915413 128.948730,123.432190 
	C133.021057,125.753036 137.244949,127.807961 141.414169,129.958817 
	C141.729263,129.690231 142.044342,129.421646 142.359421,129.153061 
	C138.220795,123.352982 134.082169,117.552895 129.554550,111.192772 
M118.862389,103.220627 
	C115.228027,102.074593 111.598457,100.913048 107.957909,99.787018 
	C104.537033,98.728935 101.104561,97.708366 97.677193,96.671280 
	C107.620926,109.602318 111.308960,110.625572 120.869392,104.107338 
	C120.416512,103.906075 119.963631,103.704803 118.862389,103.220627 
M143.253433,116.242241 
	C142.496902,110.247780 139.725937,108.432503 129.693481,107.580635 
	C134.664856,114.454681 139.483902,121.118088 144.302948,127.781487 
	C144.578445,127.621391 144.853943,127.461288 145.129440,127.301193 
	C144.561874,123.889320 143.994308,120.477448 143.253433,116.242241 
M107.765617,127.586670 
	C112.333305,121.329269 116.900993,115.071869 121.468681,108.814468 
	C121.103889,108.392899 120.739090,107.971329 120.374298,107.549751 
	C117.141693,108.598839 113.863647,109.532661 110.707886,110.776688 
	C109.901764,111.094467 109.099899,112.332237 108.950333,113.253555 
	C108.184898,117.968498 107.633484,122.718178 107.765617,127.586670 
M137.927994,99.417793 
	C143.356476,97.617004 148.784943,95.816216 155.228958,93.678535 
	C133.715347,89.774193 139.292938,88.259148 130.020798,101.460976 
	C132.782059,100.798973 134.990005,100.269630 137.927994,99.417793 
M138.915527,107.339912 
	C143.483109,108.741768 150.990295,103.472610 153.630905,96.675636 
	C145.895050,99.209229 138.460373,101.644173 129.969833,104.424919 
	C133.489380,105.575958 135.843292,106.345779 138.915527,107.339912 
M117.578575,118.066628 
	C115.064529,121.540436 112.550484,125.014244 109.849472,128.746399 
	C121.779694,127.975967 127.362427,120.187065 123.954277,109.279770 
	C121.890350,112.120636 119.942513,114.801712 117.578575,118.066628 
M116.700996,369.704620 
	C116.700996,367.485748 116.700996,365.266907 116.700996,361.932343 
	C114.105698,364.033081 112.219261,365.560059 109.934349,367.409576 
	C112.336983,369.186401 114.047417,370.472473 115.817070,371.671112 
	C115.878349,371.712616 116.531433,370.880371 116.700996,369.704620 
M135.114410,363.284607 
	C135.114410,366.140106 135.114410,368.995605 135.114410,372.235809 
	C136.947006,370.964081 138.993530,369.543915 141.763885,367.621429 
	C139.372650,365.767761 137.632446,364.418762 135.114410,363.284607 
z"/>
<path fill="#000000" opacity="1.000000" stroke="none" 
	d="
M127.468658,547.000000 
	C128.841049,542.991333 130.135239,538.567688 132.738510,535.137451 
	C134.184708,533.231812 137.809158,532.136475 140.461746,532.118286 
	C170.353500,531.913025 200.248108,531.859802 230.139725,532.075073 
	C237.879227,532.130798 244.933121,531.293823 250.649384,525.023987 
	C251.000000,532.311279 251.000000,539.622620 251.000000,547.000000 
	C209.979126,547.000000 168.958221,547.000000 127.468658,547.000000 
z"/>
<path fill="#000000" opacity="1.000000" stroke="none" 
	d="
M0.999998,525.468750 
	C1.745342,525.307007 2.778885,525.399963 3.190781,525.954651 
	C6.724253,530.712585 11.703065,531.982361 17.233187,531.983826 
	C47.393566,531.991699 77.560364,532.330750 107.710205,531.767090 
	C116.160400,531.609009 120.913177,534.526978 123.549545,542.039978 
	C124.041519,543.442017 124.535606,544.843323 125.014359,546.622437 
	C83.666626,547.000000 42.333252,547.000000 1.000000,547.000000 
	C1.000000,539.895447 1.000000,532.916504 0.999998,525.468750 
z"/>
<path fill="#F8E159" opacity="1.000000" stroke="none" 
	d="
M143.889801,331.063568 
	C138.696106,328.729675 133.841248,326.542480 128.305252,324.048401 
	C128.305252,284.329651 128.305252,243.241928 128.305252,201.703705 
	C167.353882,201.703705 206.356232,201.703705 245.677185,201.703705 
	C245.677185,255.331360 245.677185,309.008942 245.677185,362.930267 
	C218.949081,362.930267 192.366943,362.930267 165.349670,362.930267 
	C163.430206,349.077423 156.779327,338.139526 143.889801,331.063568 
M219.752960,345.204742 
	C220.714279,343.955200 221.675598,342.705688 222.698959,341.375519 
	C225.282074,343.353088 227.870667,345.334808 230.605957,347.428864 
	C231.900116,345.969360 232.862534,344.883972 233.867142,343.750977 
	C225.921326,331.154388 218.070938,318.808533 210.368637,306.370972 
	C209.419876,304.838959 208.653748,302.751129 208.841141,301.034180 
	C209.688889,293.267029 207.972504,290.350067 200.334717,287.713501 
	C196.595291,286.422699 195.467163,283.752319 197.142731,280.157990 
	C200.647644,272.639465 198.254074,268.042328 190.075912,266.505768 
	C188.158493,266.145447 185.433823,266.277100 184.519302,265.081696 
	C181.521851,261.163605 179.186996,256.738586 176.024368,251.572250 
	C184.470001,254.243729 188.348038,250.883331 187.183136,243.592743 
	C185.450607,232.749771 176.461151,229.474869 166.196869,236.118652 
	C163.928665,232.950745 161.331940,230.273224 162.866318,225.512604 
	C164.146332,221.541199 161.197891,218.688461 156.949127,219.182465 
	C151.530518,219.812531 147.146912,222.319427 144.748566,227.489029 
	C142.512299,232.309296 144.233490,235.089142 149.359421,235.959869 
	C151.154419,236.264771 153.257690,237.429413 154.326233,238.866241 
	C158.592804,244.603348 161.472214,250.527435 161.213821,258.383575 
	C160.866150,268.954254 167.463486,277.077576 175.416718,278.017303 
	C179.069901,278.448914 181.261688,279.814453 182.098633,283.451111 
	C179.109741,286.562225 176.788696,289.910461 178.692673,294.556000 
	C180.502213,298.971069 184.214844,300.515961 188.527084,301.117523 
	C196.649750,302.250580 197.925751,304.128876 196.217789,312.608612 
	C194.962173,318.842499 196.784683,323.501587 201.862518,324.797668 
	C205.774277,325.796051 206.911957,327.919525 207.020111,331.477234 
	C207.079117,333.418640 216.675751,344.814178 218.630417,345.575897 
	C218.759003,345.626007 218.950806,345.513855 219.752960,345.204742 
z"/>
<path fill="#249F6A" opacity="1.000000" stroke="none" 
	d="
M6.009593,348.992676 
	C6.009601,299.679260 6.009601,250.863968 6.009601,201.695908 
	C7.584100,201.496002 8.851604,201.195343 10.119318,201.194443 
	C46.283287,201.169006 82.447388,201.212326 118.611092,201.111191 
	C122.065422,201.101532 123.212242,202.121216 123.204620,205.647064 
	C123.118233,245.643860 123.173843,285.640961 123.178925,325.637970 
	C123.179031,326.457947 123.029282,327.277954 122.893806,328.669342 
	C113.765099,329.614075 105.024078,331.880310 98.041229,338.472015 
	C91.151741,344.975586 87.983330,353.205658 86.672676,362.719299 
	C60.036766,362.719299 33.456310,362.719299 6.009585,362.719299 
	C6.009585,358.340088 6.009585,353.915466 6.009593,348.992676 
M32.812656,239.193298 
	C28.611343,248.803040 24.343327,258.384338 20.231749,268.032318 
	C17.407604,274.659271 19.598913,281.495056 25.757582,286.025299 
	C31.321737,290.118225 39.879448,290.064606 45.427734,285.902100 
	C51.431103,281.398163 53.394863,274.580505 50.528084,267.846802 
	C46.114349,257.479523 41.640003,247.138031 37.035816,236.423599 
	C45.972157,236.423599 54.327591,236.423599 63.302876,236.423599 
	C62.727036,250.777924 62.170002,264.713501 61.608131,278.648834 
	C61.326496,285.633881 61.228462,292.633179 60.700603,299.599731 
	C60.049057,308.198700 59.899918,308.299896 51.434853,308.805389 
	C48.771919,308.964417 48.046982,310.014526 48.017147,312.468719 
	C47.984642,315.142609 49.173771,315.995300 51.651382,315.892181 
	C54.244740,315.784241 56.846077,315.868042 59.309406,315.868042 
	C60.841942,325.614624 60.004864,327.823608 54.034264,330.234894 
	C54.165943,335.372589 56.103584,339.509552 60.943512,341.891296 
	C64.946831,343.861359 68.843803,343.157745 72.146294,340.383026 
	C75.430878,337.623413 77.375648,334.121399 76.422943,329.630524 
	C74.552177,329.179779 73.004478,328.806885 71.385910,328.416931 
	C71.385910,324.196686 71.385910,320.292542 71.385910,315.868256 
	C74.054466,315.868256 76.354424,315.812592 78.650482,315.883331 
	C81.134445,315.959869 82.804482,315.413483 82.882828,312.382996 
	C82.961418,309.342926 81.438446,308.643066 78.861588,308.853851 
	C78.034195,308.921570 77.179939,308.754974 76.366165,308.879639 
	C71.497360,309.625488 70.134552,307.418884 70.015038,302.723236 
	C69.638237,287.919403 68.704666,273.130646 68.193489,258.328918 
	C67.943115,251.079163 68.150124,243.813614 68.150124,236.363571 
	C76.413879,236.363571 84.953026,236.363571 94.218803,236.363571 
	C89.516388,247.254227 85.013306,257.583374 80.617905,267.958130 
	C79.857384,269.753204 79.134216,271.737457 79.115540,273.641418 
	C79.056404,279.669586 83.675117,285.874054 89.787109,288.003052 
	C96.518700,290.347870 102.610359,289.085205 107.689880,283.947357 
	C112.513962,279.067932 113.327904,273.617737 110.450279,267.004120 
	C106.066643,256.929199 100.850777,247.098175 97.717819,236.645203 
	C96.050407,231.081955 93.698586,230.667908 89.227188,230.802917 
	C81.962791,231.022247 74.686928,230.862045 67.663841,230.862045 
	C67.018684,227.763962 66.539734,225.464005 66.060783,223.164062 
	C65.525269,223.230530 64.989761,223.296997 64.454247,223.363464 
	C64.135948,225.693054 63.817642,228.022629 63.429115,230.866150 
	C53.946278,230.866150 44.684631,230.866150 35.653248,230.866150 
	C34.661327,233.773911 33.862881,236.114502 32.812656,239.193298 
z"/>
<path fill="#EC3431" opacity="1.000000" stroke="none" 
	d="
M87.028870,370.880219 
	C91.080818,390.619537 101.618942,401.445312 120.406631,404.973846 
	C124.304237,405.705841 123.585579,408.130341 123.588013,410.480255 
	C123.618561,439.954315 123.608192,469.428406 123.608276,498.902496 
	C123.608299,507.561554 123.621475,516.220642 123.596291,524.879578 
	C123.591652,526.472717 123.431389,528.065369 123.412422,528.407043 
	C117.930046,527.618652 112.862045,526.291626 107.785484,526.258118 
	C77.646622,526.058777 47.505783,526.168579 17.365620,526.152527 
	C8.638316,526.147888 6.010646,523.537109 6.008769,514.892029 
	C5.998535,467.766785 6.003469,420.641571 6.003184,373.516327 
	C6.003175,372.026733 6.003183,370.537140 6.003183,368.420593 
	C7.821057,368.328369 9.401827,368.179321 10.982692,368.178314 
	C34.628563,368.163361 58.274742,368.121063 81.919731,368.266449 
	C83.614204,368.276825 85.300041,369.693420 87.028870,370.880219 
M35.577396,392.060425 
	C34.523365,390.449829 33.469330,388.839233 32.833462,387.867584 
	C29.879572,389.983795 27.032742,392.023285 24.316488,393.969269 
	C25.044998,395.501190 26.118948,397.759552 27.025776,400.807220 
	C27.161963,406.229218 30.686796,400.230194 32.188305,402.085419 
	C38.932751,419.011292 45.677197,435.937164 52.421642,452.863037 
	C53.109753,452.609070 53.797859,452.355072 54.485966,452.101105 
	C51.816525,444.883026 49.147079,437.664917 46.896572,430.097290 
	C47.032021,429.975922 47.167473,429.854584 47.791595,430.221497 
	C49.823643,433.087585 50.374546,437.059662 53.404781,439.180389 
	C53.865734,438.917297 54.326687,438.654205 54.787640,438.391144 
	C52.987186,434.720093 51.186729,431.049072 49.106571,426.807739 
	C51.040154,427.698608 52.215336,428.240051 53.390518,428.781494 
	C53.655113,428.541870 53.919704,428.302216 54.184299,428.062592 
	C53.101688,426.005127 52.019077,423.947662 50.971363,421.956512 
	C52.206768,420.823547 53.211369,419.902252 54.267406,418.933777 
	C55.983898,420.114899 57.659180,421.267670 59.953747,422.846558 
	C59.868717,421.015961 59.825722,420.090240 59.756180,418.593109 
	C62.912426,420.297150 65.512825,421.701111 68.113220,423.105042 
	C68.371216,422.679749 68.629204,422.254425 68.887199,421.829102 
	C67.351341,420.438843 65.815491,419.048553 64.825569,417.159058 
	C64.994766,416.979645 65.163956,416.800262 65.993073,416.849579 
	C71.424370,419.928528 76.855659,423.007477 82.286949,426.086426 
	C82.616859,425.537506 82.946770,424.988586 83.276672,424.439667 
	C82.059174,423.566467 80.900017,422.594513 79.615120,421.835388 
	C66.881424,414.312408 54.101017,406.867828 41.420544,399.256561 
	C40.224781,398.538849 39.620537,396.835632 39.248940,395.235596 
	C39.718857,394.676636 40.188770,394.117676 40.957272,393.203522 
	C38.932732,392.897797 37.501709,392.681702 35.577396,392.060425 
M99.953667,437.607880 
	C90.214165,425.208893 72.961441,426.789093 64.188072,435.745514 
	C59.444557,440.588074 57.059227,446.667114 57.374561,453.429230 
	C57.815987,462.895538 62.705647,469.851868 71.913406,475.028839 
	C66.170105,475.028839 61.687519,474.835938 57.231579,475.097321 
	C54.307434,475.268860 53.096909,474.007507 52.299904,471.446991 
	C50.867764,466.846008 49.269382,462.292542 47.600540,457.770844 
	C46.249859,454.111176 45.635048,449.359741 40.490612,449.294586 
	C35.321793,449.229095 34.604973,453.911438 33.268318,457.608124 
	C31.402992,462.766968 30.700348,468.770721 27.545948,472.931335 
	C23.616425,478.114258 25.457481,482.980438 24.881035,488.651154 
	C36.462177,488.651154 47.413071,488.651154 58.363960,488.651154 
	C69.448990,488.651154 80.534027,488.651154 92.340225,488.651154 
	C92.340225,496.086395 92.340225,502.795258 92.340225,509.526978 
	C97.170540,509.526978 101.261414,509.526978 105.956589,509.526978 
	C105.956589,503.619080 105.956589,498.011841 105.956589,492.404602 
	C105.956589,486.798187 105.956589,481.191742 105.956589,474.886505 
	C100.941261,474.886505 96.523323,474.886505 91.096230,474.886505 
	C105.872536,464.999634 109.094574,450.901367 99.953667,437.607880 
z"/>
<path fill="#2A427D" opacity="1.000000" stroke="none" 
	d="
M245.991730,475.000000 
	C245.991653,488.659180 246.010315,501.818390 245.984741,514.977539 
	C245.968384,523.401184 243.323822,526.054199 234.955093,526.057556 
	C204.472443,526.069702 173.989288,525.978638 143.507645,526.152832 
	C138.873245,526.179321 134.245697,527.403320 129.143906,528.141663 
	C129.117508,527.854614 128.881516,526.480591 128.880798,525.106384 
	C128.860870,486.961426 128.913254,448.816315 128.790268,410.671753 
	C128.777924,406.839203 129.656418,405.387054 133.791962,404.652802 
	C149.723267,401.824280 162.005402,388.808655 164.774033,372.080200 
	C165.322418,368.766724 166.475235,368.024597 169.490494,368.035217 
	C193.476532,368.119751 217.463608,368.166351 241.448792,367.999573 
	C245.456223,367.971710 246.059967,369.607330 246.050049,373.057983 
	C245.952744,406.871735 245.991592,440.685944 245.991730,475.000000 
M186.778290,400.233826 
	C183.873154,402.696381 180.119415,404.662689 178.305984,407.763672 
	C176.557266,410.753967 176.811661,414.915680 176.142242,418.818268 
	C174.116730,419.302216 171.388916,420.033447 168.626236,420.592346 
	C165.698669,421.184601 162.712860,421.503845 159.805313,422.172119 
	C158.787003,422.406158 157.687851,423.133759 157.031952,423.958954 
	C153.350739,428.590393 151.046432,433.561279 151.789642,439.856262 
	C152.371689,444.786102 151.964584,449.840790 151.868668,454.837555 
	C151.840866,456.285034 151.801102,458.031677 151.028259,459.113586 
	C147.699951,463.773132 144.278488,468.392395 140.549500,472.733002 
	C135.547318,478.555634 137.134293,485.601990 144.337082,487.905396 
	C163.993271,494.191315 183.729065,500.235321 203.305328,506.759308 
	C208.415161,508.462219 211.693832,507.879364 214.675858,503.251678 
	C216.536591,500.364044 219.463776,498.178467 221.813324,495.587982 
	C226.925705,489.951477 231.974640,484.257355 237.049500,478.586761 
	C236.551849,478.482086 236.054199,478.377411 235.556564,478.272736 
	C235.228912,475.741119 235.113510,473.156403 234.497696,470.696960 
	C234.098892,469.104126 233.302155,467.270264 232.081390,466.310760 
	C230.577682,465.128937 228.500977,464.520233 226.577087,464.061920 
	C222.750031,463.150177 221.809586,460.783173 221.892303,457.096100 
	C222.101517,447.770111 221.751312,438.429688 222.046448,429.108368 
	C222.189850,424.579651 218.787064,422.596375 216.087967,421.594177 
	C210.626343,419.566284 204.653137,418.916260 198.934845,417.707367 
	C199.577835,406.973724 196.433990,404.114075 186.778290,400.233826 
z"/>
<path fill="#000000" opacity="1.000000" stroke="none" 
	d="
M123.012314,174.999817 
	C123.010963,180.993515 122.948250,186.488235 123.035439,191.980560 
	C123.075989,194.535156 122.489227,196.050552 119.472610,196.038452 
	C101.018196,195.964462 82.563347,196.001450 63.009285,196.001450 
	C67.021378,190.354950 70.477699,185.399185 74.028221,180.511856 
	C82.698654,168.576996 91.153999,156.471497 100.236702,144.857605 
	C103.858612,140.226364 108.905426,136.709457 113.303589,132.685272 
	C113.782562,133.100494 114.261543,133.515701 114.740524,133.930923 
	C111.645042,143.663467 108.495148,153.379410 105.516685,163.147629 
	C105.101799,164.508316 105.530876,166.126343 105.569275,167.625244 
	C106.155708,167.650192 106.742142,167.675140 107.328575,167.700104 
	C110.495956,158.159119 113.663139,148.618073 116.830864,139.077194 
	C117.511635,137.026749 118.025162,134.897675 118.935349,132.954544 
	C119.546173,131.650528 120.720360,130.610397 121.642479,129.452179 
	C122.099091,129.602615 122.555702,129.753036 123.012314,129.903458 
	C123.012314,144.768921 123.012314,159.634399 123.012314,174.999817 
z"/>
<path fill="#000000" opacity="1.000000" stroke="none" 
	d="
M128.988739,135.323563 
	C128.988724,133.254791 128.988724,131.636703 128.988724,130.018600 
	C129.478745,129.783875 129.968750,129.549133 130.458771,129.314392 
	C131.675110,131.159302 133.338501,132.851212 134.031174,134.875336 
	C137.205414,144.150986 140.060471,153.535400 143.153778,162.839676 
	C143.682571,164.430222 144.812485,165.820908 145.664703,167.303925 
	C146.361313,167.006927 147.057922,166.709930 147.754547,166.412933 
	C144.347046,155.863754 140.939545,145.314590 137.375916,134.282059 
	C143.704147,135.893219 147.575745,139.466492 150.943039,144.235825 
	C162.429092,160.504242 174.205063,176.567902 185.847855,192.725937 
	C186.403503,193.497086 186.743546,194.423569 187.562622,196.011993 
	C182.780457,196.011993 178.534210,196.011993 174.287964,196.011963 
	C160.959778,196.011856 147.629211,195.870911 134.304825,196.095474 
	C130.187225,196.164856 128.856827,194.940994 128.902710,190.752029 
	C129.103455,172.427979 128.988892,154.100479 128.988739,135.323563 
z"/>
<path fill="#EEEDED" opacity="1.000000" stroke="none" 
	d="
M130.168579,332.851440 
	C128.632278,332.293701 127.516434,331.750275 126.151352,331.085449 
	C128.365692,327.350586 131.055313,327.344330 134.016937,328.748138 
	C136.545792,329.946808 138.950684,331.408478 141.486145,332.591492 
	C160.026352,341.242188 167.981476,363.408752 159.171265,381.971100 
	C150.298233,400.665802 128.226761,408.384155 109.764503,399.248596 
	C91.430397,390.176453 83.840187,367.660278 93.057167,349.463989 
	C96.391602,342.881134 101.345299,337.854980 108.199173,334.906769 
	C109.559410,334.321655 111.084198,334.119110 112.610649,334.057343 
	C92.851959,350.091705 87.725006,364.578247 96.125610,381.226532 
	C103.295891,395.436584 119.645325,402.697021 134.844681,398.420898 
	C150.301361,394.072357 160.475723,379.715302 159.332657,363.865967 
	C158.165848,347.687286 146.337662,334.930481 130.168579,332.851440 
z"/>
<path fill="#FAFAFA" opacity="1.000000" stroke="none" 
	d="
M138.156982,353.861328 
	C134.647675,347.642822 131.305679,341.751007 127.918770,335.779999 
	C135.546860,334.487274 145.497818,339.759857 151.328232,347.993073 
	C158.090652,357.542358 158.928513,370.092285 153.205078,380.204315 
	C148.162308,371.387939 143.243301,362.787964 138.156982,353.861328 
z"/>
<path fill="#FAFAFA" opacity="1.000000" stroke="none" 
	d="
M107.319931,341.231506 
	C112.795151,338.653870 117.982109,336.295135 123.169075,333.936371 
	C123.583984,334.482391 123.998894,335.028412 124.413803,335.574402 
	C115.924149,350.396240 107.434486,365.218109 98.796356,380.299164 
	C91.475624,367.074799 94.800018,352.103271 107.319931,341.231506 
z"/>
<path fill="#FDFCFC" opacity="1.000000" stroke="none" 
	d="
M139.957275,382.925903 
	C144.032242,382.925903 147.616165,382.925903 151.484604,382.925903 
	C140.801041,401.440125 111.682686,401.876831 100.464890,382.925903 
	C113.687378,382.925903 126.576813,382.925903 139.957275,382.925903 
z"/>
<path fill="#FAFAFA" opacity="1.000000" stroke="none" 
	d="
M141.838257,380.448059 
	C128.430984,380.448059 115.498901,380.448059 101.608757,380.448059 
	C104.008064,376.205017 106.054359,372.586273 108.136093,368.904877 
	C120.978668,379.577942 130.958817,379.529358 143.784241,368.723419 
	C145.900177,372.426880 147.980316,376.067657 150.483047,380.448090 
	C147.197113,380.448090 144.755295,380.448090 141.838257,380.448059 
z"/>
<path fill="#F7F6F7" opacity="1.000000" stroke="none" 
	d="
M116.883209,359.538818 
	C115.514595,360.143768 114.480530,360.541412 112.509796,361.299286 
	C117.227509,353.073792 121.453224,345.706116 126.110741,337.585571 
	C130.829407,345.884613 135.159302,353.499878 139.489197,361.115143 
	C131.971115,357.550354 124.801132,356.337433 116.883209,359.538818 
z"/>
<path fill="#F6F6F6" opacity="1.000000" stroke="none" 
	d="
M125.163933,359.997681 
	C129.366776,359.955811 132.294281,361.866760 132.705185,365.430054 
	C132.981293,367.824249 131.957733,371.327515 130.220734,372.724365 
	C128.491074,374.115417 124.617950,374.502136 122.655861,373.474640 
	C120.705566,372.453247 119.147865,369.213531 118.881882,366.786194 
	C118.475395,363.076691 121.141075,360.852478 125.163933,359.997681 
z"/>
<path fill="#DAD8D3" opacity="1.000000" stroke="none" 
	d="
M99.070160,92.571594 
	C101.082336,92.267540 102.724625,92.073952 104.362068,91.845604 
	C115.980057,90.225479 116.320930,90.407570 122.168648,102.022285 
	C113.298782,99.113945 104.994736,96.391129 95.809921,93.379517 
	C97.428970,92.979500 98.063499,92.822731 99.070160,92.571594 
z"/>
<path fill="#D8D6D2" opacity="1.000000" stroke="none" 
	d="
M120.775185,95.145844 
	C116.286926,90.932243 116.498108,86.823051 119.621918,82.218689 
	C121.364754,79.649818 122.459282,76.641098 124.494293,72.516563 
	C124.494293,82.317001 124.494293,90.697060 124.494293,99.871307 
	C123.105957,98.118553 122.045799,96.780113 120.775185,95.145844 
z"/>
<path fill="#DDDBD7" opacity="1.000000" stroke="none" 
	d="
M127.046349,86.994003 
	C127.046349,82.350342 127.046349,78.199097 127.046349,74.047844 
	C127.329987,73.911247 127.613617,73.774651 127.897255,73.638054 
	C130.317154,78.516487 132.883530,83.332207 135.023346,88.330544 
	C135.413315,89.241447 134.246994,91.019699 133.477280,92.184998 
	C131.761566,94.782494 129.842484,97.245659 127.046349,101.079872 
	C127.046349,95.563652 127.046349,91.525032 127.046349,86.994003 
z"/>
<path fill="#DDDBD6" opacity="1.000000" stroke="none" 
	d="
M129.749054,111.472794 
	C134.082169,117.552895 138.220795,123.352982 142.359421,129.153061 
	C142.044342,129.421646 141.729263,129.690231 141.414169,129.958817 
	C137.244949,127.807961 133.021057,125.753036 128.948730,123.432190 
	C128.041916,122.915413 127.196426,121.490791 127.134384,120.436401 
	C126.915482,116.715935 127.049202,112.974716 127.049202,108.216545 
	C128.354172,109.766785 128.954361,110.479782 129.749054,111.472794 
z"/>
<path fill="#DEDBD7" opacity="1.000000" stroke="none" 
	d="
M119.186569,103.362083 
	C119.963631,103.704803 120.416512,103.906075 120.866814,104.113144 
	C111.308960,110.625572 107.620926,109.602318 97.677193,96.671280 
	C101.104561,97.708366 104.537033,98.728935 107.957909,99.787018 
	C111.598457,100.913048 115.228027,102.074593 119.186569,103.362083 
z"/>
<path fill="#DAD8D3" opacity="1.000000" stroke="none" 
	d="
M143.340088,116.653908 
	C143.994308,120.477448 144.561874,123.889320 145.129440,127.301193 
	C144.853943,127.461288 144.578445,127.621391 144.302948,127.781487 
	C139.483902,121.118088 134.664856,114.454681 129.693481,107.580635 
	C139.725937,108.432503 142.496902,110.247780 143.340088,116.653908 
z"/>
<path fill="#DBD9D4" opacity="1.000000" stroke="none" 
	d="
M107.386429,127.521194 
	C107.633484,122.718178 108.184898,117.968498 108.950333,113.253555 
	C109.099899,112.332237 109.901764,111.094467 110.707886,110.776688 
	C113.863647,109.532661 117.141693,108.598839 120.374298,107.549751 
	C120.739090,107.971329 121.103889,108.392899 121.468681,108.814468 
	C116.900993,115.071869 112.333305,121.329269 107.386429,127.521194 
z"/>
<path fill="#DAD8D4" opacity="1.000000" stroke="none" 
	d="
M137.562973,99.579041 
	C134.990005,100.269630 132.782059,100.798973 130.020798,101.460976 
	C139.292938,88.259148 133.715347,89.774193 155.228958,93.678535 
	C148.784943,95.816216 143.356476,97.617004 137.562973,99.579041 
z"/>
<path fill="#DBD9D4" opacity="1.000000" stroke="none" 
	d="
M138.556366,107.227760 
	C135.843292,106.345779 133.489380,105.575958 129.969833,104.424919 
	C138.460373,101.644173 145.895050,99.209229 153.630905,96.675636 
	C150.990295,103.472610 143.483109,108.741768 138.556366,107.227760 
z"/>
<path fill="#DAD8D3" opacity="1.000000" stroke="none" 
	d="
M117.786629,117.774704 
	C119.942513,114.801712 121.890350,112.120636 123.954277,109.279770 
	C127.362427,120.187065 121.779694,127.975967 109.849472,128.746399 
	C112.550484,125.014244 115.064529,121.540436 117.786629,117.774704 
z"/>
<path fill="#EDEDED" opacity="1.000000" stroke="none" 
	d="
M116.804840,370.079987 
	C116.531433,370.880371 115.878349,371.712616 115.817070,371.671112 
	C114.047417,370.472473 112.336983,369.186401 109.934349,367.409576 
	C112.219261,365.560059 114.105698,364.033081 116.700996,361.932343 
	C116.700996,365.266907 116.700996,367.485748 116.804840,370.079987 
z"/>
<path fill="#ECECEC" opacity="1.000000" stroke="none" 
	d="
M135.503326,363.177185 
	C137.632446,364.418762 139.372650,365.767761 141.763885,367.621429 
	C138.993530,369.543915 136.947006,370.964081 135.114410,372.235809 
	C135.114410,368.995605 135.114410,366.140106 135.503326,363.177185 
z"/>
<path fill="#362D29" opacity="1.000000" stroke="none" 
	d="
M219.433075,345.340942 
	C218.950806,345.513855 218.759003,345.626007 218.630417,345.575897 
	C216.675751,344.814178 207.079117,333.418640 207.020111,331.477234 
	C206.911957,327.919525 205.774277,325.796051 201.862518,324.797668 
	C196.784683,323.501587 194.962173,318.842499 196.217789,312.608612 
	C197.925751,304.128876 196.649750,302.250580 188.527084,301.117523 
	C184.214844,300.515961 180.502213,298.971069 178.692673,294.556000 
	C176.788696,289.910461 179.109741,286.562225 182.098633,283.451111 
	C181.261688,279.814453 179.069901,278.448914 175.416718,278.017303 
	C167.463486,277.077576 160.866150,268.954254 161.213821,258.383575 
	C161.472214,250.527435 158.592804,244.603348 154.326233,238.866241 
	C153.257690,237.429413 151.154419,236.264771 149.359421,235.959869 
	C144.233490,235.089142 142.512299,232.309296 144.748566,227.489029 
	C147.146912,222.319427 151.530518,219.812531 156.949127,219.182465 
	C161.197891,218.688461 164.146332,221.541199 162.866318,225.512604 
	C161.331940,230.273224 163.928665,232.950745 166.196869,236.118652 
	C176.461151,229.474869 185.450607,232.749771 187.183136,243.592743 
	C188.348038,250.883331 184.470001,254.243729 176.024368,251.572250 
	C179.186996,256.738586 181.521851,261.163605 184.519302,265.081696 
	C185.433823,266.277100 188.158493,266.145447 190.075912,266.505768 
	C198.254074,268.042328 200.647644,272.639465 197.142731,280.157990 
	C195.467163,283.752319 196.595291,286.422699 200.334717,287.713501 
	C207.972504,290.350067 209.688889,293.267029 208.841141,301.034180 
	C208.653748,302.751129 209.419876,304.838959 210.368637,306.370972 
	C218.070938,318.808533 225.921326,331.154388 233.867142,343.750977 
	C232.862534,344.883972 231.900116,345.969360 230.605957,347.428864 
	C227.870667,345.334808 225.282074,343.353088 222.698959,341.375519 
	C221.675598,342.705688 220.714279,343.955200 219.433075,345.340942 
M229.134430,342.209473 
	C229.210449,342.250702 229.286453,342.291901 229.362473,342.333130 
	C229.225861,342.233276 229.089249,342.133453 229.043259,341.494476 
	C228.870163,341.180481 228.697067,340.866486 228.299408,339.891724 
	C220.344330,326.159668 220.330078,326.141388 216.966156,325.671570 
	C218.495621,328.322937 220.627594,330.683868 221.235596,333.387543 
	C222.133881,337.382141 224.191528,339.793610 228.086426,341.628510 
	C228.395416,341.740936 228.704407,341.853363 229.134430,342.209473 
M169.585159,237.065689 
	C164.561859,243.378510 162.630844,250.775406 163.614044,258.534637 
	C165.335007,272.116302 171.416855,276.797516 183.065536,276.163300 
	C186.913223,275.953796 190.874542,277.831238 194.893021,278.780212 
	C197.615143,272.120209 196.056900,269.598938 188.358109,269.064087 
	C186.540054,268.937805 184.713058,268.747955 182.926300,268.401184 
	C178.609634,267.563385 174.315704,266.582672 172.939224,261.495544 
	C171.481491,256.108063 172.500885,251.343369 176.561844,247.277161 
	C177.700668,248.217636 178.681244,249.680176 179.749374,249.747147 
	C181.137558,249.834213 183.382553,249.199722 183.877441,248.195236 
	C185.446167,245.011154 183.187149,238.307312 180.213486,235.926956 
	C176.669373,233.089951 173.392929,234.396713 169.585159,237.065689 
M202.001480,312.319153 
	C201.205246,311.815491 200.409027,311.311798 198.541245,310.130310 
	C198.815033,313.994537 197.992035,318.618256 199.399979,319.445618 
	C205.571335,323.072266 209.469498,327.599304 211.413925,334.670837 
	C212.206757,337.554169 216.277176,339.536255 218.867691,341.938843 
	C220.773605,338.115631 219.719604,334.502930 217.391541,330.935699 
	C216.328659,329.307129 215.006012,327.456390 214.924576,325.655579 
	C214.716263,321.049347 212.497528,318.347870 208.478531,316.525238 
	C206.379669,315.573395 204.530594,314.070801 202.001480,312.319153 
M196.996552,298.748352 
	C200.173798,298.748352 203.351044,298.748352 206.519852,298.748352 
	C205.844254,291.971954 204.156769,290.613922 197.187195,289.991333 
	C192.450287,289.568207 187.777176,288.430664 182.222855,287.464233 
	C179.020233,291.302185 180.114334,296.225159 186.294128,297.954346 
	C189.410614,298.826385 192.843658,298.567078 196.996552,298.748352 
M159.125092,229.205841 
	C159.148941,226.883224 159.172791,224.560608 159.196640,222.237976 
	C156.698898,222.699341 153.962311,222.680008 151.775314,223.766754 
	C149.857651,224.719666 148.187256,226.698746 147.073914,228.612213 
	C145.574234,231.189636 146.416626,233.443481 149.773911,232.981857 
	C153.267822,232.501404 154.843384,234.204681 156.313385,236.870117 
	C157.871140,239.694717 159.749985,242.342239 161.698166,245.395508 
	C164.500336,241.591141 165.051056,238.462570 162.297104,235.067642 
	C161.060699,233.543411 160.226837,231.692612 159.125092,229.205841 
M197.690063,302.030731 
	C200.379013,308.421539 204.724808,312.943695 212.734009,315.172913 
	C210.348312,311.305450 208.343063,308.484222 206.791870,305.432220 
	C204.821014,301.554535 201.999680,300.125397 197.690063,302.030731 
M193.771439,284.656250 
	C191.754807,280.269958 188.466110,278.470490 183.407990,279.307587 
	C185.367691,283.836609 187.455582,287.563324 192.708298,287.413452 
	C193.193680,287.399628 193.640060,286.019165 193.771439,284.656250 
M176.433060,257.228607 
	C176.164246,257.066254 175.906052,256.879700 175.620926,256.754486 
	C175.519714,256.710022 175.251312,256.785095 175.230652,256.855743 
	C174.150192,260.548126 176.039124,263.454224 180.979767,264.850739 
	C179.428665,262.208710 178.132278,260.000519 176.433060,257.228607 
z"/>
<path fill="#2C302D" opacity="1.000000" stroke="none" 
	d="
M32.938545,238.824203 
	C33.862881,236.114502 34.661327,233.773911 35.653248,230.866150 
	C44.684631,230.866150 53.946278,230.866150 63.429115,230.866150 
	C63.817642,228.022629 64.135948,225.693054 64.454247,223.363464 
	C64.989761,223.296997 65.525269,223.230530 66.060783,223.164062 
	C66.539734,225.464005 67.018684,227.763962 67.663841,230.862045 
	C74.686928,230.862045 81.962791,231.022247 89.227188,230.802917 
	C93.698586,230.667908 96.050407,231.081955 97.717819,236.645203 
	C100.850777,247.098175 106.066643,256.929199 110.450279,267.004120 
	C113.327904,273.617737 112.513962,279.067932 107.689880,283.947357 
	C102.610359,289.085205 96.518700,290.347870 89.787109,288.003052 
	C83.675117,285.874054 79.056404,279.669586 79.115540,273.641418 
	C79.134216,271.737457 79.857384,269.753204 80.617905,267.958130 
	C85.013306,257.583374 89.516388,247.254227 94.218803,236.363571 
	C84.953026,236.363571 76.413879,236.363571 68.150124,236.363571 
	C68.150124,243.813614 67.943115,251.079163 68.193489,258.328918 
	C68.704666,273.130646 69.638237,287.919403 70.015038,302.723236 
	C70.134552,307.418884 71.497360,309.625488 76.366165,308.879639 
	C77.179939,308.754974 78.034195,308.921570 78.861588,308.853851 
	C81.438446,308.643066 82.961418,309.342926 82.882828,312.382996 
	C82.804482,315.413483 81.134445,315.959869 78.650482,315.883331 
	C76.354424,315.812592 74.054466,315.868256 71.385910,315.868256 
	C71.385910,320.292542 71.385910,324.196686 71.385910,328.416931 
	C73.004478,328.806885 74.552177,329.179779 76.422943,329.630524 
	C77.375648,334.121399 75.430878,337.623413 72.146294,340.383026 
	C68.843803,343.157745 64.946831,343.861359 60.943512,341.891296 
	C56.103584,339.509552 54.165943,335.372589 54.034264,330.234894 
	C60.004864,327.823608 60.841942,325.614624 59.309406,315.868042 
	C56.846077,315.868042 54.244740,315.784241 51.651382,315.892181 
	C49.173771,315.995300 47.984642,315.142609 48.017147,312.468719 
	C48.046982,310.014526 48.771919,308.964417 51.434853,308.805389 
	C59.899918,308.299896 60.049057,308.198700 60.700603,299.599731 
	C61.228462,292.633179 61.326496,285.633881 61.608131,278.648834 
	C62.170002,264.713501 62.727036,250.777924 63.302876,236.423599 
	C54.327591,236.423599 45.972157,236.423599 37.035816,236.423599 
	C41.640003,247.138031 46.114349,257.479523 50.528084,267.846802 
	C53.394863,274.580505 51.431103,281.398163 45.427734,285.902100 
	C39.879448,290.064606 31.321737,290.118225 25.757582,286.025299 
	C19.598913,281.495056 17.407604,274.659271 20.231749,268.032318 
	C24.343327,258.384338 28.611343,248.803040 32.938545,238.824203 
M38.312256,246.238998 
	C37.485516,244.373077 36.658779,242.507172 35.426697,239.726410 
	C30.675127,250.589584 26.378801,260.411957 21.894148,270.664917 
	C31.229183,270.664917 39.856327,270.664917 49.085896,270.664917 
	C45.433598,262.358673 42.036274,254.632294 38.312256,246.238998 
M91.231506,249.781342 
	C88.265007,256.678497 85.298515,263.575653 82.250877,270.661499 
	C91.566162,270.661499 100.067390,270.661499 109.339813,270.661499 
	C104.762756,260.239288 100.471802,250.468552 95.803810,239.839279 
	C94.115936,243.503433 92.828323,246.298691 91.231506,249.781342 
M23.887524,280.356415 
	C28.699530,285.880341 34.349209,287.721588 40.256500,285.691132 
	C45.363869,283.935638 48.653893,279.523987 48.782349,274.293854 
	C39.871880,274.293854 30.963161,274.293854 21.483675,274.293854 
	C22.226931,276.389374 22.820620,278.063202 23.887524,280.356415 
M105.328194,274.020172 
	C97.599892,274.020172 89.871590,274.020172 82.050941,274.020172 
	C83.437233,282.129242 88.977608,286.733063 96.314728,286.408783 
	C103.414696,286.094971 108.396721,281.441925 109.141014,274.202576 
	C108.181076,274.141479 107.229637,274.080933 105.328194,274.020172 
M66.119896,268.550842 
	C66.119896,266.891907 66.119896,265.232971 66.119896,263.574036 
	C65.689270,263.581177 65.258652,263.588287 64.828026,263.595428 
	C64.149078,278.565918 63.470123,293.536438 62.774837,308.867126 
	C64.884560,308.736816 66.269981,308.651276 68.001289,308.544342 
	C67.373032,295.273193 66.761925,282.364349 66.119896,268.550842 
M61.613037,339.299469 
	C68.788284,341.293213 72.327629,339.230133 73.689011,332.169556 
	C68.174736,332.169556 62.683815,332.169556 55.787235,332.169556 
	C57.913422,334.985962 59.405918,336.962952 61.613037,339.299469 
M58.583397,313.120453 
	C62.237457,313.120453 65.891518,313.120453 69.545578,313.120453 
	C72.986710,313.120453 76.427841,313.120453 79.868973,313.120453 
	C79.846146,312.650848 79.823311,312.181274 79.800476,311.711670 
	C70.234428,311.711670 60.668385,311.711670 51.102337,311.711670 
	C51.087475,312.181274 51.072613,312.650848 51.057755,313.120453 
	C53.241154,313.120453 55.424557,313.120453 58.583397,313.120453 
M73.631104,234.314682 
	C77.275764,234.314682 80.920418,234.314667 84.565079,234.314667 
	C87.938431,234.314651 91.311783,234.314667 94.685127,234.314667 
	C94.662262,233.798492 94.639389,233.282318 94.616524,232.766144 
	C85.503304,232.766144 76.390083,232.766144 67.276871,232.766144 
	C67.250847,233.190414 67.224831,233.614700 67.198814,234.038971 
	C69.024734,234.130890 70.850655,234.222794 73.631104,234.314682 
M61.860271,232.231094 
	C53.367233,232.231094 44.874195,232.231094 36.381157,232.231094 
	C36.392998,232.890366 36.404835,233.549637 36.416672,234.208908 
	C45.110878,234.208908 53.805130,234.214188 62.498550,234.131836 
	C62.582642,234.131042 62.655720,232.967300 61.860271,232.231094 
z"/>
<path fill="#342B2C" opacity="1.000000" stroke="none" 
	d="
M100.168060,437.901550 
	C109.094574,450.901367 105.872536,464.999634 91.096230,474.886505 
	C96.523323,474.886505 100.941261,474.886505 105.956589,474.886505 
	C105.956589,481.191742 105.956589,486.798187 105.956589,492.404602 
	C105.956589,498.011841 105.956589,503.619080 105.956589,509.526978 
	C101.261414,509.526978 97.170540,509.526978 92.340225,509.526978 
	C92.340225,502.795258 92.340225,496.086395 92.340225,488.651154 
	C80.534027,488.651154 69.448990,488.651154 58.363960,488.651154 
	C47.413071,488.651154 36.462177,488.651154 24.881035,488.651154 
	C25.457481,482.980438 23.616425,478.114258 27.545948,472.931335 
	C30.700348,468.770721 31.402992,462.766968 33.268318,457.608124 
	C34.604973,453.911438 35.321793,449.229095 40.490612,449.294586 
	C45.635048,449.359741 46.249859,454.111176 47.600540,457.770844 
	C49.269382,462.292542 50.867764,466.846008 52.299904,471.446991 
	C53.096909,474.007507 54.307434,475.268860 57.231579,475.097321 
	C61.687519,474.835938 66.170105,475.028839 71.913406,475.028839 
	C62.705647,469.851868 57.815987,462.895538 57.374561,453.429230 
	C57.059227,446.667114 59.444557,440.588074 64.188072,435.745514 
	C72.961441,426.789093 90.214165,425.208893 100.168060,437.901550 
M91.492752,477.711090 
	C70.215828,477.711090 48.938904,477.711090 27.456413,477.711090 
	C27.456413,480.676300 27.456413,483.077026 27.456413,486.088684 
	C50.058811,486.088684 72.424004,486.088684 95.196716,486.088684 
	C95.196716,493.451477 95.196716,500.205780 95.196716,506.809479 
	C98.051414,506.809479 100.481102,506.809479 102.848083,506.809479 
	C102.848083,496.971680 102.848083,487.420959 102.848083,477.711090 
	C99.143547,477.711090 95.817490,477.711090 91.492752,477.711090 
M80.300415,431.163422 
	C78.564095,431.526031 76.827766,431.888641 75.091446,432.251251 
	C78.213722,432.870850 81.401726,432.905090 81.021751,437.383881 
	C80.750671,440.579102 75.902992,443.848083 71.236382,443.774109 
	C71.437576,447.809967 73.662086,449.650787 77.332169,451.052216 
	C86.282791,454.469910 86.948395,458.016907 81.178627,465.397736 
	C79.520126,467.519287 79.003975,470.533875 77.808762,473.528107 
	C84.693817,474.681854 89.572601,472.742065 94.209320,469.422150 
	C99.869080,465.369659 100.636192,459.657166 99.929199,453.462555 
	C99.825638,452.555206 98.364410,451.066162 97.570877,451.091370 
	C91.485268,451.284485 91.978203,447.074554 92.291115,443.264282 
	C92.499222,440.730133 93.393898,438.252350 94.419724,433.880951 
	C87.643784,439.320160 84.232033,436.379333 81.474792,431.518768 
	C81.407478,431.400116 81.184807,431.369598 80.300415,431.163422 
M60.899979,458.310516 
	C62.691883,464.456177 66.092026,469.178101 73.893044,472.312775 
	C72.099190,464.282410 70.614548,457.511261 69.018951,450.766357 
	C68.909111,450.302032 67.996002,449.984985 67.413109,449.683167 
	C65.408493,448.645203 63.384609,447.644409 60.141373,446.012054 
	C60.346386,450.480286 60.507935,454.001221 60.899979,458.310516 
M47.339760,471.142273 
	C45.106564,468.164398 42.873363,465.186554 40.357899,461.832306 
	C37.030956,466.347809 34.131729,470.282806 30.915430,474.648132 
	C37.593803,474.648132 43.402359,474.648132 49.691971,474.648132 
	C48.837593,473.336609 48.306198,472.520905 47.339760,471.142273 
M74.738564,460.894104 
	C75.237061,462.849335 75.735550,464.804565 76.485199,467.744934 
	C78.687386,463.958893 82.287697,460.504944 81.725510,457.976501 
	C81.147934,455.378906 76.505188,453.685211 73.641426,451.595917 
	C72.959267,452.127838 72.277107,452.659760 71.594948,453.191650 
	C72.486702,455.547089 73.378448,457.902496 74.738564,460.894104 
M75.112282,440.502502 
	C76.261101,439.236328 77.409920,437.970154 78.930046,436.294739 
	C76.335487,435.864777 74.433296,435.720947 72.633270,435.214233 
	C69.285088,434.271667 64.554329,437.137543 63.469090,441.190247 
	C62.243462,445.767212 66.058800,445.712433 68.160370,447.107910 
	C68.484833,444.261993 68.744148,441.987396 69.003471,439.712830 
	C70.823929,440.113953 72.644386,440.515076 75.112282,440.502502 
M100.387878,443.311829 
	C99.246719,441.595703 98.105560,439.879578 96.964401,438.163452 
	C96.582947,438.243103 96.201500,438.322754 95.820045,438.402405 
	C95.497498,441.579407 95.174942,444.756409 94.828140,448.172272 
	C97.675728,448.037781 99.634262,447.945312 101.881989,447.839172 
	C101.475792,446.427246 101.122520,445.199280 100.387878,443.311829 
M40.442329,458.313629 
	C41.522194,457.131775 42.936863,456.084564 43.496395,454.693390 
	C43.686752,454.220123 41.792595,452.233521 40.724430,452.119080 
	C39.660313,452.005066 37.407799,453.514679 37.483566,454.062378 
	C37.684753,455.516693 38.860878,456.836151 40.442329,458.313629 
z"/>
<path fill="#302121" opacity="1.000000" stroke="none" 
	d="
M46.477638,430.446838 
	C49.147079,437.664917 51.816525,444.883026 54.485966,452.101105 
	C53.797859,452.355072 53.109753,452.609070 52.421642,452.863037 
	C45.677197,435.937164 38.932751,419.011292 32.188305,402.085419 
	C30.686796,400.230194 27.161963,406.229218 27.365936,400.425232 
	C28.048466,400.043335 28.390837,400.043396 29.107893,400.322357 
	C31.430847,400.408569 33.379116,400.215912 34.979866,400.057617 
	C35.819439,398.445984 36.769470,396.622284 37.968216,395.005249 
	C38.391838,395.337891 38.566753,395.463898 38.741669,395.589935 
	C39.620537,396.835632 40.224781,398.538849 41.420544,399.256561 
	C54.101017,406.867828 66.881424,414.312408 79.615120,421.835388 
	C80.900017,422.594513 82.059174,423.566467 83.276672,424.439667 
	C82.946770,424.988586 82.616859,425.537506 82.286949,426.086426 
	C76.855659,423.007477 71.424370,419.928528 65.415344,416.536377 
	C64.070129,416.163483 63.302658,416.103760 61.389866,415.954895 
	C63.009403,416.909546 63.644520,417.283905 64.279633,417.658295 
	C65.815491,419.048553 67.351341,420.438843 68.887199,421.829102 
	C68.629204,422.254425 68.371216,422.679749 68.113220,423.105042 
	C65.512825,421.701111 62.912426,420.297150 59.756180,418.593109 
	C59.825722,420.090240 59.868717,421.015961 59.953747,422.846558 
	C57.659180,421.267670 55.983898,420.114899 54.267406,418.933777 
	C53.211369,419.902252 52.206768,420.823547 50.971363,421.956512 
	C52.019077,423.947662 53.101688,426.005127 54.184299,428.062592 
	C53.919704,428.302216 53.655113,428.541870 53.390518,428.781494 
	C52.215336,428.240051 51.040154,427.698608 49.106571,426.807739 
	C51.186729,431.049072 52.987186,434.720093 54.787640,438.391144 
	C54.326687,438.654205 53.865734,438.917297 53.404781,439.180389 
	C50.374546,437.059662 49.823643,433.087585 47.470505,429.700287 
	C46.654312,428.824249 46.159203,428.469421 44.684193,427.412292 
	C45.711514,429.150543 46.094574,429.798706 46.477638,430.446838 
z"/>
<path fill="#4C3232" opacity="1.000000" stroke="none" 
	d="
M28.733208,400.043457 
	C28.390837,400.043396 28.048466,400.043335 27.449497,400.030579 
	C26.118948,397.759552 25.044998,395.501190 24.316488,393.969269 
	C27.032742,392.023285 29.879572,389.983795 32.833462,387.867584 
	C33.469330,388.839233 34.523365,390.449829 35.808132,392.606445 
	C36.026016,393.380798 36.013161,393.609131 35.646294,393.884827 
	C34.258183,393.035461 33.224083,392.138702 32.413380,391.435699 
	C30.859175,392.538300 29.183840,393.726837 28.022943,394.550415 
	C28.272646,396.481567 28.502928,398.262512 28.733208,400.043457 
z"/>
<path fill="#302121" opacity="1.000000" stroke="none" 
	d="
M36.000305,393.837463 
	C36.013161,393.609131 36.026016,393.380798 36.054775,392.809082 
	C37.501709,392.681702 38.932732,392.897797 40.957272,393.203522 
	C40.188770,394.117676 39.718857,394.676636 38.995308,395.412781 
	C38.566753,395.463898 38.391838,395.337891 37.835014,394.784760 
	C36.968838,394.184235 36.484570,394.010864 36.000305,393.837463 
z"/>
<path fill="#302C29" opacity="1.000000" stroke="none" 
	d="
M187.144363,400.178558 
	C196.433990,404.114075 199.577835,406.973724 198.934845,417.707367 
	C204.653137,418.916260 210.626343,419.566284 216.087967,421.594177 
	C218.787064,422.596375 222.189850,424.579651 222.046448,429.108368 
	C221.751312,438.429688 222.101517,447.770111 221.892303,457.096100 
	C221.809586,460.783173 222.750031,463.150177 226.577087,464.061920 
	C228.500977,464.520233 230.577682,465.128937 232.081390,466.310760 
	C233.302155,467.270264 234.098892,469.104126 234.497696,470.696960 
	C235.113510,473.156403 235.228912,475.741119 235.556564,478.272736 
	C236.054199,478.377411 236.551849,478.482086 237.049500,478.586761 
	C231.974640,484.257355 226.925705,489.951477 221.813324,495.587982 
	C219.463776,498.178467 216.536591,500.364044 214.675858,503.251678 
	C211.693832,507.879364 208.415161,508.462219 203.305328,506.759308 
	C183.729065,500.235321 163.993271,494.191315 144.337082,487.905396 
	C137.134293,485.601990 135.547318,478.555634 140.549500,472.733002 
	C144.278488,468.392395 147.699951,463.773132 151.028259,459.113586 
	C151.801102,458.031677 151.840866,456.285034 151.868668,454.837555 
	C151.964584,449.840790 152.371689,444.786102 151.789642,439.856262 
	C151.046432,433.561279 153.350739,428.590393 157.031952,423.958954 
	C157.687851,423.133759 158.787003,422.406158 159.805313,422.172119 
	C162.712860,421.503845 165.698669,421.184601 168.626236,420.592346 
	C171.388916,420.033447 174.116730,419.302216 176.142242,418.818268 
	C176.811661,414.915680 176.557266,410.753967 178.305984,407.763672 
	C180.119415,404.662689 183.873154,402.696381 187.144363,400.178558 
M209.907990,491.733307 
	C209.825912,491.342651 209.743851,490.952026 209.661789,490.561401 
	C209.171936,490.876526 208.682083,491.191650 207.699570,492.073761 
	C207.804092,492.419983 207.908630,492.766174 208.013168,493.112427 
	C208.429932,492.829956 208.846680,492.547485 209.907990,491.733307 
M213.027008,488.540710 
	C219.093201,482.044220 225.159409,475.547729 231.225616,469.051239 
	C230.667862,468.537964 230.110092,468.024719 229.552338,467.511444 
	C223.251221,473.901123 217.399673,480.727753 211.123016,488.128265 
	C211.142700,488.568665 211.162399,489.009064 211.182098,489.449493 
	C211.603317,489.279449 212.024551,489.109406 213.027008,488.540710 
M188.768845,485.788727 
	C189.212204,482.433777 189.655563,479.078796 190.774353,475.941132 
	C191.519958,476.895599 192.736740,477.766968 192.922592,478.820221 
	C193.475235,481.952118 193.622375,485.155548 193.979843,488.869812 
	C190.294357,490.308899 190.491730,494.524017 191.354691,498.110657 
	C191.745209,499.733765 194.827499,500.990784 196.919174,501.857391 
	C200.096298,503.173615 203.474228,504.005157 206.957672,505.102692 
	C207.284225,500.643921 207.580231,496.602478 207.849258,492.929474 
	C205.447144,491.901123 203.259186,490.964478 201.007477,490.000214 
	C201.007477,490.000214 201.036880,490.062714 201.894440,489.984253 
	C205.223938,490.015778 204.449875,487.530609 204.334518,485.720001 
	C203.913239,479.107178 205.924026,474.174988 212.681549,471.754272 
	C215.215179,470.846680 217.429199,469.046814 219.788925,467.653748 
	C219.688034,467.211731 219.587128,466.769745 219.486237,466.327728 
	C202.993835,466.327728 186.495895,466.129578 170.016388,466.590363 
	C168.060242,466.645050 165.376205,469.984863 164.472488,472.352631 
	C162.497375,477.527527 166.547775,479.286346 171.861237,480.522522 
	C165.774231,481.696533 166.340500,485.442627 166.066650,488.940948 
	C165.776886,492.642822 168.631989,492.707520 170.840210,493.484131 
	C173.488617,494.415558 176.211273,495.135925 179.486526,496.243530 
	C180.390930,496.700165 181.295334,497.156799 182.199738,497.613434 
	C182.589218,497.286255 182.978699,496.959076 183.368164,496.631897 
	C181.999069,494.740204 180.629959,492.848511 179.229630,490.286804 
	C179.554703,489.220337 179.879776,488.153839 180.625885,487.425934 
	C182.112152,488.351746 183.598434,489.277588 185.463852,490.439575 
	C186.300186,488.981964 187.151993,487.497406 188.768845,485.788727 
M188.139008,426.008118 
	C188.139008,437.549835 188.139008,449.091522 188.139008,459.654419 
	C197.309052,460.389160 205.937759,461.080566 214.437714,461.761627 
	C214.437714,449.181671 214.437714,436.943115 214.437714,425.027161 
	C211.056152,423.745972 208.144409,422.618225 205.215088,421.538147 
	C199.616394,419.473755 190.827515,421.330414 188.139008,426.008118 
M159.427963,451.458618 
	C159.427963,454.906403 159.427963,458.354187 159.427963,461.779663 
	C168.559540,461.025757 177.192337,460.313019 186.623520,459.534393 
	C186.623520,449.160461 186.451584,438.221100 186.723190,427.292786 
	C186.810181,423.792908 185.367569,422.035553 182.377365,422.218658 
	C174.729401,422.687073 167.110596,423.631073 159.425674,424.390228 
	C159.425674,433.877563 159.425674,442.173309 159.427963,451.458618 
M231.014359,481.582489 
	C235.048401,478.123199 228.759384,477.589386 229.550598,474.994354 
	C223.995468,480.501160 219.172714,486.239441 213.722595,491.302338 
	C209.783463,494.961639 209.400192,498.872589 210.419724,504.155670 
	C217.404999,496.493958 223.970154,489.293091 231.014359,481.582489 
M194.245834,416.185120 
	C193.605972,416.069183 192.966125,415.953247 192.247726,415.823090 
	C195.528366,412.093536 193.082214,403.920837 188.438248,403.113464 
	C187.402115,402.933380 185.339203,403.785095 185.141953,404.530396 
	C184.435104,407.201355 179.653870,407.777557 181.500916,411.663361 
	C181.533661,411.732178 180.623642,412.249176 179.920563,412.709656 
	C181.272354,413.726013 182.434891,414.600098 183.776627,415.608917 
	C182.464600,415.960938 181.415024,416.242523 180.262787,416.551636 
	C185.127411,421.434875 190.125320,421.410095 194.245834,416.185120 
M140.867050,477.187744 
	C140.304016,484.614380 142.392075,486.296631 153.522095,487.472534 
	C153.900940,484.083923 154.279587,480.697021 154.659256,477.301025 
	C151.359741,475.996552 148.019592,474.675995 144.125839,473.136597 
	C143.577194,473.747223 142.367874,475.093201 140.867050,477.187744 
M210.352463,475.977448 
	C204.943817,478.971893 207.631317,483.655945 207.997803,487.932495 
	C213.069656,482.130890 218.141525,476.329315 223.213379,470.527710 
	C222.934357,470.112549 222.655319,469.697388 222.376282,469.282227 
	C218.592102,471.398743 214.807907,473.515289 210.352463,475.977448 
M156.992371,432.319305 
	C156.817368,431.770874 156.642349,431.222443 156.467346,430.674011 
	C155.712311,431.768646 154.324951,432.849884 154.301422,433.960022 
	C154.097992,443.562744 154.101730,453.170990 154.175507,462.776550 
	C154.181976,463.619293 155.126755,464.454773 155.635727,465.293640 
	C156.088593,465.141296 156.541443,464.988953 156.994308,464.836578 
	C156.994308,454.282837 156.994308,443.729065 156.992371,432.319305 
M152.244583,467.519775 
	C151.993454,465.993652 151.742340,464.467560 151.469467,462.809296 
	C146.972824,464.644012 147.315659,468.424103 148.243378,471.561859 
	C148.690979,473.075745 151.550644,473.876495 153.318130,475.000122 
	C153.779938,474.611877 154.241745,474.223633 154.703552,473.835358 
	C154.142120,471.849335 153.580704,469.863281 152.244583,467.519775 
M162.704056,480.542938 
	C161.837097,480.254456 160.322250,479.550690 160.200851,479.740082 
	C158.504776,482.386047 156.999069,485.154022 155.451828,487.883759 
	C157.570419,488.804382 159.109863,489.473328 160.690887,490.160370 
	C161.267868,486.979248 161.790146,484.099640 162.704056,480.542938 
M218.075348,433.204102 
	C218.075348,443.404205 218.075348,453.604309 218.075348,463.804443 
	C218.251236,463.801331 218.427109,463.798218 218.602997,463.795105 
	C218.602997,453.375092 218.602997,442.955048 218.075348,433.204102 
z"/>
<path fill="#F8F8F8" opacity="1.000000" stroke="none" 
	d="
M169.890350,236.852081 
	C173.392929,234.396713 176.669373,233.089951 180.213486,235.926956 
	C183.187149,238.307312 185.446167,245.011154 183.877441,248.195236 
	C183.382553,249.199722 181.137558,249.834213 179.749374,249.747147 
	C178.681244,249.680176 177.700668,248.217636 176.561844,247.277161 
	C172.500885,251.343369 171.481491,256.108063 172.939224,261.495544 
	C174.315704,266.582672 178.609634,267.563385 182.926300,268.401184 
	C184.713058,268.747955 186.540054,268.937805 188.358109,269.064087 
	C196.056900,269.598938 197.615143,272.120209 194.893021,278.780212 
	C190.874542,277.831238 186.913223,275.953796 183.065536,276.163300 
	C171.416855,276.797516 165.335007,272.116302 163.614044,258.534637 
	C162.630844,250.775406 164.561859,243.378510 169.890350,236.852081 
z"/>
<path fill="#F4F4F4" opacity="1.000000" stroke="none" 
	d="
M202.285095,312.568054 
	C204.530594,314.070801 206.379669,315.573395 208.478531,316.525238 
	C212.497528,318.347870 214.716263,321.049347 214.924576,325.655579 
	C215.006012,327.456390 216.328659,329.307129 217.391541,330.935699 
	C219.719604,334.502930 220.773605,338.115631 218.867691,341.938843 
	C216.277176,339.536255 212.206757,337.554169 211.413925,334.670837 
	C209.469498,327.599304 205.571335,323.072266 199.399979,319.445618 
	C197.992035,318.618256 198.815033,313.994537 198.541245,310.130310 
	C200.409027,311.311798 201.205246,311.815491 202.285095,312.568054 
z"/>
<path fill="#F6F6F6" opacity="1.000000" stroke="none" 
	d="
M196.565063,298.783875 
	C192.843658,298.567078 189.410614,298.826385 186.294128,297.954346 
	C180.114334,296.225159 179.020233,291.302185 182.222855,287.464233 
	C187.777176,288.430664 192.450287,289.568207 197.187195,289.991333 
	C204.156769,290.613922 205.844254,291.971954 206.519852,298.748352 
	C203.351044,298.748352 200.173798,298.748352 196.565063,298.783875 
z"/>
<path fill="#E83330" opacity="1.000000" stroke="none" 
	d="
M159.167709,229.597931 
	C160.226837,231.692612 161.060699,233.543411 162.297104,235.067642 
	C165.051056,238.462570 164.500336,241.591141 161.698166,245.395508 
	C159.749985,242.342239 157.871140,239.694717 156.313385,236.870117 
	C154.843384,234.204681 153.267822,232.501404 149.773911,232.981857 
	C146.416626,233.443481 145.574234,231.189636 147.073914,228.612213 
	C148.187256,226.698746 149.857651,224.719666 151.775314,223.766754 
	C153.962311,222.680008 156.698898,222.699341 159.196640,222.237976 
	C159.172791,224.560608 159.148941,226.883224 159.167709,229.597931 
z"/>
<path fill="#E43330" opacity="1.000000" stroke="none" 
	d="
M197.762329,301.685303 
	C201.999680,300.125397 204.821014,301.554535 206.791870,305.432220 
	C208.343063,308.484222 210.348312,311.305450 212.734009,315.172913 
	C204.724808,312.943695 200.379013,308.421539 197.762329,301.685303 
z"/>
<path fill="#E13330" opacity="1.000000" stroke="none" 
	d="
M193.937988,284.964752 
	C193.640060,286.019165 193.193680,287.399628 192.708298,287.413452 
	C187.455582,287.563324 185.367691,283.836609 183.407990,279.307587 
	C188.466110,278.470490 191.754807,280.269958 193.937988,284.964752 
z"/>
<path fill="#DB322F" opacity="1.000000" stroke="none" 
	d="
M227.800354,341.213562 
	C224.191528,339.793610 222.133881,337.382141 221.235596,333.387543 
	C220.627594,330.683868 218.495621,328.322937 216.966156,325.671570 
	C220.330078,326.141388 220.344330,326.159668 228.222839,340.381378 
	C228.146271,340.871033 227.800354,341.213562 227.800354,341.213562 
z"/>
<path fill="#D9322F" opacity="1.000000" stroke="none" 
	d="
M176.634476,257.510498 
	C178.132278,260.000519 179.428665,262.208710 180.979767,264.850739 
	C176.039124,263.454224 174.150192,260.548126 175.230652,256.855743 
	C175.251312,256.785095 175.519714,256.710022 175.620926,256.754486 
	C175.906052,256.879700 176.164246,257.066254 176.634476,257.510498 
z"/>
<path fill="#DB322F" opacity="1.000000" stroke="none" 
	d="
M229.013397,341.965820 
	C228.704407,341.853363 228.395416,341.740936 227.943390,341.421021 
	C227.800354,341.213562 228.146271,340.871033 228.335114,340.711761 
	C228.697067,340.866486 228.870163,341.180481 229.015228,341.748901 
	C228.987198,342.003326 229.013397,341.965790 229.013397,341.965820 
z"/>
<path fill="#DB322F" opacity="1.000000" stroke="none" 
	d="
M228.969910,342.018463 
	C229.089249,342.133453 229.225861,342.233276 229.362473,342.333130 
	C229.286453,342.291901 229.210449,342.250702 229.073914,342.087646 
	C229.013397,341.965790 228.987198,342.003326 228.969910,342.018463 
z"/>
<path fill="#249E6A" opacity="1.000000" stroke="none" 
	d="
M38.475605,246.572464 
	C42.036274,254.632294 45.433598,262.358673 49.085896,270.664917 
	C39.856327,270.664917 31.229183,270.664917 21.894148,270.664917 
	C26.378801,260.411957 30.675127,250.589584 35.426697,239.726410 
	C36.658779,242.507172 37.485516,244.373077 38.475605,246.572464 
z"/>
<path fill="#249E6A" opacity="1.000000" stroke="none" 
	d="
M91.386108,249.437653 
	C92.828323,246.298691 94.115936,243.503433 95.803810,239.839279 
	C100.471802,250.468552 104.762756,260.239288 109.339813,270.661499 
	C100.067390,270.661499 91.566162,270.661499 82.250877,270.661499 
	C85.298515,263.575653 88.265007,256.678497 91.386108,249.437653 
z"/>
<path fill="#FCFCFC" opacity="1.000000" stroke="none" 
	d="
M23.650917,280.046722 
	C22.820620,278.063202 22.226931,276.389374 21.483675,274.293854 
	C30.963161,274.293854 39.871880,274.293854 48.782349,274.293854 
	C48.653893,279.523987 45.363869,283.935638 40.256500,285.691132 
	C34.349209,287.721588 28.699530,285.880341 23.650917,280.046722 
z"/>
<path fill="#FBFBFB" opacity="1.000000" stroke="none" 
	d="
M105.803192,274.020264 
	C107.229637,274.080933 108.181076,274.141479 109.141014,274.202576 
	C108.396721,281.441925 103.414696,286.094971 96.314728,286.408783 
	C88.977608,286.733063 83.437233,282.129242 82.050941,274.020172 
	C89.871590,274.020172 97.599892,274.020172 105.803192,274.020264 
z"/>
<path fill="#EAEAEA" opacity="1.000000" stroke="none" 
	d="
M66.135361,269.003174 
	C66.761925,282.364349 67.373032,295.273193 68.001289,308.544342 
	C66.269981,308.651276 64.884560,308.736816 62.774837,308.867126 
	C63.470123,293.536438 64.149078,278.565918 64.828026,263.595428 
	C65.258652,263.588287 65.689270,263.581177 66.119896,263.574036 
	C66.119896,265.232971 66.119896,266.891907 66.135361,269.003174 
z"/>
<path fill="#FAFAFA" opacity="1.000000" stroke="none" 
	d="
M61.255726,339.119690 
	C59.405918,336.962952 57.913422,334.985962 55.787235,332.169556 
	C62.683815,332.169556 68.174736,332.169556 73.689011,332.169556 
	C72.327629,339.230133 68.788284,341.293213 61.255726,339.119690 
z"/>
<path fill="#E2E1E2" opacity="1.000000" stroke="none" 
	d="
M58.095676,313.120453 
	C55.424557,313.120453 53.241154,313.120453 51.057755,313.120453 
	C51.072613,312.650848 51.087475,312.181274 51.102337,311.711670 
	C60.668385,311.711670 70.234428,311.711670 79.800476,311.711670 
	C79.823311,312.181274 79.846146,312.650848 79.868973,313.120453 
	C76.427841,313.120453 72.986710,313.120453 69.545578,313.120453 
	C65.891518,313.120453 62.237457,313.120453 58.095676,313.120453 
z"/>
<path fill="#D1D0D1" opacity="1.000000" stroke="none" 
	d="
M73.153839,234.314697 
	C70.850655,234.222794 69.024734,234.130890 67.198814,234.038971 
	C67.224831,233.614700 67.250847,233.190414 67.276871,232.766144 
	C76.390083,232.766144 85.503304,232.766144 94.616524,232.766144 
	C94.639389,233.282318 94.662262,233.798492 94.685127,234.314667 
	C91.311783,234.314667 87.938431,234.314651 84.565079,234.314667 
	C80.920418,234.314667 77.275764,234.314682 73.153839,234.314697 
z"/>
<path fill="#D2D1D2" opacity="1.000000" stroke="none" 
	d="
M62.297104,232.288788 
	C62.655720,232.967300 62.582642,234.131042 62.498550,234.131836 
	C53.805130,234.214188 45.110878,234.208908 36.416672,234.208908 
	C36.404835,233.549637 36.392998,232.890366 36.381157,232.231094 
	C44.874195,232.231094 53.367233,232.231094 62.297104,232.288788 
z"/>
<path fill="#FDFDFD" opacity="1.000000" stroke="none" 
	d="
M91.992096,477.711090 
	C95.817490,477.711090 99.143547,477.711090 102.848083,477.711090 
	C102.848083,487.420959 102.848083,496.971680 102.848083,506.809479 
	C100.481102,506.809479 98.051414,506.809479 95.196716,506.809479 
	C95.196716,500.205780 95.196716,493.451477 95.196716,486.088684 
	C72.424004,486.088684 50.058811,486.088684 27.456413,486.088684 
	C27.456413,483.077026 27.456413,480.676300 27.456413,477.711090 
	C48.938904,477.711090 70.215828,477.711090 91.992096,477.711090 
z"/>
<path fill="#2A417C" opacity="1.000000" stroke="none" 
	d="
M80.667511,431.230682 
	C81.184807,431.369598 81.407478,431.400116 81.474792,431.518768 
	C84.232033,436.379333 87.643784,439.320160 94.419724,433.880951 
	C93.393898,438.252350 92.499222,440.730133 92.291115,443.264282 
	C91.978203,447.074554 91.485268,451.284485 97.570877,451.091370 
	C98.364410,451.066162 99.825638,452.555206 99.929199,453.462555 
	C100.636192,459.657166 99.869080,465.369659 94.209320,469.422150 
	C89.572601,472.742065 84.693817,474.681854 77.808762,473.528107 
	C79.003975,470.533875 79.520126,467.519287 81.178627,465.397736 
	C86.948395,458.016907 86.282791,454.469910 77.332169,451.052216 
	C73.662086,449.650787 71.437576,447.809967 71.236382,443.774109 
	C75.902992,443.848083 80.750671,440.579102 81.021751,437.383881 
	C81.401726,432.905090 78.213722,432.870850 75.091446,432.251251 
	C76.827766,431.888641 78.564095,431.526031 80.667511,431.230682 
z"/>
<path fill="#2A417B" opacity="1.000000" stroke="none" 
	d="
M60.784729,457.916321 
	C60.507935,454.001221 60.346386,450.480286 60.141373,446.012054 
	C63.384609,447.644409 65.408493,448.645203 67.413109,449.683167 
	C67.996002,449.984985 68.909111,450.302032 69.018951,450.766357 
	C70.614548,457.511261 72.099190,464.282410 73.893044,472.312775 
	C66.092026,469.178101 62.691883,464.456177 60.784729,457.916321 
z"/>
<path fill="#EA3331" opacity="1.000000" stroke="none" 
	d="
M47.557281,471.423706 
	C48.306198,472.520905 48.837593,473.336609 49.691971,474.648132 
	C43.402359,474.648132 37.593803,474.648132 30.915430,474.648132 
	C34.131729,470.282806 37.030956,466.347809 40.357899,461.832306 
	C42.873363,465.186554 45.106564,468.164398 47.557281,471.423706 
z"/>
<path fill="#F3F3F3" opacity="1.000000" stroke="none" 
	d="
M74.504379,460.576019 
	C73.378448,457.902496 72.486702,455.547089 71.594948,453.191650 
	C72.277107,452.659760 72.959267,452.127838 73.641426,451.595917 
	C76.505188,453.685211 81.147934,455.378906 81.725510,457.976501 
	C82.287697,460.504944 78.687386,463.958893 76.485199,467.744934 
	C75.735550,464.804565 75.237061,462.849335 74.504379,460.576019 
z"/>
<path fill="#F2F2F2" opacity="1.000000" stroke="none" 
	d="
M74.788559,440.709351 
	C72.644386,440.515076 70.823929,440.113953 69.003471,439.712830 
	C68.744148,441.987396 68.484833,444.261993 68.160370,447.107910 
	C66.058800,445.712433 62.243462,445.767212 63.469090,441.190247 
	C64.554329,437.137543 69.285088,434.271667 72.633270,435.214233 
	C74.433296,435.720947 76.335487,435.864777 78.930046,436.294739 
	C77.409920,437.970154 76.261101,439.236328 74.788559,440.709351 
z"/>
<path fill="#F3F3F3" opacity="1.000000" stroke="none" 
	d="
M100.578568,443.641571 
	C101.122520,445.199280 101.475792,446.427246 101.881989,447.839172 
	C99.634262,447.945312 97.675728,448.037781 94.828140,448.172272 
	C95.174942,444.756409 95.497498,441.579407 95.820045,438.402405 
	C96.201500,438.322754 96.582947,438.243103 96.964401,438.163452 
	C98.105560,439.879578 99.246719,441.595703 100.578568,443.641571 
z"/>
<path fill="#EAD256" opacity="1.000000" stroke="none" 
	d="
M40.045765,458.261414 
	C38.860878,456.836151 37.684753,455.516693 37.483566,454.062378 
	C37.407799,453.514679 39.660313,452.005066 40.724430,452.119080 
	C41.792595,452.233521 43.686752,454.220123 43.496395,454.693390 
	C42.936863,456.084564 41.522194,457.131775 40.045765,458.261414 
z"/>
<path fill="#EEEDED" opacity="1.000000" stroke="none" 
	d="
M35.646294,393.884827 
	C36.484570,394.010864 36.968838,394.184235 37.586304,394.578094 
	C36.769470,396.622284 35.819439,398.445984 34.979866,400.057617 
	C33.379116,400.215912 31.430847,400.408569 29.107893,400.322357 
	C28.502928,398.262512 28.272646,396.481567 28.022943,394.550415 
	C29.183840,393.726837 30.859175,392.538300 32.413380,391.435699 
	C33.224083,392.138702 34.258183,393.035461 35.646294,393.884827 
z"/>
<path fill="#EC3431" opacity="1.000000" stroke="none" 
	d="
M46.687103,430.272064 
	C46.094574,429.798706 45.711514,429.150543 44.684193,427.412292 
	C46.159203,428.469421 46.654312,428.824249 47.226173,429.456146 
	C47.167473,429.854584 47.032021,429.975922 46.687103,430.272064 
z"/>
<path fill="#EC3431" opacity="1.000000" stroke="none" 
	d="
M64.552605,417.408691 
	C63.644520,417.283905 63.009403,416.909546 61.389866,415.954895 
	C63.302658,416.103760 64.070129,416.163483 65.085381,416.422058 
	C65.163956,416.800262 64.994766,416.979645 64.552605,417.408691 
z"/>
<path fill="#F4DC57" opacity="1.000000" stroke="none" 
	d="
M180.204865,487.087372 
	C179.879776,488.153839 179.554703,489.220337 179.135132,491.026062 
	C178.994339,493.159424 178.948059,494.553589 178.901794,495.947723 
	C176.211273,495.135925 173.488617,494.415558 170.840210,493.484131 
	C168.631989,492.707520 165.776886,492.642822 166.066650,488.940948 
	C166.340500,485.442627 165.774231,481.696533 171.861237,480.522522 
	C166.547775,479.286346 162.497375,477.527527 164.472488,472.352631 
	C165.376205,469.984863 168.060242,466.645050 170.016388,466.590363 
	C186.495895,466.129578 202.993835,466.327728 219.486237,466.327728 
	C219.587128,466.769745 219.688034,467.211731 219.788925,467.653748 
	C217.429199,469.046814 215.215179,470.846680 212.681549,471.754272 
	C205.924026,474.174988 203.913239,479.107178 204.334518,485.720001 
	C204.449875,487.530609 205.223938,490.015778 201.428574,489.775879 
	C200.514938,489.409180 200.067169,489.250854 199.619415,489.092529 
	C199.530365,489.386841 199.441299,489.681183 199.352249,489.975464 
	C199.925232,489.992920 200.498230,490.010376 201.071213,490.027832 
	C203.259186,490.964478 205.447144,491.901123 207.849258,492.929474 
	C207.580231,496.602478 207.284225,500.643921 206.957672,505.102692 
	C203.474228,504.005157 200.096298,503.173615 196.919174,501.857391 
	C194.827499,500.990784 191.745209,499.733765 191.354691,498.110657 
	C190.491730,494.524017 190.294357,490.308899 193.979843,488.869812 
	C193.622375,485.155548 193.475235,481.952118 192.922592,478.820221 
	C192.736740,477.766968 191.519958,476.895599 190.570526,475.660522 
	C190.366714,475.379944 190.286179,474.950592 190.190735,474.602264 
	C187.812119,472.867676 185.672256,472.014893 184.753708,475.732422 
	C184.758377,475.774506 184.674667,475.761993 184.347168,475.966034 
	C183.670609,478.399445 183.321564,480.628845 182.934219,483.102783 
	C181.065292,483.102783 179.351334,483.102783 178.287338,483.102783 
	C178.928253,484.434570 179.566559,485.760956 180.204865,487.087372 
z"/>
<path fill="#FBFAFA" opacity="1.000000" stroke="none" 
	d="
M188.144806,425.563385 
	C190.827515,421.330414 199.616394,419.473755 205.215088,421.538147 
	C208.144409,422.618225 211.056152,423.745972 214.437714,425.027161 
	C214.437714,436.943115 214.437714,449.181671 214.437714,461.761627 
	C205.937759,461.080566 197.309052,460.389160 188.139008,459.654419 
	C188.139008,449.091522 188.139008,437.549835 188.144806,425.563385 
z"/>
<path fill="#F9F9F9" opacity="1.000000" stroke="none" 
	d="
M159.426819,450.963837 
	C159.425674,442.173309 159.425674,433.877563 159.425674,424.390228 
	C167.110596,423.631073 174.729401,422.687073 182.377365,422.218658 
	C185.367569,422.035553 186.810181,423.792908 186.723190,427.292786 
	C186.451584,438.221100 186.623520,449.160461 186.623520,459.534393 
	C177.192337,460.313019 168.559540,461.025757 159.427963,461.779663 
	C159.427963,458.354187 159.427963,454.906403 159.426819,450.963837 
z"/>
<path fill="#F6F6F6" opacity="1.000000" stroke="none" 
	d="
M230.774826,481.837341 
	C223.970154,489.293091 217.404999,496.493958 210.419724,504.155670 
	C209.400192,498.872589 209.783463,494.961639 213.722595,491.302338 
	C219.172714,486.239441 223.995468,480.501160 229.550598,474.994354 
	C228.759384,477.589386 235.048401,478.123199 230.774826,481.837341 
z"/>
<path fill="#F0D956" opacity="1.000000" stroke="none" 
	d="
M194.525330,416.409058 
	C190.125320,421.410095 185.127411,421.434875 180.262787,416.551636 
	C181.415024,416.242523 182.464600,415.960938 183.776627,415.608917 
	C182.434891,414.600098 181.272354,413.726013 179.920563,412.709656 
	C180.623642,412.249176 181.533661,411.732178 181.500916,411.663361 
	C179.653870,407.777557 184.435104,407.201355 185.141953,404.530396 
	C185.339203,403.785095 187.402115,402.933380 188.438248,403.113464 
	C193.082214,403.920837 195.528366,412.093536 192.247726,415.823090 
	C192.966125,415.953247 193.605972,416.069183 194.525330,416.409058 
z"/>
<path fill="#F1DA57" opacity="1.000000" stroke="none" 
	d="
M141.012802,476.813477 
	C142.367874,475.093201 143.577194,473.747223 144.125839,473.136597 
	C148.019592,474.675995 151.359741,475.996552 154.659256,477.301025 
	C154.279587,480.697021 153.900940,484.083923 153.522095,487.472534 
	C142.392075,486.296631 140.304016,484.614380 141.012802,476.813477 
z"/>
<path fill="#F2F2F2" opacity="1.000000" stroke="none" 
	d="
M210.688095,475.804626 
	C214.807907,473.515289 218.592102,471.398743 222.376282,469.282227 
	C222.655319,469.697388 222.934357,470.112549 223.213379,470.527710 
	C218.141525,476.329315 213.069656,482.130890 207.997803,487.932495 
	C207.631317,483.655945 204.943817,478.971893 210.688095,475.804626 
z"/>
<path fill="#E5E4E4" opacity="1.000000" stroke="none" 
	d="
M156.993347,432.747314 
	C156.994308,443.729065 156.994308,454.282837 156.994308,464.836578 
	C156.541443,464.988953 156.088593,465.141296 155.635727,465.293640 
	C155.126755,464.454773 154.181976,463.619293 154.175507,462.776550 
	C154.101730,453.170990 154.097992,443.562744 154.301422,433.960022 
	C154.324951,432.849884 155.712311,431.768646 156.467346,430.674011 
	C156.642349,431.222443 156.817368,431.770874 156.993347,432.747314 
z"/>
<path fill="#4B432B" opacity="1.000000" stroke="none" 
	d="
M184.749023,475.690369 
	C185.672256,472.014893 187.812119,472.867676 189.878784,474.731995 
	C186.987244,478.485168 186.521164,482.099426 188.003784,486.012848 
	C187.151993,487.497406 186.300186,488.981964 185.463852,490.439575 
	C183.598434,489.277588 182.112152,488.351746 180.415375,487.256653 
	C179.566559,485.760956 178.928253,484.434570 178.287338,483.102783 
	C179.351334,483.102783 181.065292,483.102783 182.934219,483.102783 
	C183.321564,480.628845 183.670609,478.399445 184.448120,476.219055 
	C185.152390,476.573792 185.428192,476.879486 185.704010,477.185181 
	C185.865082,476.987427 186.026123,476.789642 186.187149,476.591888 
	C185.707764,476.291382 185.228394,475.990875 184.749023,475.690369 
z"/>
<path fill="#E1CB52" opacity="1.000000" stroke="none" 
	d="
M211.687820,487.690186 
	C217.399673,480.727753 223.251221,473.901123 229.552338,467.511444 
	C230.110092,468.024719 230.667862,468.537964 231.225616,469.051239 
	C225.159409,475.547729 219.093201,482.044220 212.566193,488.416016 
	C211.966187,488.090942 211.826996,487.890564 211.687820,487.690186 
z"/>
<path fill="#EDD756" opacity="1.000000" stroke="none" 
	d="
M152.631927,467.698517 
	C153.580704,469.863281 154.142120,471.849335 154.703552,473.835358 
	C154.241745,474.223633 153.779938,474.611877 153.318130,475.000122 
	C151.550644,473.876495 148.690979,473.075745 148.243378,471.561859 
	C147.315659,468.424103 146.972824,464.644012 151.469467,462.809296 
	C151.742340,464.467560 151.993454,465.993652 152.631927,467.698517 
z"/>
<path fill="#CCB94D" opacity="1.000000" stroke="none" 
	d="
M162.508240,480.881470 
	C161.790146,484.099640 161.267868,486.979248 160.690887,490.160370 
	C159.109863,489.473328 157.570419,488.804382 155.451828,487.883759 
	C156.999069,485.154022 158.504776,482.386047 160.200851,479.740082 
	C160.322250,479.550690 161.837097,480.254456 162.508240,480.881470 
z"/>
<path fill="#E9E9E9" opacity="1.000000" stroke="none" 
	d="
M218.339172,432.869568 
	C218.602997,442.955048 218.602997,453.375092 218.602997,463.795105 
	C218.427109,463.798218 218.251236,463.801331 218.075348,463.804443 
	C218.075348,453.604309 218.075348,443.404205 218.339172,432.869568 
z"/>
<path fill="#534A2D" opacity="1.000000" stroke="none" 
	d="
M188.386322,485.900787 
	C186.521164,482.099426 186.987244,478.485168 189.974213,475.080322 
	C190.286179,474.950592 190.366714,475.379944 190.232819,475.551880 
	C189.655563,479.078796 189.212204,482.433777 188.386322,485.900787 
z"/>
<path fill="#4B432B" opacity="1.000000" stroke="none" 
	d="
M179.194153,496.095642 
	C178.948059,494.553589 178.994339,493.159424 179.150742,491.361053 
	C180.629959,492.848511 181.999069,494.740204 183.368164,496.631897 
	C182.978699,496.959076 182.589218,497.286255 182.199738,497.613434 
	C181.295334,497.156799 180.390930,496.700165 179.194153,496.095642 
z"/>
<path fill="#E1CB52" opacity="1.000000" stroke="none" 
	d="
M212.275574,488.615356 
	C212.024551,489.109406 211.603317,489.279449 211.182098,489.449463 
	C211.162399,489.009064 211.142700,488.568665 211.405426,487.909241 
	C211.826996,487.890564 211.966187,488.090942 212.275574,488.615356 
z"/>
<path fill="#E1CB52" opacity="1.000000" stroke="none" 
	d="
M208.192230,491.506775 
	C208.682083,491.191650 209.171936,490.876526 209.661774,490.561401 
	C209.743851,490.952026 209.825912,491.342651 209.326385,491.797638 
	C208.560577,491.743561 208.376404,491.625153 208.192230,491.506775 
z"/>
<path fill="#E1CB52" opacity="1.000000" stroke="none" 
	d="
M209.004105,492.063507 
	C208.846680,492.547485 208.429932,492.829956 208.013153,493.112427 
	C207.908630,492.766174 207.804092,492.419983 207.945892,491.790283 
	C208.376404,491.625153 208.560577,491.743561 209.004105,492.063507 
z"/>
<path fill="#F3DC57" opacity="1.000000" stroke="none" 
	d="
M201.039337,490.014008 
	C200.498230,490.010376 199.925232,489.992920 199.352249,489.975464 
	C199.441299,489.681183 199.530365,489.386841 199.619415,489.092529 
	C200.067169,489.250854 200.514938,489.409180 200.999786,489.815094 
	C201.036880,490.062714 201.007477,490.000214 201.039337,490.014008 
z"/>
<path fill="#534A2D" opacity="1.000000" stroke="none" 
	d="
M184.753693,475.732452 
	C185.228394,475.990875 185.707764,476.291382 186.187149,476.591888 
	C186.026123,476.789642 185.865082,476.987427 185.704010,477.185181 
	C185.428192,476.879486 185.152390,476.573792 184.775635,476.015015 
	C184.674667,475.761993 184.758377,475.774506 184.753693,475.732452 
z"/>
</svg>